<?xml version="1.0" encoding="UTF-8"?>
<svg id="Layer_1" xmlns="http://www.w3.org/2000/svg" version="1.1" viewBox="0 0 70.31 75.33">
  <!-- Generator: Adobe Illustrator 29.5.1, SVG Export Plug-In . SVG Version: 2.1.0 Build 141)  -->
  <defs>
    <style>
      .st0 {
        stroke-linecap: round;
        stroke-linejoin: round;
      }

      .st0, .st1 {
        fill: none;
        stroke: #231f20;
        stroke-width: 3px;
      }

      .st1 {
        stroke-miterlimit: 10;
      }
    </style>
  </defs>
  <circle class="st1" cx="35.15" cy="27.88" r="17.56"/>
  <path class="st1" d="M43.47,53.02c10.2-3.39,17.55-13.01,17.55-24.35"/>
  <circle class="st1" cx="38.94" cy="54.08" r="4.17"/>
  <path class="st0" d="M18.32,45.19c-1.92.48-3.72,1.12-4.98,1.94-4.25,2.79-8.25,6.79-8.74,16.5-.49,9.71-.73,10.2-.73,10.2"/>
  <path class="st0" d="M58.74,48.39c3.53,2.77,6.55,6.9,6.96,15.24.49,9.71.73,10.2.73,10.2"/>
  <path class="st0" d="M59.5,19.21c5.14,0,9.31,4.17,9.31,9.31,0,5.14-4.17,9.31-9.31,9.31.98-2.86,1.52-5.94,1.52-9.16,0-15.01-11.58-27.17-25.86-27.17-14.28,0-25.86,12.17-25.86,27.17,0,3.21.54,6.29,1.52,9.16-5.14,0-9.31-4.17-9.31-9.31,0-5.14,4.17-9.31,9.31-9.31"/>
</svg>