<?xml version="1.0" encoding="UTF-8"?>
<svg id="Layer_1" xmlns="http://www.w3.org/2000/svg" version="1.1" viewBox="0 0 85.69 85.69">
  <!-- Generator: Adobe Illustrator 29.5.1, SVG Export Plug-In . SVG Version: 2.1.0 Build 141)  -->
  <defs>
    <style>
      .st0 {
        fill: none;
        stroke: #000;
        stroke-linecap: round;
        stroke-linejoin: round;
        stroke-width: 3px;
      }
    </style>
  </defs>
  <path class="st0" d="M37.34,64.58c1.76.44,3.6.68,5.5.68,12.38,0,22.42-10.04,22.42-22.42,0-1.71-.19-3.38-.56-4.98"/>
  <path class="st0" d="M47.79,20.97c-1.59-.36-3.24-.55-4.94-.55-12.38,0-22.42,10.04-22.42,22.42,0,1.55.16,3.06.46,4.52"/>
  <path class="st0" d="M31.77,72.83c1.46.54,2.96.97,4.51,1.3h0s.85,9.67.85,9.67c1.87.26,3.77.4,5.71.4,2.12,0,4.2-.16,6.23-.47l.73-9.68h0c3.81-.84,7.36-2.36,10.51-4.44h0s7.44,6.24,7.44,6.24c1.5-1.13,2.95-2.38,4.31-3.75,1.5-1.5,2.86-3.08,4.07-4.74l-6.33-7.37h0c2.03-3.18,3.51-6.75,4.31-10.57h0s9.67-.85,9.67-.85c.26-1.87.4-3.77.4-5.71,0-2.12-.16-4.2-.47-6.23l-9.68-.73h0s0,0,0,0c-.25-1.12-.56-2.22-.92-3.3"/>
  <path class="st0" d="M52.93,12.52c-1.02-.34-2.07-.63-3.13-.87h0s-.73-9.68-.73-9.68c-2.03-.31-4.11-.47-6.23-.47-1.94,0-3.84.14-5.71.4l-.85,9.67h0c-3.82.79-7.39,2.27-10.58,4.3h0s-7.37-6.33-7.37-6.33c-1.66,1.21-3.24,2.57-4.74,4.07-1.37,1.37-2.62,2.81-3.75,4.31l6.23,7.44h0s0,0,0,0c-2.07,3.16-3.6,6.71-4.44,10.52h0s-9.68.73-9.68.73c-.32,2.03-.47,4.11-.47,6.23,0,1.94.13,3.84.4,5.71l9.67.85h0c.24,1.16.55,2.29.91,3.4"/>
  <path class="st0" d="M26.88,67.86l40.99-40.99c4.31,1.17,9.1.07,12.49-3.32s4.48-8.18,3.32-12.49l-7.49,7.49c-2.17-.39-4.26-1.43-5.94-3.11s-2.72-3.76-3.11-5.94l7.49-7.49c-4.31-1.17-9.1-.07-12.49,3.32s-4.48,8.18-3.32,12.49L17.82,58.81c-4.31-1.17-9.1-.07-12.49,3.32s-4.48,8.18-3.32,12.49l7.49-7.49c2.18.39,4.26,1.43,5.94,3.11s2.72,3.77,3.11,5.94l-7.49,7.49c4.31,1.17,9.1.07,12.49-3.32s4.48-8.18,3.32-12.49Z"/>
</svg>