<svg width="27" height="32" viewBox="0 0 27 32" fill="none" xmlns="http://www.w3.org/2000/svg">
<path d="M4.37019 19.1352C7.43948 26.4879 12.1799 29.6941 13.7953 30.3285C14.9874 30.793 16.4468 30.4248 17.8172 29.5128C19.1875 28.6008 20.3573 27.4792 19.3936 25.5986C18.2684 23.4007 16.5638 20.7496 14.3969 21.9392C13.7006 22.3187 12.6812 23.429 11.4892 22.1771C10.8207 21.469 9.87932 20.4494 8.44216 17.2035C6.92144 14.003 6.75989 12.6095 6.65406 11.6352C6.47023 9.90181 7.96867 9.81684 8.6984 9.52228C10.9878 8.59894 10.0854 5.56835 9.15517 3.27983C8.3586 1.3142 6.75989 1.50113 5.19461 1.98829C3.62932 2.47545 2.4094 3.3648 1.99162 4.59403C1.42901 6.2651 0.799555 12.0204 4.37019 19.1352Z" stroke="#827F7F" stroke-width="2" stroke-linecap="round" stroke-linejoin="round"/>
<path d="M17.0819 18.0532C18.0121 16.6824 18.1792 14.7394 17.3715 12.972C16.5638 11.2047 14.9874 10.0887 13.3608 9.93013" stroke="#827F7F" stroke-width="2" stroke-linecap="round" stroke-linejoin="round"/>
<path d="M20.4853 18.7103C21.8389 16.7107 22.0896 13.8727 20.9087 11.2896C19.7277 8.70656 17.4271 7.08081 15.0486 6.84856" stroke="#827F7F" stroke-width="2" stroke-linecap="round" stroke-linejoin="round"/>
<path d="M23.8943 19.3674C25.6769 16.739 26.0055 13.006 24.4458 9.61291C22.8917 6.21978 19.8669 4.07288 16.7419 3.77265" stroke="#827F7F" stroke-width="2" stroke-linecap="round" stroke-linejoin="round"/>
</svg>
