<?xml version="1.0" encoding="UTF-8"?>
<svg id="Layer_1" xmlns="http://www.w3.org/2000/svg" version="1.1" viewBox="0 0 157 34.44">
  <!-- Generator: Adobe Illustrator 29.5.1, SVG Export Plug-In . SVG Version: 2.1.0 Build 141)  -->
  <path d="M157,0v2.87h-.64v-1.86s-.69,1.58-.69,1.58h-.47l-.69-1.58v1.86h-.65V0h.8l.78,1.71.78-1.71h.79ZM150.69.59h.86v2.28h.73V.59h.86v-.59h-2.45v.59ZM96.87,8.61h-6.46c-4.76,0-8.61,3.86-8.61,8.61s3.86,8.61,8.61,8.61h6.46c0-2.38-1.93-4.31-4.31-4.31h-2.15c-2.38,0-4.31-1.93-4.31-4.3s1.93-4.31,4.31-4.31h2.15c2.38,0,4.31-1.93,4.31-4.31M124.85,12.92h0c2.38,0,4.31,1.93,4.31,4.31s-1.93,4.3-4.31,4.3-4.31-1.93-4.31-4.3,1.93-4.31,4.31-4.31M116.24,17.22h0c0,4.75,3.86,8.61,8.61,8.61s8.61-3.86,8.61-8.61-3.86-8.61-8.61-8.61-8.61,3.86-8.61,8.61M105.48,12.92h0c2.38,0,4.31,1.93,4.31,4.31s-1.93,4.3-4.31,4.3-4.31-1.93-4.31-4.3,1.93-4.31,4.31-4.31M96.87,17.22h0c0,4.75,3.86,8.61,8.61,8.61s8.61-3.86,8.61-8.61-3.86-8.61-8.61-8.61-8.61,3.86-8.61,8.61M71.04,12.92h0c2.38,0,4.31,1.93,4.31,4.31s-1.93,4.3-4.31,4.3-4.31-1.93-4.31-4.3,1.93-4.31,4.31-4.31M62.43,17.22h0c0,4.75,3.86,8.61,8.61,8.61s8.61-3.86,8.61-8.61-3.86-8.61-8.61-8.61-8.61,3.86-8.61,8.61M143.88,15.04l3.06-3.05c1.87-1.87,2.02-4.75.34-6.43l-7.36,7.35V4.31c0-2.38-1.93-4.31-4.31-4.31v25.83h4.31v-8.66l7.41,7.41c1.68,1.68,4.4,1.68,6.08,0l-9.53-9.53ZM36.6,12.92v12.91c2.38,0,4.31-1.93,4.31-4.31v-12.91c-2.38,0-4.31,1.93-4.31,4.31M51.66,21.53h0c-2.38,0-4.31-1.93-4.31-4.3s1.93-4.31,4.31-4.31h4.31v4.31c0,2.38-1.93,4.3-4.31,4.3M60.27,0c-2.38,0-4.31,1.93-4.31,4.31v4.31h-4.31c-4.76,0-8.61,3.86-8.61,8.61s3.86,8.61,8.61,8.61,8.61-3.86,8.61-8.61V0ZM25.83,12.92h0c2.38,0,4.31,1.93,4.31,4.31s-1.93,4.3-4.31,4.3h-4.31v-4.3c0-2.38,1.93-4.31,4.31-4.31M17.22,34.44c2.38,0,4.31-1.93,4.31-4.3v-4.31h4.31c4.76,0,8.61-3.86,8.61-8.61s-3.86-8.61-8.61-8.61-8.61,3.86-8.61,8.61v17.22ZM15.07,8.61c0,2.38-1.93,4.31-4.31,4.31h-5.38c-.59,0-1.08.48-1.08,1.08s.48,1.08,1.08,1.08h4.31c2.97,0,5.38,2.41,5.38,5.38s-2.41,5.38-5.38,5.38H0c0-2.38,1.93-4.31,4.31-4.31h5.38c.59,0,1.08-.48,1.08-1.08s-.48-1.08-1.08-1.08h-4.31c-2.97,0-5.38-2.41-5.38-5.38s2.41-5.38,5.38-5.38h9.69Z"/>
</svg>