<?xml version="1.0" encoding="UTF-8"?>
<svg id="Layer_1" xmlns="http://www.w3.org/2000/svg" xmlns:xlink="http://www.w3.org/1999/xlink" version="1.1" viewBox="0 0 183.2 31.41">
  <!-- Generator: Adobe Illustrator 29.5.1, SVG Export Plug-In . SVG Version: 2.1.0 Build 141)  -->
  <defs>
    <style>
      .st0 {
        clip-path: url(#clippath-1);
      }

      .st1 {
        clip-path: url(#clippath-3);
      }

      .st2 {
        clip-path: url(#clippath-4);
      }

      .st3 {
        clip-path: url(#clippath-2);
      }

      .st4 {
        clip-path: url(#clippath-7);
      }

      .st5 {
        clip-path: url(#clippath-6);
      }

      .st6 {
        clip-path: url(#clippath-9);
      }

      .st7 {
        clip-path: url(#clippath-8);
      }

      .st8 {
        clip-path: url(#clippath-5);
      }

      .st9 {
        clip-path: url(#clippath);
      }
    </style>
    <clipPath id="clippath">
      <polygon points="177.13 .5 177.13 .88 178.01 .88 178.01 3.69 178.47 3.69 178.47 .9 179.35 .9 179.35 .5 177.13 .5"/>
    </clipPath>
    <clipPath id="clippath-1">
      <polygon points="182.56 .5 181.61 3.02 180.72 .5 180.02 .5 180.02 3.69 180.51 3.69 180.51 1.01 181.5 3.69 181.72 3.69 182.72 .98 182.72 3.69 183.2 3.69 183.2 .5 182.56 .5"/>
    </clipPath>
    <clipPath id="clippath-2">
      <polygon points="21.7 .3 21.7 5.28 29.56 5.28 29.56 30.88 34.98 30.88 34.98 5.28 44.67 5.28 44.67 .3 21.7 .3"/>
    </clipPath>
    <clipPath id="clippath-3">
      <polygon points="68.52 .29 59.22 14.74 49.92 .3 44.21 .3 44.21 30.84 49.53 30.84 49.53 9.02 59.09 23.33 59.26 23.33 68.9 8.93 68.9 30.84 74.23 30.84 74.23 .29 68.52 .29"/>
    </clipPath>
    <clipPath id="clippath-4">
      <polygon points="125.63 .36 116.51 23.72 107.35 .37 101.45 .37 114.09 30.97 118.77 30.97 131.4 .36 125.63 .36"/>
    </clipPath>
    <clipPath id="clippath-5">
      <path d="M162.91,31.41c-2.22,0-4.28-.41-6.16-1.22-1.88-.81-3.51-1.92-4.89-3.32-1.38-1.4-2.47-3.06-3.25-4.97s-1.18-3.95-1.18-6.12v-.09c0-2.17.39-4.2,1.16-6.1.77-1.9,1.86-3.56,3.25-4.99,1.39-1.43,3.05-2.56,4.96-3.38s4.02-1.24,6.33-1.24c1.39,0,2.65.12,3.79.35,1.14.23,2.19.56,3.15.97.96.42,1.83.92,2.64,1.5.81.58,1.58,1.21,2.3,1.91l-3.43,3.95c-1.22-1.13-2.5-2.04-3.86-2.73-1.36-.69-2.91-1.04-4.64-1.04-1.45,0-2.79.28-4.01.84-1.22.56-2.29,1.33-3.19,2.3s-1.59,2.1-2.08,3.4c-.49,1.3-.74,2.69-.74,4.17v.09c0,1.47.24,2.87.74,4.19.5,1.32,1.18,2.47,2.08,3.45s1.96,1.75,3.19,2.32c1.23.57,2.56.84,4.01.84,1.85,0,3.44-.35,4.77-1.06,1.33-.71,2.65-1.67,3.95-2.89l3.43,3.47c-.78.84-1.6,1.58-2.45,2.23-.85.65-1.77,1.22-2.75,1.69s-2.06.84-3.23,1.09c-1.17.25-2.47.37-3.88.37"/>
    </clipPath>
    <clipPath id="clippath-6">
      <polygon points="12.62 .3 0 30.88 5.77 30.88 14.88 7.54 24.03 30.88 29.93 30.88 17.31 .3 12.62 .3"/>
    </clipPath>
    <clipPath id="clippath-7">
      <polygon points="151.01 30.88 145.11 30.88 135.96 7.54 126.84 30.88 121.07 30.88 133.7 .3 138.39 .3 151.01 30.88"/>
    </clipPath>
    <clipPath id="clippath-8">
      <path d="M89.3,30.86c-2.28,0-4.36-.4-6.25-1.2-1.88-.8-3.5-1.89-4.85-3.27-1.35-1.38-2.41-2.99-3.17-4.84-.76-1.85-1.14-3.81-1.14-5.89v-.09c0-2.08.38-4.04,1.14-5.89.76-1.85,1.83-3.46,3.21-4.85,1.38-1.39,3.01-2.5,4.89-3.32s3.97-1.22,6.25-1.22,4.36.4,6.25,1.2c1.88.8,3.51,1.89,4.85,3.27,1.35,1.38,2.41,2.99,3.17,4.84.76,1.85,1.15,3.81,1.15,5.89v.09c0,2.08-.38,4.04-1.15,5.89-.77,1.85-1.83,3.46-3.21,4.85s-3.01,2.5-4.9,3.32c-1.89.82-3.97,1.22-6.25,1.22M89.39,26.09c1.46,0,2.79-.27,4.02-.82,1.22-.55,2.26-1.3,3.13-2.24s1.55-2.05,2.03-3.32c.48-1.27.74-2.62.74-4.05v-.09c0-1.44-.24-2.79-.74-4.08-.5-1.28-1.18-2.39-2.06-3.34-.88-.94-1.94-1.69-3.17-2.26-1.23-.56-2.58-.84-4.04-.84s-2.79.27-4.01.82c-1.22.55-2.26,1.3-3.13,2.24-.87.94-1.55,2.05-2.04,3.32-.49,1.27-.73,2.62-.73,4.05v.09c0,1.43.25,2.79.73,4.08.48,1.28,1.18,2.39,2.06,3.34s1.94,1.69,3.17,2.26c1.23.56,2.58.84,4.04.84"/>
    </clipPath>
    <clipPath id="clippath-9">
      <rect x="71.53" y="14.26" width="35.61" height="2.64" transform="translate(24.99 79.48) rotate(-54.69)"/>
    </clipPath>
  </defs>
  <g>
    <polygon points="177.13 .5 177.13 .88 178.01 .88 178.01 3.69 178.47 3.69 178.47 .9 179.35 .9 179.35 .5 177.13 .5"/>
    <g class="st9">
      <rect x="-3.27" y="-3.27" width="189.74" height="37.95"/>
    </g>
  </g>
  <g>
    <polygon points="182.56 .5 181.61 3.02 180.72 .5 180.02 .5 180.02 3.69 180.51 3.69 180.51 1.01 181.5 3.69 181.72 3.69 182.72 .98 182.72 3.69 183.2 3.69 183.2 .5 182.56 .5"/>
    <g class="st0">
      <rect x="-3.27" y="-3.27" width="189.74" height="37.95"/>
    </g>
  </g>
  <g>
    <polygon points="21.7 .3 21.7 5.28 29.56 5.28 29.56 30.88 34.98 30.88 34.98 5.28 44.67 5.28 44.67 .3 21.7 .3"/>
    <g class="st3">
      <rect x="-3.27" y="-3.27" width="189.74" height="37.95"/>
    </g>
  </g>
  <g>
    <polygon points="68.52 .29 59.22 14.74 49.92 .3 44.21 .3 44.21 30.84 49.53 30.84 49.53 9.02 59.09 23.33 59.26 23.33 68.9 8.93 68.9 30.84 74.23 30.84 74.23 .29 68.52 .29"/>
    <g class="st1">
      <rect x="-3.27" y="-3.27" width="189.74" height="37.95"/>
    </g>
  </g>
  <g>
    <polygon points="125.63 .36 116.51 23.72 107.35 .37 101.45 .37 114.09 30.97 118.77 30.97 131.4 .36 125.63 .36"/>
    <g class="st2">
      <rect x="-3.27" y="-3.27" width="189.74" height="37.95"/>
    </g>
  </g>
  <g>
    <path d="M162.91,31.41c-2.22,0-4.28-.41-6.16-1.22-1.88-.81-3.51-1.92-4.89-3.32-1.38-1.4-2.47-3.06-3.25-4.97s-1.18-3.95-1.18-6.12v-.09c0-2.17.39-4.2,1.16-6.1.77-1.9,1.86-3.56,3.25-4.99,1.39-1.43,3.05-2.56,4.96-3.38s4.02-1.24,6.33-1.24c1.39,0,2.65.12,3.79.35,1.14.23,2.19.56,3.15.97.96.42,1.83.92,2.64,1.5.81.58,1.58,1.21,2.3,1.91l-3.43,3.95c-1.22-1.13-2.5-2.04-3.86-2.73-1.36-.69-2.91-1.04-4.64-1.04-1.45,0-2.79.28-4.01.84-1.22.56-2.29,1.33-3.19,2.3s-1.59,2.1-2.08,3.4c-.49,1.3-.74,2.69-.74,4.17v.09c0,1.47.24,2.87.74,4.19.5,1.32,1.18,2.47,2.08,3.45s1.96,1.75,3.19,2.32c1.23.57,2.56.84,4.01.84,1.85,0,3.44-.35,4.77-1.06,1.33-.71,2.65-1.67,3.95-2.89l3.43,3.47c-.78.84-1.6,1.58-2.45,2.23-.85.65-1.77,1.22-2.75,1.69s-2.06.84-3.23,1.09c-1.17.25-2.47.37-3.88.37"/>
    <g class="st8">
      <rect x="-3.27" y="-3.27" width="189.74" height="37.95"/>
    </g>
  </g>
  <g>
    <polygon points="12.62 .3 0 30.88 5.77 30.88 14.88 7.54 24.03 30.88 29.93 30.88 17.31 .3 12.62 .3"/>
    <g class="st5">
      <rect x="-3.27" y="-3.27" width="189.74" height="37.95"/>
    </g>
  </g>
  <g>
    <polygon points="151.01 30.88 145.11 30.88 135.96 7.54 126.84 30.88 121.07 30.88 133.7 .3 138.39 .3 151.01 30.88"/>
    <g class="st4">
      <rect x="-3.27" y="-3.27" width="189.74" height="37.95"/>
    </g>
  </g>
  <g>
    <path d="M89.3,30.86c-2.28,0-4.36-.4-6.25-1.2-1.88-.8-3.5-1.89-4.85-3.27-1.35-1.38-2.41-2.99-3.17-4.84-.76-1.85-1.14-3.81-1.14-5.89v-.09c0-2.08.38-4.04,1.14-5.89.76-1.85,1.83-3.46,3.21-4.85,1.38-1.39,3.01-2.5,4.89-3.32s3.97-1.22,6.25-1.22,4.36.4,6.25,1.2c1.88.8,3.51,1.89,4.85,3.27,1.35,1.38,2.41,2.99,3.17,4.84.76,1.85,1.15,3.81,1.15,5.89v.09c0,2.08-.38,4.04-1.15,5.89-.77,1.85-1.83,3.46-3.21,4.85s-3.01,2.5-4.9,3.32c-1.89.82-3.97,1.22-6.25,1.22M89.39,26.09c1.46,0,2.79-.27,4.02-.82,1.22-.55,2.26-1.3,3.13-2.24s1.55-2.05,2.03-3.32c.48-1.27.74-2.62.74-4.05v-.09c0-1.44-.24-2.79-.74-4.08-.5-1.28-1.18-2.39-2.06-3.34-.88-.94-1.94-1.69-3.17-2.26-1.23-.56-2.58-.84-4.04-.84s-2.79.27-4.01.82c-1.22.55-2.26,1.3-3.13,2.24-.87.94-1.55,2.05-2.04,3.32-.49,1.27-.73,2.62-.73,4.05v.09c0,1.43.25,2.79.73,4.08.48,1.28,1.18,2.39,2.06,3.34s1.94,1.69,3.17,2.26c1.23.56,2.58.84,4.04.84"/>
    <g class="st7">
      <rect x="-3.27" y="-3.27" width="189.74" height="37.95"/>
    </g>
  </g>
  <g>
    <rect x="71.53" y="14.26" width="35.61" height="2.64" transform="translate(24.99 79.48) rotate(-54.69)"/>
    <g class="st6">
      <rect x="-3.27" y="-3.27" width="189.74" height="37.95"/>
    </g>
  </g>
</svg>