<?xml version="1.0" encoding="UTF-8"?>
<svg id="Layer_1" xmlns="http://www.w3.org/2000/svg" xmlns:xlink="http://www.w3.org/1999/xlink" version="1.1" viewBox="0 0 1886.74 170.84">
  <!-- Generator: Adobe Illustrator 29.5.1, SVG Export Plug-In . SVG Version: 2.1.0 Build 141)  -->
  <defs>
    <style>
      .st0 {
        fill: #ffc908;
      }

      .st1 {
        fill: #ea1c24;
      }

      .st2 {
        fill: #009bd9;
      }

      .st3 {
        fill: #151614;
      }

      .st4 {
        fill: #161715;
      }

      .st5 {
        fill: #5fafe1;
      }

      .st6 {
        clip-path: url(#clippath-1);
      }

      .st7 {
        clip-path: url(#clippath-3);
      }

      .st8 {
        clip-path: url(#clippath-4);
      }

      .st9 {
        clip-path: url(#clippath-2);
      }

      .st10 {
        clip-path: url(#clippath-7);
      }

      .st11 {
        clip-path: url(#clippath-6);
      }

      .st12 {
        clip-path: url(#clippath-9);
      }

      .st13 {
        clip-path: url(#clippath-8);
      }

      .st14 {
        clip-path: url(#clippath-5);
      }

      .st15 {
        fill: #ff3425;
      }

      .st16 {
        fill-rule: evenodd;
      }

      .st17 {
        fill: #575756;
      }

      .st18 {
        fill: #fff;
      }

      .st19 {
        fill: #bf2026;
      }

      .st20 {
        fill: #1b75bc;
      }

      .st21 {
        fill: #d85b4d;
      }

      .st22 {
        fill: #939599;
      }

      .st23 {
        fill: #d90d15;
      }

      .st24 {
        fill: #1e3364;
      }

      .st25 {
        fill: #4b4b4d;
      }

      .st26 {
        fill: #00a843;
      }

      .st27 {
        clip-path: url(#clippath);
      }

      .st28 {
        fill: #ececec;
      }
    </style>
    <clipPath id="clippath">
      <polygon points="976.26 20.87 976.26 21.25 977.15 21.25 977.15 24.06 977.61 24.06 977.61 21.27 978.49 21.27 978.49 20.87 976.26 20.87"/>
    </clipPath>
    <clipPath id="clippath-1">
      <polygon points="981.69 20.87 980.75 23.39 979.86 20.87 979.16 20.87 979.16 24.06 979.65 24.06 979.65 21.38 980.63 24.06 980.86 24.06 981.86 21.35 981.86 24.06 982.34 24.06 982.34 20.87 981.69 20.87"/>
    </clipPath>
    <clipPath id="clippath-2">
      <polygon points="820.83 20.67 820.83 25.65 828.7 25.65 828.7 51.25 834.12 51.25 834.12 25.65 843.81 25.65 843.81 20.67 820.83 20.67"/>
    </clipPath>
    <clipPath id="clippath-3">
      <polygon points="867.65 20.66 858.36 35.11 849.06 20.67 843.35 20.67 843.35 51.21 848.67 51.21 848.67 29.39 858.23 43.7 858.4 43.7 868.04 29.3 868.04 51.21 873.37 51.21 873.37 20.66 867.65 20.66"/>
    </clipPath>
    <clipPath id="clippath-4">
      <polygon points="924.77 20.73 915.65 44.09 906.49 20.73 900.59 20.73 913.22 51.34 917.91 51.34 930.54 20.73 924.77 20.73"/>
    </clipPath>
    <clipPath id="clippath-5">
      <path d="M962.05,51.77c-2.22,0-4.28-.41-6.16-1.22-1.88-.81-3.51-1.92-4.89-3.32-1.38-1.4-2.47-3.06-3.25-4.97s-1.18-3.95-1.18-6.12v-.09c0-2.17.39-4.2,1.16-6.1.77-1.9,1.86-3.56,3.25-4.99,1.39-1.43,3.05-2.56,4.96-3.38s4.02-1.24,6.33-1.24c1.39,0,2.65.12,3.79.35,1.14.23,2.19.56,3.15.97.96.42,1.83.92,2.64,1.5.81.58,1.58,1.21,2.3,1.91l-3.43,3.95c-1.22-1.13-2.5-2.04-3.86-2.73-1.36-.69-2.91-1.04-4.64-1.04-1.45,0-2.79.28-4.01.84-1.22.56-2.29,1.33-3.19,2.3s-1.59,2.1-2.08,3.4c-.49,1.3-.74,2.69-.74,4.17v.09c0,1.47.24,2.87.74,4.19.5,1.32,1.18,2.47,2.08,3.45s1.96,1.75,3.19,2.32c1.23.57,2.56.84,4.01.84,1.85,0,3.44-.35,4.77-1.06,1.33-.71,2.65-1.67,3.95-2.89l3.43,3.47c-.78.84-1.6,1.58-2.45,2.23-.85.65-1.77,1.22-2.75,1.69s-2.06.84-3.23,1.09c-1.17.25-2.47.37-3.88.37"/>
    </clipPath>
    <clipPath id="clippath-6">
      <polygon points="811.76 20.67 799.14 51.25 804.91 51.25 814.02 27.91 823.17 51.25 829.07 51.25 816.44 20.67 811.76 20.67"/>
    </clipPath>
    <clipPath id="clippath-7">
      <polygon points="950.15 51.25 944.24 51.25 935.1 27.91 925.98 51.25 920.21 51.25 932.84 20.67 937.52 20.67 950.15 51.25"/>
    </clipPath>
    <clipPath id="clippath-8">
      <path d="M888.44,51.23c-2.28,0-4.36-.4-6.25-1.2-1.88-.8-3.5-1.89-4.85-3.27-1.35-1.38-2.41-2.99-3.17-4.84-.76-1.85-1.14-3.81-1.14-5.89v-.09c0-2.08.38-4.04,1.14-5.89.76-1.85,1.83-3.46,3.21-4.85,1.38-1.39,3.01-2.5,4.89-3.32s3.97-1.22,6.25-1.22,4.36.4,6.25,1.2c1.88.8,3.51,1.89,4.85,3.27,1.35,1.38,2.41,2.99,3.17,4.84.76,1.85,1.15,3.81,1.15,5.89v.09c0,2.08-.38,4.04-1.15,5.89-.77,1.85-1.83,3.46-3.21,4.85s-3.01,2.5-4.9,3.32c-1.89.82-3.97,1.22-6.25,1.22M888.53,46.46c1.46,0,2.79-.27,4.02-.82,1.22-.55,2.26-1.3,3.13-2.24s1.55-2.05,2.03-3.32c.48-1.27.74-2.62.74-4.05v-.09c0-1.44-.24-2.79-.74-4.08-.5-1.28-1.18-2.39-2.06-3.34-.88-.94-1.94-1.69-3.17-2.26-1.23-.56-2.58-.84-4.04-.84s-2.79.27-4.01.82c-1.22.55-2.26,1.3-3.13,2.24-.87.94-1.55,2.05-2.04,3.32-.49,1.27-.73,2.62-.73,4.05v.09c0,1.43.25,2.79.73,4.08.48,1.28,1.18,2.39,2.06,3.34s1.94,1.69,3.17,2.26c1.23.56,2.58.84,4.04.84"/>
    </clipPath>
    <clipPath id="clippath-9">
      <rect x="870.67" y="34.63" width="35.61" height="2.64" transform="translate(345.64 740.23) rotate(-54.69)"/>
    </clipPath>
  </defs>
  <g>
    <path d="M637.28,21.66c-.75-3.87.57-8.21,2.99-11.27-.18.47-.4.91-.59,1.36-1.35,3.15-2.22,6.48-2.41,9.9h0Z"/>
    <path d="M630.66,20.79c-.72-2.48-.14-5.4,1.28-7.53.21-.31.45-.6.69-.88-.07.17-.15.34-.23.51-1.19,2.46-1.9,5.16-1.74,7.91h0Z"/>
    <path d="M625.53,13.22c-1.11,2.52-1.98,5.29-1.28,8.04-1.44-2.51-.34-5.87,1.28-8.04h0Z"/>
    <path d="M633.97,3.52c4.64-1.54,9.42-2.69,14.28-3.31,3.09-.41,6.44-.38,9.07,1.61,2.25,1.65,3.79,4.6,3.39,7.46-.62,4.14-4.42,6.82-8.48,6.51-2.07-.04-4.04-1.23-5.27-2.83,1.58,1.15,3.47,1.82,5.21,1.48,1.73-.25,3.35-1.01,4.42-2.36.83-1.06,1.46-2.39,1.52-3.74-.01-1.8-.69-3.66-2.1-4.91-2.86-2.47-7-1.85-10.52-1.6-3.86.37-7.69,1.03-11.52,1.67h0Z"/>
    <path d="M628.52,3.63c-1.38-.28-2.77-.41-4.17-.48-2-.16-4.17.17-5.76,1.44-.76.63-1.43,1.38-1.52,2.33.04.56.08,1.15.38,1.68.58.98,1.65,1.86,2.87,2.35,1.27.51,2.68.47,4.04.46,1.4-.03,2.8-.14,4.2-.27,1.4-.14,2.79-.29,4.18-.51-2.76.56-5.54,1-8.35,1.27-1.07.1-2.14.2-3.22.14-1.94-.14-3.84-.82-5.23-2.28-.7-.74-1.31-1.76-1.15-2.85.33-2.55,2.99-3.93,5.27-4.2.74-.1,1.48-.12,2.19-.08,2.13.03,4.26.29,6.27,1h0Z"/>
    <path d="M641.48,24.33c-2.16-.63-4.53-1.21-7.52-1.68-2.85-.45-5.63-.78-8.55-.54-1.43.13-3.66.19-3.46,2.09.32,1.63,2.33,1.2,3.48,1.08-.68-.08-1.79-.4-1.82-.84-.02-.27.17-.4.21-.43.6-.46,1.52-.71,2.26-.83,3.68-.59,10,.4,15.32,1.56l.09-.4Z"/>
    <path d="M646.5,8.48c-.02.06-2.36,6-4.08,16.49.78.18,1.52.36,2.19.53-.23-.77-.63-2.65-.46-6.04.13-2.49,2.35-10.98,2.35-10.98Z"/>
    <g>
      <path d="M552.95,41.02c1.09,4.19,4.42,6.88,8.29,6.88,2.96,0,5.74-1.55,7.2-4.24h4.74c-1.96,5.2-6.7,8.57-12.12,8.57-7.11,0-12.85-6.29-12.85-13.03,0-7.98,6.02-13.54,12.72-13.54,7.43,0,13.08,5.74,13.08,12.99,0,.77,0,1.5-.14,2.37h-20.92ZM569.27,37.37c-.36-4.28-4.15-7.38-8.2-7.38s-7.75,3.05-8.11,7.38h16.32Z"/>
      <path d="M596.52,51.59v-2.73h-.09c-1.23,2.14-4.1,3.37-7.43,3.37-5.42,0-10.53-2.92-10.53-11.8v-14.08h4.74v13.72c0,5.29,1.96,7.84,6.29,7.84s6.61-3.05,6.61-7.93v-13.63h4.74v25.25h-4.33Z"/>
      <path d="M606.73,51.59v-25.25h4.42v2.28h.09c1.14-1.69,3.1-2.78,6.43-2.96v4.88c-4.1.14-6.2,2.64-6.2,6.88v14.17h-4.74Z"/>
      <path d="M632.84,52.23c-7.11,0-13.44-6.06-13.44-13.17,0-7.7,6.06-13.4,13.81-13.4,6.97,0,13.54,5.47,13.44,13.49-.09,6.75-5.74,13.08-13.81,13.08ZM632.98,29.99c-4.74,0-8.84,4.01-8.84,8.93s3.96,8.98,8.75,8.98,9.02-3.92,9.02-9.02-3.96-8.89-8.93-8.89Z"/>
      <path d="M672.08,51.59v-3.6h-.09c-1.96,2.73-5.24,4.24-8.93,4.24-7.34,0-13.13-5.56-13.13-12.99s5.47-13.58,12.99-13.58c3.42,0,6.65,1.23,8.7,3.78h.09v-11.58h4.74v33.73h-4.38ZM663.28,29.99c-4.83,0-8.61,4.06-8.61,9.02s3.87,8.89,8.61,8.89,8.8-3.92,8.8-8.7c0-5.15-3.46-9.21-8.8-9.21Z"/>
      <path d="M682.33,23.43v-5.56h4.74v5.56h-4.74ZM682.33,51.59v-25.25h4.74v25.25h-4.74Z"/>
      <path d="M693.18,51.59V17.87h4.74v11.99h.09c2.05-2.78,5.24-4.19,8.66-4.19,7.16,0,13.08,6.02,13.08,13.31s-5.56,13.26-12.67,13.26c-3.65,0-7.02-1.46-9.11-4.28h-.09v3.65h-4.69ZM715.01,38.97c0-4.79-3.78-8.98-8.66-8.98s-8.57,4.1-8.57,8.89,3.78,9.02,8.61,9.02,8.61-4.01,8.61-8.93Z"/>
    </g>
  </g>
  <g>
    <path class="st0" d="M224.82,146.72c.31-1.34.55-2.71.69-4.09-1.23-.27-2.45-.52-3.69-.76.07-.79.11-1.59.11-2.4,0-.02,0-.05,0-.08h-4.78s0,.05,0,.08c0,12.46-10.1,22.56-22.56,22.56s-22.56-10.1-22.56-22.56c0-9.02,5.3-16.8,12.94-20.41l-2.02-4.33c-.8.37-1.57.79-2.33,1.24-.75-1.01-1.51-2-2.29-2.99-1.17.74-2.32,1.52-3.38,2.41.68,1.06,1.37,2.11,2.07,3.14-.7.59-1.37,1.21-2,1.86-.98-.78-1.98-1.54-2.98-2.3-.97.99-1.82,2.08-2.65,3.19.93.85,1.87,1.69,2.81,2.51-.52.75-1.01,1.52-1.46,2.32-1.15-.5-2.31-.98-3.48-1.45-.66,1.22-1.25,2.47-1.73,3.77,1.11.58,2.23,1.15,3.36,1.69-.31.85-.58,1.73-.81,2.61-1.24-.18-2.49-.35-3.73-.49-.31,1.35-.55,2.71-.69,4.09,1.23.27,2.45.52,3.69.76-.07.79-.11,1.58-.11,2.39,0,.12,0,.23,0,.34-1.25.15-2.49.31-3.73.49.02,1.38.18,2.76.38,4.13,1.25-.05,2.51-.12,3.76-.21.16.91.36,1.8.61,2.67-1.16.46-2.33.94-3.48,1.43.38,1.33.88,2.63,1.44,3.89,1.2-.38,2.39-.77,3.58-1.18.39.83.81,1.64,1.28,2.42-1.01.75-2.01,1.51-2.99,2.29.74,1.17,1.52,2.31,2.4,3.38,1.06-.68,2.11-1.37,3.15-2.07.59.7,1.21,1.37,1.86,2-.78.98-1.54,1.98-2.29,2.99.99.96,2.08,1.82,3.18,2.65.85-.93,1.69-1.87,2.51-2.81.74.52,1.52,1.01,2.32,1.46-.5,1.15-.98,2.31-1.45,3.48,1.22.66,2.47,1.25,3.77,1.73.58-1.12,1.15-2.23,1.69-3.36.85.31,1.72.58,2.61.8-.18,1.25-.35,2.49-.49,3.73,1.35.31,2.71.56,4.09.69.27-1.23.52-2.45.76-3.69.79.07,1.59.11,2.39.11.11,0,.23,0,.34,0,.15,1.24.31,2.49.49,3.73,1.38-.02,2.76-.18,4.13-.38-.05-1.25-.12-2.51-.21-3.76.91-.16,1.8-.36,2.67-.61.46,1.17.94,2.33,1.43,3.48,1.33-.38,2.63-.88,3.89-1.44-.38-1.2-.77-2.39-1.18-3.58.83-.39,1.64-.81,2.42-1.28.75,1.01,1.51,2,2.29,2.99,1.17-.73,2.32-1.52,3.38-2.4-.67-1.06-1.36-2.11-2.07-3.15.7-.59,1.37-1.21,2.01-1.86.98.78,1.98,1.54,2.98,2.29.97-.99,1.83-2.08,2.65-3.18-.93-.85-1.86-1.69-2.81-2.51.53-.75,1.01-1.52,1.46-2.32,1.15.5,2.31.98,3.48,1.45.65-1.22,1.25-2.47,1.73-3.77-1.12-.58-2.23-1.14-3.36-1.7.31-.85.58-1.72.8-2.61,1.25.18,2.49.35,3.74.49Z"/>
    <g>
      <g>
        <g>
          <path class="st24" d="M199.73,122.65h-1.43c-2.03,0-3.44,1.5-3.44,3.6s1.26,3.59,3.44,3.59h1.43v2.37h-1.98c-3.2,0-5.52-2.69-5.52-5.96s2.32-5.96,5.52-5.96h1.98v2.37Z"/>
          <path class="st24" d="M206.81,120.08c-3.39,0-6.07,2.83-6.07,6.17s2.68,6.17,6.07,6.17,6.06-2.83,6.06-6.17-2.67-6.17-6.06-6.17ZM206.81,129.96c-2.06,0-3.63-1.69-3.63-3.71s1.57-3.71,3.63-3.71,3.63,1.69,3.63,3.71-1.57,3.71-3.63,3.71Z"/>
          <path class="st24" d="M216.82,132.21h-2.55v-8.28c0-2.08,1.36-3.65,3.53-3.65h2.64v2.35h-2.16c-.78,0-1.52.43-1.52,1.43v1.31h3.66v2.41h-3.61v4.43Z"/>
          <path class="st24" d="M221.96,132.21v-7.72c0-2.83,1.36-4.41,3.92-4.41,2.35,0,3.99,1.3,3.99,3.54,0,1.48-.68,2.32-2.03,2.45v.04c1.07.24,2.21.52,2.21,2.29v3.81h-2.55v-3.61c0-.82-.39-1.16-2.23-1.16v-2.16c1.89,0,2.16-.84,1.98-1.86-.11-.66-.95-.97-1.44-.94-.74.06-1.34.44-1.34,1.63v8.1h-2.51Z"/>
          <path class="st24" d="M234.26,132.21h-2.54v-11.93h2.54v11.93Z"/>
          <path class="st24" d="M264.94,132.21h-2.12c-3,0-3.63-1.09-3.63-3.85v-8.07h2.49v7.8c0,.97.19,1.68,1.38,1.68h1.89v2.44Z"/>
          <path class="st24" d="M271.6,132.21h-2.12c-3.01,0-3.64-1.09-3.64-3.85v-8.07h2.49v7.8c0,.97.19,1.68,1.39,1.68h1.89v2.44Z"/>
          <path class="st24" d="M248.15,122.67c-.18-1.74-.97-2.59-2.28-2.59-1.23,0-1.86.68-2.09,2.18l-1.21,5.74h-.09l-1.21-5.74c-.23-1.5-.86-2.18-2.09-2.18-1.31,0-2.09.85-2.27,2.59l-1,9.54h2.5l.89-9.44h.14l1.66,8.09c.18.92.5,1.57,1.43,1.56,0,0,0,0,0,0,0,0,0,0,0,0,.93.01,1.25-.64,1.43-1.56l1.66-8.09h.14l.89,9.44h2.5l-1-9.54Z"/>
          <path class="st24" d="M257.31,122.51v-2.24h-1.69c-3.2,0-5.45,2.66-5.45,5.97h0c0,3.31,2.25,5.96,5.45,5.96h1.69v-2.24c-3.97.22-4.44-1.46-4.55-2.65h4.55v-2.16h-4.55c.11-1.19.58-2.87,4.55-2.65Z"/>
        </g>
        <path class="st24" d="M276.99,126.25h-.47c0,2.4-.97,4.57-2.54,6.14-1.57,1.57-3.74,2.54-6.14,2.54h-71.85c-2.4,0-4.57-.97-6.14-2.54-1.57-1.57-2.54-3.74-2.54-6.14s.97-4.57,2.54-6.14c1.57-1.57,3.74-2.55,6.14-2.55h71.85c2.4,0,4.57.97,6.14,2.55,1.57,1.57,2.54,3.74,2.54,6.14h.94c0-5.32-4.31-9.62-9.62-9.62h-71.85c-5.32,0-9.63,4.31-9.63,9.62s4.31,9.62,9.63,9.62h71.85c5.32,0,9.62-4.31,9.62-9.62h-.47Z"/>
      </g>
      <polygon class="st24" points="189.58 141.6 186.05 139.58 189.64 137.48 193.18 139.58 189.58 141.6"/>
      <g>
        <polygon class="st24" points="193.93 145.01 190.41 147.04 190.41 142.88 193.93 140.84 193.93 145.01"/>
        <polygon class="st24" points="195.55 145.01 199.07 147.04 199.07 142.88 195.55 140.84 195.55 145.01"/>
      </g>
      <polygon class="st24" points="212.08 147.47 208.53 145.21 210.84 143.34 211.76 142.6 210.74 142 208.7 140.81 208.3 140.57 207.89 140.8 204.44 142.72 202.84 141.79 205.47 140.32 206.69 139.59 205.05 139.59 201.19 141.77 204.43 143.66 208.29 141.51 210.33 142.71 207.13 145.29 211.65 148.16 210.56 150.03 205.84 147.49 205.15 151.55 203.11 150.35 203.1 145.94 199.87 144.04 199.87 144.57 199.88 148.46 196.05 146.22 196.05 149.96 199.86 152.2 199.86 154.56 196.01 153.1 195.81 158.46 193.66 158.46 193.46 153.1 189.61 154.56 189.61 152.2 193.42 149.96 193.42 146.23 189.61 148.46 189.61 148.27 189.61 144.05 186.39 145.94 186.38 150.35 184.34 151.55 183.65 147.49 178.94 150.03 177.84 148.16 182.36 145.29 179.16 142.71 181.2 141.51 185.06 143.66 188.29 141.77 186.15 140.57 184.42 139.59 184.44 139.59 184.42 139.58 186.13 138.61 188.24 137.36 184.95 135.55 181.15 137.8 179.08 136.67 182.21 134 177.62 131.25 178.66 129.35 183.44 131.76 183.44 131.75 182.79 130.52 179.02 128.62 178.32 128.27 177.94 128.96 176.9 130.85 176.52 131.54 177.19 131.95 180.82 134.11 178.55 136.05 177.65 136.81 178.69 137.38 180.75 138.52 181.16 138.74 181.57 138.51 184.96 136.49 186.59 137.38 185.71 137.91 184.01 138.9 182.79 139.58 184.05 140.32 185.75 141.29 186.65 141.79 185.05 142.72 181.6 140.8 181.19 140.57 180.79 140.81 178.75 142 177.73 142.6 178.65 143.34 180.96 145.21 177.41 147.47 176.74 147.9 177.14 148.58 178.23 150.44 178.63 151.12 179.32 150.75 183.04 148.75 183.53 151.68 183.73 152.85 184.75 152.25 186.79 151.06 187.19 150.82 187.2 150.36 187.2 146.4 188.79 145.47 188.79 148.27 188.79 148.46 188.79 149.89 190.02 149.17 192.6 147.66 192.6 149.49 189.19 151.5 188.79 151.73 188.79 155.74 189.9 155.32 192.68 154.27 192.84 158.49 192.87 159.27 196.6 159.27 196.63 158.49 196.78 154.27 199.57 155.32 200.68 155.74 200.68 151.73 200.27 151.5 196.87 149.49 196.87 147.65 199.47 149.17 200.7 149.89 200.7 148.46 200.69 145.47 202.28 146.4 202.29 150.36 202.3 150.82 202.7 151.06 204.74 152.25 205.76 152.85 205.95 151.68 206.45 148.75 210.17 150.75 210.86 151.12 211.26 150.44 212.35 148.58 212.75 147.9 212.08 147.47"/>
      <polygon class="st24" points="199.91 141.6 203.42 139.59 196.34 139.59 199.91 141.6"/>
    </g>
  </g>
  <g>
    <path class="st18" d="M495.75,123.92c-.45-.56-1.12-.88-1.85-.88-.03,0-3.17.08-7.32.16.6-.29,1.6-.93,1.8-1.74.08-.34.33-1.36-1.28-2.38-.48-.3-1.29-.5-1.56-.55l-.45-.08-.03-.31c0-.07-.02-.13-.05-.19-.09-.23-.36-.69-1.07-1.18-1.22-.84-2.61-1.4-5.41-1.4-3.22,0-4.68.62-5.68,1.23-1.09.66-2.22,1.91-2.23,1.92l-.2.22-.3-.02c-.06,0-1.49-.07-3.04,1.05-1.62,1.16-1.18,2.55-1.16,2.61.11.32.44.65.81.94-14.76-.06-129.22-.29-130.44-.29-1.92,0-3.62,1.36-4.03,3.24l-6.94,31.66c-.15.7.02,1.42.47,1.98s1.12.88,1.84.88h157.62c1.92,0,3.62-1.36,4.03-3.24l6.94-31.66c.15-.7-.02-1.42-.47-1.98Z"/>
    <g>
      <path class="st21" d="M453.57,155.72s-.08-.04-.18-.04h-122.86c-.19,0-.27.07-.32.27l-.4,1.92c-.02.11,0,.17,0,.18.02.02.08.04.18.04h122.86c.18,0,.27-.07.32-.27l.4-1.92c.02-.11,0-.17,0-.18,0,0,0,0,0,0Z"/>
      <path class="st21" d="M459.62,128.14l.4-1.93c.02-.11,0-.16,0-.18,0,0,0,0,0,0-.02-.02-.08-.04-.18-.04h-122.76c-.19,0-.27.07-.32.27l-.4,1.93c-.02.11,0,.17,0,.18.02.02.08.04.18.04h122.76c.18,0,.27-.07.32-.27Z"/>
      <g>
        <path class="st25" d="M441.12,135.21s-.08-.04-.18-.04h-3.88c-.21,0-.35.07-.47.23l-6.4,10.12s-.08.06-.13.05c-.05,0-.09-.04-.11-.08l-2.08-10.05c-.07-.21-.14-.26-.35-.26h-3.41c-.18,0-.27.07-.32.27l-2.96,13.97c-.02.11,0,.16,0,.18.02.02.08.04.18.04h2.51c.18,0,.27-.07.32-.27l1.98-9.38c.01-.06.06-.1.12-.11.06,0,.12.03.14.09l2.12,9.42c.07.21.14.26.35.26h1.51c.22,0,.35-.06.48-.23l6.4-9.65s.07-.05.11-.05c.02,0,.04,0,.06.01.06.03.09.09.07.15l-2.03,9.54c-.02.1,0,.16,0,.18.02.02.08.04.18.04h2.51c.18,0,.27-.07.32-.27l2.96-13.97c.02-.1,0-.16,0-.18Z"/>
        <path class="st25" d="M344.66,135.17h-8.87c-.19,0-.27.07-.32.27l-2.96,13.97c-.02.11,0,.17,0,.18.02.02.08.04.18.04h9.58c3.05,0,4.69-1.59,5.49-5.32l.82-3.89c.36-1.71.17-3.09-.55-3.97-.68-.84-1.82-1.27-3.38-1.27ZM345.58,140.6l-.82,3.83c-.44,2.09-1.51,2.38-2.61,2.38h-5.9s-.08-.02-.11-.05c-.03-.03-.03-.07-.03-.11l1.8-8.51c.01-.06.07-.11.13-.11h5.78c.58,0,1.17.06,1.54.52.34.42.4,1.07.2,2.05Z"/>
        <path class="st25" d="M354.83,135.21s-.08-.04-.18-.04h-2.51c-.18,0-.27.07-.32.27l-2.96,13.97c-.02.1,0,.16,0,.18.02.02.08.04.18.04h2.51c.19,0,.27-.07.32-.27l2.96-13.97c.02-.1,0-.16,0-.18,0,0,0,0,0,0Z"/>
        <path class="st25" d="M368.43,137.78l.5-2.39c.02-.11,0-.16,0-.18,0,0,0,0,0,0-.02-.02-.08-.04-.18-.04h-12.12c-.19,0-.27.07-.32.27l-.49,2.39c-.02.11,0,.17,0,.18.02.02.08.04.18.04h4.38s.08.02.11.05c.03.03.04.07.03.11l-2.38,11.19c-.02.1,0,.16,0,.18.02.02.08.04.18.04h2.55c.19,0,.27-.07.32-.27l2.38-11.2c.01-.06.07-.11.13-.11h4.42c.18,0,.27-.07.32-.27Z"/>
        <path class="st25" d="M380.23,135.17h-5.69c-2.93,0-4.7,1.62-5.42,4.96l-1,4.74c-.3,1.41-.09,2.6.59,3.44.7.87,1.9,1.32,3.45,1.32h5.69c2.91,0,4.73-1.66,5.42-4.93l1-4.74s0,0,0,0c.31-1.41.11-2.61-.57-3.45-.71-.87-1.9-1.33-3.46-1.33ZM381.26,140l-1.06,5c-.28,1.26-.86,1.77-2,1.77h-5.69c-.4,0-.9-.05-1.21-.43-.26-.33-.3-.78-.14-1.52l1.06-5c.28-1.31.81-1.8,1.98-1.8h5.69c.42,0,.93.05,1.24.42.26.32.3.77.14,1.54Z"/>
        <path class="st25" d="M400.24,141.29l-4.39-.3c-.45-.03-.95-.12-1.23-.5-.26-.36-.21-.8-.14-1.1.27-1.2,1.15-1.36,1.98-1.36h4.02c1.22,0,1.42.82,1.45,1.18.02.29.07.29.2.29h2.57c.2,0,.28-.06.31-.26.15-1.22-.07-2.18-.68-2.87-.69-.78-1.9-1.2-3.5-1.2h-4.07c-3.66,0-4.76,1.66-5.29,4.16-.25,1.17-.12,2.09.36,2.75.58.78,1.72,1.24,3.38,1.37l4.39.35c.44.03.92.11,1.2.48.27.35.22.81.16,1.13-.27,1.22-1.21,1.37-2,1.37h-4.35c-1.16,0-1.39-.74-1.42-1.18-.02-.29-.07-.29-.2-.29h-2.57c-.2,0-.28.06-.31.26-.15,1.23.07,2.2.68,2.88.69.78,1.89,1.19,3.48,1.19h4.39c3.64,0,4.75-1.7,5.29-4.24.25-1.17.12-2.1-.38-2.76-.59-.78-1.71-1.22-3.34-1.33Z"/>
        <path class="st25" d="M416.65,135.17h-4.59c-2.93,0-4.7,1.62-5.42,4.96l-2,9.33s0,.08.03.12c.03.03.06.05.11.05h2.5c.19,0,.35-.13.39-.32l.95-4.36c.01-.06.07-.11.13-.11h7.71s.08.02.1.05c.03.03.04.07.03.11l-.97,4.45s0,.08.03.12c.03.03.06.05.11.05h2.54c.19,0,.35-.13.39-.32l2-9.35c.31-1.41.11-2.61-.57-3.45-.7-.87-1.9-1.33-3.46-1.33ZM417.68,140l-.6,2.73c-.01.06-.07.11-.13.11h-7.71s-.08-.02-.1-.05c-.03-.03-.04-.07-.03-.11l.62-2.84c.28-1.31.81-1.79,1.98-1.79h4.6c.42,0,.93.05,1.24.42.26.32.3.77.14,1.54Z"/>
        <path class="st25" d="M455.98,136.5c-.7-.87-1.9-1.33-3.46-1.33h-4.59c-2.93,0-4.7,1.62-5.42,4.96l-2,9.33s0,.08.03.12c.03.03.07.05.11.05h2.5c.19,0,.35-.13.39-.32l.95-4.36c.01-.06.07-.11.13-.11h7.71s.08.02.11.05c.03.03.04.07.03.11l-.97,4.45s0,.08.03.12c.03.03.06.05.11.05h2.54c.19,0,.35-.13.39-.32l2-9.35c.31-1.42.11-2.61-.57-3.45ZM453.55,140h0s-.6,2.73-.6,2.73c-.01.06-.07.11-.13.11h-7.71s-.08-.02-.11-.05-.04-.07-.03-.11l.62-2.84c.28-1.31.81-1.79,1.98-1.79h4.59c.42,0,.93.05,1.24.42.26.32.3.77.14,1.54Z"/>
      </g>
      <g>
        <path class="st25" d="M480.01,137.22c-.13-.01-.25,0-.38.05l.36-1.58c.03-.14-.08-.28-.22-.28h-1.66c-.11,0-.2.07-.22.18l-1.51,6.7c-.02.1-.12.18-.22.18h-1.63c-.13,0-.23.1-.23.23v1.63c0,.13.1.23.23.23h1.6c1.1,0,2.06-.77,2.3-1.84l.63-2.81c.17.21.4.35.66.38.64.06,1.23-.57,1.31-1.41s-.37-1.58-1.01-1.64Z"/>
        <path class="st25" d="M465.15,134.94h-.01c-.79-.58-2.54-.27-3.57.76-.94.94-1.37,2.68-.37,4.17.31.46,1,1.19,1.52,1.73.05.05.07.12.05.19l-.32,1.41c-.03.12-.14.2-.26.18l-.89-.16c-.12-.02-.24.05-.26.17l-1.37,5.96c-.03.14.08.28.22.28h1.68c.11,0,.2-.07.22-.18l.84-3.65c.03-.12.14-.2.26-.17l.81.15c.12.02.23-.05.26-.16l.86-4.67c.01-.07,0-.14-.06-.2-.33-.35-1.61-1.7-1.84-2.04-.56-.84.11-1.52.12-1.53.42-.47,1.01-.43,1.29-.31.25.1.56.36.79.56.13.12.34.04.38-.13l.18-1c.1-.52-.12-1.04-.54-1.35Z"/>
        <path class="st25" d="M477.09,145.27h-4.69c-.13,0-.23.1-.23.23h0c0,.64.52,1.16,1.16,1.16h2.82c.64,0,1.16-.52,1.16-1.16h0c0-.13-.1-.23-.23-.23Z"/>
        <path class="st25" d="M473.03,140.41c.7.07,1.34-.62,1.43-1.54.05-.55-.1-1.05-.38-1.39h.97c.13,0,.23-.1.23-.23v-1.62c0-.13-.1-.23-.23-.23h-2.35c-1.02,0-1.85.83-1.85,1.85,0,.13.1.23.23.23h1.32c-.26.28-.44.68-.48,1.13-.09.92.4,1.72,1.1,1.79Z"/>
        <path class="st25" d="M475.67,147.37h-2.68c-.16,0-.28.17-.21.32.14.29.51.69,1.51.69.64,0,1.18-.32,1.53-.6.17-.13.07-.41-.15-.41Z"/>
        <path class="st25" d="M463.23,156.76c-.82,0-1.48.66-1.48,1.48s.66,1.48,1.48,1.48,1.48-.66,1.48-1.48-.66-1.48-1.48-1.48Z"/>
        <path class="st25" d="M497.93,122.26c-.98-1.22-2.45-1.92-4.02-1.92h-3.95c-.01-.08-.02-.16-.04-.24-.22-1.01-.94-1.66-1.95-2.3-.47-.3-1.05-.5-1.48-.62-.06-.02-.1-.05-.13-.1-.25-.44-.69-1-1.48-1.54-1.28-.88-2.93-1.69-6.34-1.69-2.89,0-4.84.44-6.54,1.46-.88.53-1.75,1.35-2.23,1.84-.04.04-.08.06-.14.06-.76.07-2.12.33-3.52,1.34-.51.37-1.2.96-1.66,1.81h-128.17c-3.23,0-6.07,2.29-6.77,5.44l-6.94,31.66c-.34,1.53.04,3.11,1.02,4.34s2.45,1.92,4.02,1.92h157.62c3.23,0,6.07-2.29,6.77-5.44l6.94-31.66c.34-1.53-.04-3.11-1.02-4.34ZM467.34,120.23c1.42-1.02,2.72-.97,2.76-.96l.51.04.34-.38s1.11-1.22,2.13-1.84c.95-.57,2.34-1.16,5.45-1.16,2.69,0,4,.53,5.16,1.32.64.44.85.84.91.98,0,.02.01.04.01.06l.04.47c0,.1.09.19.19.2l.61.11c.23.04.98.22,1.4.48,1.35.85,1.16,1.62,1.09,1.9-.17.7-1.28,1.35-1.79,1.54l-.43.17c-.08.03-.13.1-.14.17l-1.84,7.44c-.02.13-.14.18-.27.19-1.59.02-14.9.03-16.43.02-.15,0-.27-.11-.25-.26l1.44-6.07.08-.61c.01-.1-.04-.2-.13-.24l-.56-.25c-.27-.12-1.09-.61-1.29-1.23-.02-.05-.36-1.14,1-2.11ZM495.78,125.9l-6.94,31.66c-.37,1.68-1.88,2.9-3.6,2.9h-.25c.17-2.61-.77-3.67-3.2-5.46-.86-.63-1.98-1.44-2.41-1.75-.1-.07-.24-.05-.31.05l-.95,1.33c-.07.1-.05.24.05.32.43.31,1.54,1.11,2.4,1.74,1.88,1.38,2.52,1.86,2.36,3.77h-23.65l1.09-4.8c.02-.1.12-.18.22-.18h9.89c.11,0,.2-.07.22-.18l.66-2.72c.1,0,.2.02.3.02.34.02.68.03,1,.03,1.99,0,3.59-.41,4.98-1.27,1.73-1.07,3.56-3.25,4.65-5.55,1.1-2.31,2.41-8.91,2.46-9.19l.19-.96c.03-.14-.08-.27-.22-.27h-1.31c-1.07,0-1.99.75-2.21,1.8-.03.14.08.27.22.27h.74c.15,0,.26.13.22.27-.5,2.31-1.34,5.81-1.98,7.17-1.06,2.23-2.7,3.95-3.86,4.67-1.23.76-2.74,1.05-4.75.93-1.61-.1-2.6-.65-2.96-.9-.1-.06-.22-.05-.3.04l-1.08,1.23c-.09.1-.07.26.04.34.3.22.92.62,1.86.93l-.23,1.05c-.02.1-.12.18-.22.18h-9.96c-.11,0-.2.07-.22.18l-1.58,6.89h-129.5c-.58,0-1.13-.26-1.49-.72s-.5-1.04-.38-1.61l6.94-31.66c.37-1.68,1.88-2.9,3.6-2.9h128.25c.48.75,1.16,1.25,1.41,1.42.07.05.11.13.1.22l-1.7,7.9c-.02.15.11.28.25.26l20.53.15c.13.04.26-.05.29-.18l2.02-8.54c.01-.07.05-.13.11-.16.42-.23.98-.58,1.46-1.07h4.89c.58,0,1.13.26,1.49.72s.5,1.04.38,1.61Z"/>
      </g>
    </g>
  </g>
  <g>
    <path class="st1" d="M557.13,126.69c-7.19,0-13.06,5.86-13.06,13.05s5.86,13.05,13.06,13.05,13.06-5.86,13.06-13.05-5.86-13.05-13.06-13.05M561.64,128.36c3.12,1.24,5.62,3.74,6.87,6.86h-6.87v-6.86ZM557.13,127.5c1.44,0,2.82.25,4.1.71l-4.1,4.1-4.1-4.1c1.28-.46,2.66-.71,4.1-.71M552.62,128.36v6.86h-6.87c1.25-3.12,3.75-5.62,6.87-6.86M544.88,139.77s0-.02,0-.03c0-1.46.26-2.86.73-4.16l4.18,4.18h-4.91ZM550.86,139.77l-3.79-3.79h5.76l3.79,3.79h-5.76ZM553.38,135.45v-5.82l3.75,3.75,3.75-3.75v5.82l-3.75,3.75-3.75-3.75ZM557.63,139.77l3.79-3.79h5.76l-3.79,3.79h-5.76ZM564.46,139.77l4.18-4.18c.47,1.3.73,2.7.73,4.16,0,0,0,.02,0,.03h-4.91Z"/>
    <path class="st16" d="M675.6,130.26h-.5l-.53-.95v.95h-.43v-2.03h.62c.25,0,.43.05.56.14.12.1.19.24.19.43,0,.14-.04.26-.13.36-.08.1-.19.16-.32.17l.56.92ZM674.57,129.1c.24,0,.36-.02.41-.06.06-.04.08-.1.08-.2s-.03-.17-.09-.21c-.07-.04-.18-.06-.34-.06l-.07.53ZM674.74,127.74c.83,0,1.51.68,1.51,1.51s-.68,1.51-1.51,1.51-1.51-.68-1.51-1.51.68-1.51,1.51-1.51M674.74,127.49c.97,0,1.77.79,1.77,1.77s-.79,1.77-1.77,1.77-1.77-.8-1.77-1.77.8-1.77,1.77-1.77M585.56,137.6h12.63v2.1h-12.63v-2.1ZM573.1,140.95c-.04-.4-.06-.8-.06-1.21,0-6.94,5.66-12.59,12.6-12.59,3.95,0,7.49,1.84,9.8,4.7l-1.81,1.04c-1.93-2.25-4.8-3.68-7.99-3.68-5.8,0-10.53,4.73-10.53,10.53,0,.41.02.81.07,1.21.6,5.23,5.07,9.32,10.46,9.32,4.87,0,8.98-3.33,10.18-7.83h2.12c-1.24,5.65-6.29,9.9-12.3,9.9-6.53,0-11.93-5.01-12.54-11.39M643.76,127.48v20.47l15.09-20.71v17.81l12.82-17.57v24.13h-2.06v-17.68l-12.97,17.81v-17.81s-12.88,17.68-12.88,17.68h-2.06v-17.68l-12.97,17.81v-17.81l-12.88,17.68h-14.93v-23.7h14.95v2.1h-12.85v7.59h11.77v2.1h-11.77v9.81h11.69l16.23-22.28v17.81l12.83-17.57Z"/>
  </g>
  <g>
    <path d="M1073.3,129.46c-.72.72-1.58,1.08-2.6,1.08s-1.88-.36-2.59-1.08c-.71-.71-1.06-1.58-1.06-2.6s.36-1.87,1.07-2.59c.71-.71,1.57-1.07,2.58-1.07s1.88.35,2.6,1.07,1.07,1.57,1.07,2.59-.36,1.88-1.07,2.6ZM1068.48,124.63c-.61.62-.92,1.36-.92,2.23s.3,1.63.91,2.24c.61.62,1.36.93,2.23.93s1.62-.31,2.23-.93c.61-.62.92-1.37.92-2.24s-.31-1.61-.92-2.23c-.62-.62-1.36-.93-2.23-.93s-1.61.31-2.22.93ZM1070.64,124.84c.5,0,.86.05,1.1.15.41.17.62.51.62,1.02,0,.36-.13.63-.39.79-.14.09-.33.16-.58.2.31.05.54.18.69.39.15.21.22.42.22.62v.29c0,.09,0,.19,0,.3s.02.18.04.21l.02.05h-.66v-.04s-.02-.03-.02-.04l-.02-.13v-.32c0-.46-.13-.77-.38-.92-.15-.09-.41-.13-.79-.13h-.56v1.58h-.71v-4.02h1.41ZM1071.4,125.47c-.18-.1-.46-.15-.86-.15h-.61v1.46h.64c.3,0,.53-.03.68-.09.28-.11.42-.32.42-.63s-.09-.49-.27-.59Z"/>
    <g>
      <path class="st2" d="M941.81,137.5c.04-.28-.06-.41-.12-.55-.43-.95-1.03-1.79-1.76-2.53-2.44-2.47-5.5-3.79-8.82-4.58-.11-.03-.22,0-.31.07-.17.61-.15,7.02.03,7.59h10.98ZM928.98,139.01h-12.97c-.93,1.5-.99,3.1-.74,4.75.69.17,13.21.15,13.74,0,.15-.58.15-4.1-.02-4.74M942.06,149.61c1.5-1.17,1.85-3.8,1.14-5.17-.83-.17-13.08-.11-13.54.06-.14.86-.1,4.6.08,5.11h12.32ZM929.1,137.96c0-2.43,0-4.89,0-7.35,0-2.46,0-4.92,0-7.39.58-.14,1.07.01,1.54.08,3.21.48,6.3,1.37,9.19,2.91,3.2,1.7,5.82,4.02,7.72,7.12,1.3,2.11,2.09,4.41,2.51,6.84.34,1.93.5,3.87.39,5.82-.09,1.65-.24,3.3-.53,4.94-.02.14-.07.26-.21.4h-40.26c-.29-.65-.38-1.32-.5-1.97-.42-2.3-.56-4.63-.42-6.96.22-3.57,1.13-6.94,3.08-9.98,1.58-2.46,3.7-4.37,6.23-5.82,2.94-1.68,6.14-2.59,9.45-3.16.2-.03.4-.08.7.09,0,1.88,0,3.82,0,5.72-.25.22-.5.23-.73.3-3.17.87-6,2.35-8.32,4.72-.98,1-1.77,2.14-2.42,3.38-.05.1-.09.2-.04.32.51.16,11.91.18,12.63-.01"/>
      <path class="st2" d="M1010.02,151.35h-4.81c-.21-.26-.13-.54-.13-.8,0-3.95,0-7.9,0-11.85,0-.29.05-.58-.09-.86-.18-.23-.43-.33-.69-.4-.88-.24-1.57.27-1.57,1.18,0,3.95,0,7.9,0,11.85,0,.27.05.54-.06.79-.46.16-4.18.21-5.16.07-.22-.24-.13-.55-.13-.83,0-3.81,0-7.63,0-11.45,0-.2,0-.4,0-.61-.05-.71-.44-1.1-1.1-1.09-.71,0-1.15.4-1.2,1.09-.02.2,0,.4,0,.61,0,3.82,0,7.63,0,11.45,0,.26.04.54-.09.84h-5.8c-.19-.25-.12-.51-.12-.74,0-4.4-.03-8.8,0-13.2.02-2.52,1.59-4.67,4.28-5.24,2.18-.46,4.03.14,5.58,1.72.22.22.39.5.79.68.34-.37.68-.79,1.07-1.15,1.31-1.2,2.84-1.88,4.64-1.77,1.18.07,2.3.43,3.25,1.16,1,.77,1.51,1.79,1.5,3.08-.02,4.91,0,9.83,0,14.74,0,.22.04.45-.13.74"/>
      <path class="st2" d="M1021.09,145.76c2.17.06,4.15-1.7,4.17-4.04.02-2.22-1.67-4.2-4.11-4.17-2.47.04-4.07,1.78-4.1,4.11-.04,2.18,1.78,4.09,4.05,4.09M1011.5,125.05h5.61c.08,2.56-.02,5.11.05,7.61.28.16.44,0,.62-.07,3.89-1.27,7.37-.55,10.32,2.27,1.69,1.62,2.59,3.66,2.79,6.03.24,2.9-.61,5.41-2.55,7.52-1.43,1.56-3.23,2.57-5.33,2.93-3.56.61-6.63-.39-9.08-3.04-1.4-1.52-2.21-3.35-2.44-5.43-.08-.72-.09-1.43-.1-2.15,0-4.94,0-9.87,0-14.81,0-.27-.05-.54.09-.88"/>
      <path class="st2" d="M978.34,144.95c2.19.06,4.18-1.69,4.2-4.09.02-2.2-1.62-4.13-4.15-4.13-2.4,0-4.03,2-4.06,4.02-.03,2.28,1.79,4.17,4.01,4.19M988.26,151.32h-5.76c-.11-.83,0-1.66-.12-2.47-.41.66-.42,1.45-.74,2.14-.39.27-.83.33-1.27.37-2.24.18-4.39-.21-6.39-1.21-2.95-1.48-4.86-3.79-5.36-7.11-.4-2.67.09-5.18,1.61-7.44,1.11-1.64,2.68-2.7,4.55-3.29,2.26-.71,4.59-.88,6.89-.27,2.95.78,5.03,2.58,5.99,5.54.2.62.25,1.28.25,1.92-.01,2.35.12,4.7.21,7.05.06,1.56,0,3.13.15,4.76"/>
      <path class="st2" d="M1039,138.77c.59.19,5.49.17,6.01-.04-.06-.74-.54-1.14-1.17-1.38-1.06-.4-2.15-.37-3.23-.1-.42.1-.81.27-1.14.56-.28.25-.56.52-.47.96M1051.09,144.12h-12c-.08.49.21.72.5.91.94.6,1.97.84,3.08.67.82-.13,1.54-.47,2.19-1.03,1.7.66,3.38,1.31,5.07,1.97-1.86,3.47-7.07,5.88-11.95,3.83-5-2.11-7.32-7.8-5.24-12.77,2.11-5.02,7.67-7.37,12.89-5.21,4.82,2,6.81,7.33,5.45,11.63"/>
      <path class="st2" d="M1057.63,151.33h-5.28s-.05-.04-.06-.06-.04-.03-.04-.05c-.02-.13-.05-.26-.05-.4,0-5.97,0-11.93,0-17.9,0-.09.03-.17.07-.35,1.62-.05,3.24-.01,4.83-.02.29.31.07.67.27.99,2.96-2.1,6.11-2.2,9.32-.71,1.95.9,3.33,2.45,4.4,4.41-1.56,1.04-3.08,2.05-4.62,3.08-.4-.35-.61-.8-.92-1.18-.57-.71-1.25-1.3-2.07-1.69-1.57-.75-3.03-.5-4.34.7-.37.33-.66.73-.96,1.12-.17.23-.22.48-.22.76,0,.45,0,.9-.01,1.35-.01,1.93-.11,3.85-.18,5.78-.05,1.36-.02,2.73-.14,4.17"/>
      <path class="st2" d="M967.81,124.95v26.28c-.47.17-5.66.2-6.46.04v-26.32h6.46Z"/>
    </g>
  </g>
  <g>
    <path class="st22" d="M1245.9,143.56s-.04,0-.04-.02c-.02-.02-.02-.04,0-.06.14-.28.28-.58.36-.9,0-.02.04-.04.06-.04h6.41s.02,0,.04.02c.02,0,.02.02.02.04-.04.32-.08.62-.14.92,0,.02-.04.04-.06.04h-6.65Z"/>
    <path class="st22" d="M1242.24,145.67v-.06c1.3,0,2.46-.6,3.22-1.54,0-.02.02-.02.04-.02h6.91s.04,0,.06.02v.06c-1.18,4.55-5.31,7.92-10.23,7.92-5.83,0-10.57-4.73-10.57-10.59s4.75-10.57,10.57-10.57c5.03,0,9.23,3.51,10.31,8.2,0,.02,0,.04-.02.06-.02,0-.04.02-.06.02h-6.75s-.04-.02-.06-.04c-.74-1.08-2-1.8-3.42-1.8-1.14,0-2.16.46-2.92,1.2-.74.76-1.2,1.78-1.2,2.93s.46,2.19,1.2,2.93c.76.76,1.78,1.22,2.92,1.22v.06Z"/>
    <path class="st22" d="M1252.73,141.04s.06.02.08.06v.36c0,.18,0,.36-.02.54,0,.04-.02.06-.06.06h-6.33s-.04,0-.04-.02c-.02,0-.02-.02-.02-.04.02-.18.04-.36.04-.54,0-.12-.02-.24-.02-.36,0-.02,0-.04.02-.04,0-.02.02-.02.04-.02h6.31Z"/>
    <path class="st22" d="M1246.32,140.56s-.06-.02-.06-.04c-.06-.28-.16-.54-.26-.78-.02-.02-.02-.04,0-.06,0-.02.02-.04.06-.04h6.53s.06.02.06.06c.06.26.08.52.12.8,0,.02-.02.04-.02.04-.02.02-.04.02-.06.02h-6.37Z"/>
    <path class="st22" d="M1188.9,137.39h12.93c.06,0,.12-.04.12-.1v-6.04s-.02-.06-.04-.08c-.02-.02-.04-.02-.08-.02l-13.95.02c-.06,0-1.24,0-2.48.6-.74.36-1.34.84-1.78,1.46-.56.76-.9,1.7-.98,2.81v10.29s.04,1.2.68,2.47c.38.72.88,1.34,1.5,1.8.78.6,1.74.96,2.86,1.1l.56.02h13.59c.06,0,.1-.06.1-.12v-5.98c0-.06-.04-.1-.1-.1h-12.95s-.08-.06-.08-.12v-.76c0-.06.04-.1.1-.1h8.19c.06,0,.12-.04.12-.1v-5.98s-.06-.1-.12-.1h-8.19c-.06,0-.1-.04-.1-.1v-.76c0-.06.04-.12.1-.12"/>
    <path class="st22" d="M1201.83,155.7h-42.43c-.06,0-.12.04-.12.08v.4c0,.06.06.1.12.1h42.43c.06,0,.1-.04.1-.1v-.4s-.04-.08-.1-.08"/>
    <path class="st22" d="M1274.85,131.91h.46c.08,0,.14.02.2.06.04.04.08.1.08.18s-.04.14-.08.18c-.06.06-.12.08-.24.08h-.42v-.5ZM1275.31,131.57h-.8s-.06.02-.06.06v1.87s.04.06.06.06h.28s.06-.04.06-.06v-.74h.42l.34.76s.02.04.04.04h.32s.04-.02.04-.04c.02,0,.02-.04,0-.06l-.36-.78c.12-.04.2-.12.24-.2.08-.1.1-.2.1-.32,0-.14-.06-.28-.16-.4-.12-.12-.3-.18-.52-.18M1275.21,133.88c-.36,0-.68-.14-.92-.38-.26-.26-.4-.58-.4-.94s.14-.66.4-.92c.24-.26.56-.38.92-.38s.66.12.92.38c.26.26.4.56.4.92s-.14.68-.4.92c-.26.26-.56.4-.92.4M1275.21,130.89c-.46,0-.86.16-1.18.5-.32.32-.48.72-.48,1.16s.16.86.48,1.18c.32.32.72.48,1.18.48s.84-.16,1.16-.48c.34-.32.5-.72.5-1.18s-.16-.84-.5-1.16c-.32-.34-.7-.5-1.16-.5"/>
    <path class="st22" d="M1168.31,147.07c.68,2.77,3.18,4.97,6.15,4.97,3.5,0,6.35-2.85,6.35-6.36v-9.91c0-.06-.06-.1-.12-.1h-6.03c-.06,0-.12.04-.12.1v9.47c0,.08-.06.2-.18.2,0,0-.1.02-.18-.08,0,0,0-.02-.02-.04,0,0-2.38-9.83-2.4-9.79,0,0-.32-1.18-1.24-2.33-.52-.66-1.16-1.2-1.86-1.58-.86-.48-1.86-.72-2.94-.72-1.22,0-2.28.2-3.2.62-.78.36-1.42.86-1.96,1.5-.9,1.12-1.22,2.49-1.22,3.31v15.26c0,.06.04.12.1.12h6.03c.06,0,.12-.06.12-.12v-14c0-.06-.02-.28.2-.28.16,0,.18.14.24.3l2.3,9.45Z"/>
    <path class="st22" d="M1268.3,137.87h.04c.08-.04.16-.08.26-.12.04-.02.08-.04.14-.06.06-.02.14-.06.22-.08.02-.02.06-.02.08-.04.12-.02.22-.06.34-.08.04-.02.06-.04.06-.06v-6.22s-.02-.04-.02-.04c-.02-.02-.04-.02-.06-.02h-1.06s-.02,0-.04.02c-.02,0-.02.02-.02.04v6.6s.02.04.04.06h.02ZM1272.57,145.63h-2.32l-.02-.02c-2.26,0-4.08-1.85-4.08-4.11,0-1.32.64-2.51,1.64-3.27v-.02s.04-.02.04-.04v-6.94s-.02-.04-.04-.06h-.04c-.64.08-2.7.5-4.73,2.61-2.44-2.53-4.95-2.63-4.95-2.63h-4.71s-.06.02-.06.06l-.02,6.12s.02.04.02.04c.02.02.04.02.06.02h2.4l.02.02.02-.02c2.26,0,4.1,1.84,4.1,4.11s-1.84,4.11-4.1,4.11v.02h-2.34s-.04,0-.06.02v6.06s.04.02.06.02h3.26l.64-.02c3.26,0,5.21-2.1,5.65-2.53.42.42,2.54,2.37,5.43,2.55h4.12s.02-.02.04-.02c0-.02.02-.04.02-.06v-5.96s-.02-.04-.02-.04c-.02-.02-.04-.02-.04-.02M1269.93,137.39h.96s.02,0,.04-.02c0,0,.02-.02.02-.04v-6.12s-.02-.04-.02-.04c-.02-.02-.04-.02-.04-.02h-.96s-.02,0-.04.02c-.02,0-.02.02-.02.04v6.12s0,.04.02.04t.04.02M1272.73,131.21s-.04-.06-.08-.06h-1.2s-.04,0-.06.02c0,0-.02.02-.02.04v6.12s.02.04.02.04c.02.02.04.02.06.02h1.22s.02,0,.04-.02c0,0,.02-.02.02-.04v-6.12Z"/>
    <path class="st22" d="M1230.22,149.18h-6.01c-.06,0-.12.04-.12.08v.84c0,.06.06.1.12.1h6.01c.06,0,.12-.04.12-.1v-.84s-.06-.08-.12-.08"/>
    <path class="st22" d="M1230.22,147.66h-6.01c-.06,0-.12.06-.12.1v.84c0,.06.06.1.12.1h6.01c.06,0,.12-.04.12-.1v-.84s-.06-.1-.12-.1"/>
    <path class="st22" d="M1230.22,150.68h-6.01c-.06,0-.12.04-.12.08v.86c0,.06.06.1.12.1h6.01c.06,0,.12-.04.12-.1v-.86s-.06-.08-.12-.08"/>
    <path class="st22" d="M1217.49,139.03l.22-2.41c.02-.22.06-.42.06-.42.36-3.09,2.62-5.29,6.27-5.29s6.21,2.29,6.29,5.73l.02.34v10.09c0,.06-.06.12-.12.12h-6.01s-.06-.02-.08-.04c-.02-.02-.04-.04-.04-.08v-9.69s-.02-.06-.06-.06-.06.02-.06.06l-.8,8.92c-.02.18-.06.44-.06.46-.5,2.99-3.08,5.25-6.21,5.25s-5.73-2.27-6.21-5.25c0-.02-.04-.28-.06-.46l-.8-8.92s-.04-.06-.06-.06c-.04,0-.06.02-.06.06v14.22s-.02.06-.04.08c-.02.02-.04.04-.08.04h-6.03c-.06,0-.1-.06-.1-.12v-14.96c.1-3.45,2.82-5.73,6.29-5.73,3.64,0,5.93,2.21,6.29,5.29,0,0,.02.2.06.42l.22,2.41.54,6.06s.02.04.04.04.04-.02.04-.04l.54-6.06Z"/>
    <path class="st22" d="M1200.23,144.43v-5.94c0-.06-.04-.12-.1-.12h-.84s-.08.06-.08.12v5.94c0,.06.04.12.08.12h.84c.06,0,.1-.06.1-.12"/>
    <path class="st22" d="M1201.73,144.43v-5.94c0-.06-.04-.12-.08-.12h-.86s-.08.06-.08.12v5.94c0,.06.04.12.08.12h.86s.08-.06.08-.12"/>
    <path class="st22" d="M1198.73,144.43v-5.94c0-.06-.04-.12-.1-.12h-.84c-.06,0-.1.06-.1.12v5.94c0,.06.04.12.1.12h.84c.06,0,.1-.06.1-.12"/>
    <path class="st22" d="M1180.69,132.66h-6.03c-.06,0-.12.04-.12.1v.84s.06.08.12.08h6.03c.06,0,.1-.04.1-.08v-.84c0-.06-.04-.1-.1-.1"/>
    <path class="st22" d="M1180.69,131.15h-6.03c-.06,0-.12.04-.12.08v.86s.06.08.12.08h6.03c.06,0,.1-.04.1-.08v-.86s-.04-.08-.1-.08"/>
    <path class="st22" d="M1180.69,134.16h-6.03c-.06,0-.12.04-.12.1v.84c0,.06.06.1.12.1h6.03c.06,0,.1-.04.1-.1v-.84c0-.06-.04-.1-.1-.1"/>
    <path class="st22" d="M1203.97,155.82h1.42c.22,0,.38-.04.42-.08.04-.02.1-.14.1-.36,0-.14-.04-.24-.08-.28-.04-.04-.12-.08-.28-.08h-1.58v.8ZM1203.59,157.18s-.04,0-.06-.02c-.02-.02-.04-.04-.04-.06v-2.41s.02-.06.04-.08c.02,0,.04-.02.06-.02h2c.26,0,.46.04.6.18.14.12.2.32.2.6,0,.14-.02.26-.04.38-.02.12-.06.22-.14.28-.06.08-.14.12-.24.16-.1.02-.24.04-.4.04h-1.6v.86s0,.04-.02.06c-.02.02-.04.02-.06.02h-.3Z"/>
    <path class="st22" d="M1212.94,156.76l.62.02h.3c.18,0,.34-.02.52-.02.16-.02.24-.08.28-.14.04-.06.06-.2.06-.38v-.5c0-.16,0-.28-.02-.4,0-.1-.02-.16-.06-.2-.02-.04-.06-.08-.1-.08-.06-.02-.12-.04-.2-.04h-.2l-.56-.02-.56.02c-.28,0-.44.04-.5.08-.04.04-.1.18-.08.44l-.02.36v.18c0,.3.04.48.08.56.04.06.18.12.44.12M1212.88,154.57h1.06c.52,0,.84.06,1.02.22.18.18.24.5.24,1v.16c0,.18,0,.36-.02.56-.02.2-.1.38-.24.5-.14.12-.34.18-.58.16-.06.02-.16.02-.28.02h-.94c-.14,0-.28,0-.42-.02-.14,0-.26-.04-.36-.08-.12-.04-.2-.12-.26-.24-.08-.1-.12-.24-.14-.4-.02-.16-.02-.34-.02-.56v-.42c.02-.1.04-.22.06-.38.04-.18.14-.32.3-.4.16-.08.36-.12.58-.12"/>
    <path class="st22" d="M1218.89,155.64s.06.02.06.04c.02.02.04.04.04.06v.24s-.02.04-.04.06c-.02.02-.04.04-.06.04h-1.8v1.02s-.02.04-.04.06c-.02.02-.04.02-.06.02h-.3s-.04,0-.06-.02c-.02-.02-.02-.04-.02-.06v-2.41s0-.06.02-.08c.02,0,.04-.02.06-.02h2.3s.06.02.06.02c.02.02.04.04.04.08v.24s-.02.04-.04.06c0,.02-.04.02-.06.02h-1.9v.62h1.8Z"/>
    <path class="st22" d="M1222.77,155.64s.06.02.08.02c0,.02.02.04.02.08v.24s-.02.04-.02.06c-.02.02-.04.02-.08.02h-1.92v.7h2.02s.06.02.08.02c0,.02.02.04.02.08v.24s-.02.04-.02.06c-.02.02-.04.02-.08.02h-2.4s-.04,0-.06-.02c-.02-.02-.02-.04-.02-.06v-2.41s0-.06.02-.08c.02,0,.04-.02.06-.02h2.38s.06.02.06.02c.02.02.04.04.04.08v.24s-.02.04-.04.06c0,.02-.04.02-.06.02h-2v.62h1.92Z"/>
    <path class="st22" d="M1226.58,155.08s-.12-.04-.24-.04c-.12-.02-.3-.04-.5-.04h-.1c-.16,0-.32.02-.48.02-.16.02-.28.04-.34.08-.06.02-.1.06-.1.08-.02.04-.04.1-.04.18,0,.14.04.2.08.24.06.04.16.06.3.06h1.1c.08,0,.2.02.36.02.16.02.32.08.42.2.12.12.18.3.18.54,0,.14-.02.28-.08.4-.06.12-.16.2-.28.26-.12.06-.26.08-.42.1-.16.02-.34.02-.52.02h-.6c-.1,0-.24-.02-.42-.04-.2-.04-.36-.1-.46-.24-.1-.14-.14-.34-.14-.6,0-.02.02-.06.04-.06,0-.02.04-.04.06-.04h.28s.06.02.06.04c.02,0,.04.04.04.06v.04c0,.14,0,.22.02.26.02.04.04.06.12.08.08.04.2.06.36.06s.32.02.46.02c.26,0,.46-.02.62-.04.16-.02.28-.06.3-.1.04-.04.08-.1.08-.24,0-.16-.04-.22-.08-.24-.06-.04-.18-.06-.36-.06h-.56l-.64-.02c-.24,0-.42-.04-.58-.14-.14-.12-.22-.3-.22-.52,0-.18.04-.32.1-.46.06-.12.16-.22.32-.26.12-.06.28-.1.46-.1.18-.02.36-.02.58-.02h.38c.08,0,.22.02.38.04.2.02.36.08.48.22.1.12.16.32.16.54,0,.02-.02.06-.04.06,0,.02-.04.04-.06.04h-.28s-.06-.02-.08-.04c0,0-.02-.04-.02-.06,0-.1-.02-.18-.02-.22-.02-.04-.04-.06-.08-.08"/>
    <path class="st22" d="M1230.82,155.08s-.12-.04-.24-.04c-.14-.02-.3-.04-.5-.04h-.1c-.16,0-.32.02-.5.02-.16.02-.28.04-.34.08-.06.02-.08.06-.1.08,0,.04-.02.1-.02.18,0,.14.04.2.08.24.06.04.16.06.3.06h1.1c.08,0,.2.02.36.02.16.02.3.08.42.2.12.12.16.3.16.54,0,.14-.02.28-.06.4-.06.12-.16.2-.28.26-.12.06-.26.08-.42.1-.16.02-.34.02-.52.02h-.6c-.1,0-.24-.02-.42-.04-.2-.04-.36-.1-.46-.24-.1-.14-.14-.34-.14-.6,0-.02,0-.06.02-.06.02-.02.04-.04.06-.04h.3s.04.02.06.04c.02,0,.02.04.02.06v.04c0,.14.02.22.04.26,0,.04.04.06.12.08.08.04.2.06.36.06s.3.02.46.02c.24,0,.46-.02.62-.04.16-.02.26-.06.3-.1.04-.04.06-.1.06-.24,0-.16-.04-.22-.06-.24-.06-.04-.18-.06-.38-.06h-.54l-.64-.02c-.24,0-.44-.04-.58-.14-.16-.12-.22-.3-.22-.52,0-.18.02-.32.08-.46.06-.12.18-.22.32-.26.14-.06.3-.1.48-.1.16-.02.36-.02.58-.02h.38c.08,0,.2.02.38.04.2.02.36.08.46.22.12.12.16.32.16.54,0,.02,0,.06-.02.06-.02.02-.04.04-.06.04h-.3s-.04-.02-.06-.04c-.02,0-.02-.04-.02-.06,0-.1-.02-.18-.04-.22-.02-.04-.04-.06-.06-.08"/>
    <path class="st22" d="M1232.91,157.18s-.04,0-.06-.02c-.02-.02-.02-.04-.02-.06v-2.41s0-.06.02-.08c.02,0,.04-.02.06-.02h.3s.04,0,.06.02c.02.02.02.04.02.08v2.41s0,.04-.02.06c-.02.02-.04.02-.06.02h-.3Z"/>
    <path class="st22" d="M1235.69,156.76l.62.02h.3c.18,0,.34-.02.52-.02.16-.02.24-.08.28-.14.04-.06.06-.2.06-.38v-.5c0-.16,0-.28-.02-.4,0-.1-.04-.16-.06-.2-.02-.04-.06-.08-.1-.08-.06-.02-.14-.04-.2-.04h-.2l-.56-.02-.56.02c-.28,0-.44.04-.5.08-.04.04-.1.18-.08.44l-.02.36v.18c0,.3.04.48.08.56.04.06.18.12.44.12M1235.63,154.57h1.06c.52,0,.84.06,1.02.22.18.18.24.5.24,1v.16c0,.18,0,.36-.02.56-.02.2-.1.38-.24.5-.14.12-.34.18-.58.16-.06.02-.16.02-.28.02h-.94c-.14,0-.28,0-.42-.02-.14,0-.26-.04-.36-.08-.12-.04-.2-.12-.26-.24-.08-.1-.12-.24-.14-.4-.02-.16-.02-.34-.02-.56v-.42c.02-.1.04-.22.06-.38.04-.18.14-.32.3-.4.16-.08.36-.12.58-.12"/>
    <path class="st22" d="M1239.43,157.18s-.04,0-.06-.02c-.02-.02-.02-.04-.02-.06v-2.41s0-.06.02-.08c.02,0,.04-.02.06-.02h.5l.06.02,2.06,2.03v-1.94s0-.06.02-.08c.02,0,.04-.02.06-.02h.3s.04,0,.06.02c.02.02.04.04.04.08v2.41s-.02.04-.04.06c-.02.02-.04.02-.06.02h-.48l-.06-.02-2.08-2.05v1.99s0,.04-.02.06c-.02.02-.04.02-.06.02h-.3Z"/>
    <path class="st22" d="M1244.64,156.22h1.32l-.66-1.14-.66,1.14ZM1246.58,157.18s-.06-.02-.08-.04l-.28-.5h-1.84l-.28.5s-.04.04-.08.04h-.34s-.06-.02-.08-.04c-.02-.04-.02-.06,0-.1l1.42-2.41s.04-.04.08-.04h.38s.06.02.08.04l1.44,2.41s.02.06,0,.1c-.02.02-.06.04-.08.04h-.34Z"/>
    <path class="st22" d="M1248.16,157.18s-.06,0-.08-.02c0-.02-.02-.04-.02-.06v-2.41s.02-.06.02-.08c.02,0,.04-.02.08-.02h.28s.06.02.06.02c.02.02.04.04.04.08v2.06h1.8s.06.02.06.02c.02.02.04.04.04.08v.24s-.02.04-.04.06c0,.02-.04.02-.06.02h-2.18Z"/>
    <path class="st22" d="M1254.73,157.22l-.54-.04c-.46-.02-.74-.32-.74-.76v-.88c0-.1.02-.22.06-.38.02-.18.12-.32.26-.42.14-.1.32-.14.54-.14.1-.02.2-.02.28-.02h1.08c.1.02.2.04.36.06.16.04.28.14.36.28.06.14.08.32.08.54,0,.04,0,.06-.02.08-.02,0-.04.02-.06.02h-.3s-.04-.02-.06-.02c-.02-.02-.02-.04-.02-.08v-.02c0-.1-.02-.18-.02-.26-.02-.04-.04-.08-.06-.08-.02-.02-.1-.06-.24-.06-.12-.02-.3-.04-.52-.04-.1,0-.22.02-.4.02s-.3.02-.4.02c-.2,0-.32.06-.34.08-.02.02-.06.1-.08.24,0,.14-.02.26-.02.38v.32c0,.3.04.5.08.6.02.06.16.12.4.12h1.1c.22,0,.36-.04.42-.08.04,0,.08-.1.08-.28v-.1s.02-.06.04-.06c.02-.02.04-.04.06-.04h.3s.04.02.06.04c.02,0,.04.04.04.06-.02.3-.06.54-.18.68-.14.14-.36.18-.72.2l-.62.02h-.26Z"/>
    <path class="st22" d="M1257.95,157.18s-.04,0-.06-.02c-.02-.02-.02-.04-.02-.06v-2.41s0-.06.02-.08c.02,0,.04-.02.06-.02h.3s.04.02.06.02c.02.02.04.04.04.08v2.06h1.8s.04.02.06.02c.02.02.04.04.04.08v.24s-.02.04-.04.06c-.02.02-.04.02-.06.02h-2.2Z"/>
    <path class="st22" d="M1262.08,156.22h1.34l-.68-1.14-.66,1.14ZM1264.04,157.18s-.06-.02-.08-.04l-.3-.5h-1.82l-.28.5s-.06.04-.08.04h-.34s-.06-.02-.08-.04c-.02-.04-.02-.06,0-.1l1.42-2.41s.04-.04.08-.04h.38s.06.02.08.04l1.42,2.41s.02.06.02.1c-.02.02-.06.04-.08.04h-.34Z"/>
    <path class="st22" d="M1267.76,155.08s-.12-.04-.24-.04c-.14-.02-.3-.04-.5-.04h-.12c-.14,0-.3.02-.48.02-.16.02-.28.04-.34.08-.06.02-.08.06-.1.08-.02.04-.02.1-.02.18,0,.14.04.2.08.24.06.04.16.06.3.06h1.1c.08,0,.2.02.34.02.18.02.32.08.44.2.12.12.16.3.16.54,0,.14-.02.28-.08.4-.04.12-.14.2-.26.26-.12.06-.26.08-.44.1-.14.02-.32.02-.5.02h-.6c-.1,0-.24-.02-.42-.04-.2-.04-.36-.1-.46-.24-.1-.14-.14-.34-.14-.6,0-.02,0-.06.02-.06.02-.02.04-.04.06-.04h.3s.04.02.06.04c.02,0,.02.04.02.06v.04c0,.14.02.22.04.26,0,.04.04.06.12.08.08.04.2.06.36.06s.3.02.46.02c.24,0,.46-.02.62-.04.16-.02.26-.06.3-.1.04-.04.06-.1.06-.24,0-.16-.04-.22-.08-.24-.04-.04-.18-.06-.36-.06h-.54l-.64-.02c-.24,0-.44-.04-.58-.14-.16-.12-.22-.3-.22-.52,0-.18.02-.32.08-.46.06-.12.18-.22.32-.26.14-.06.3-.1.48-.1.16-.02.36-.02.56-.02h.4c.08,0,.2.02.38.04.2.02.36.08.46.22.12.12.16.32.16.54,0,.02,0,.06-.02.06-.02.02-.04.04-.06.04h-.3s-.04-.02-.06-.04c-.02,0-.02-.04-.02-.06,0-.1-.02-.18-.04-.22-.02-.04-.04-.06-.06-.08"/>
    <path class="st22" d="M1271.99,155.08s-.1-.04-.24-.04c-.12-.02-.28-.04-.5-.04h-.1c-.16,0-.32.02-.48.02-.16.02-.28.04-.34.08-.06.02-.08.06-.1.08-.02.04-.02.1-.02.18,0,.14.02.2.08.24.06.04.16.06.3.06h1.08c.1,0,.2.02.36.02.18.02.32.08.44.2.12.12.16.3.16.54,0,.14-.02.28-.08.4-.06.12-.14.2-.28.26-.12.06-.26.08-.42.1-.16.02-.32.02-.52.02h-.6c-.08,0-.22-.02-.42-.04-.2-.04-.36-.1-.46-.24-.1-.14-.12-.34-.14-.6,0-.02.02-.06.04-.06.02-.02.04-.04.06-.04h.3s.04.02.06.04c.02,0,.02.04.02.06v.04c0,.14.02.22.04.26,0,.04.02.06.1.08.1.04.22.06.36.06.16,0,.32.02.48.02.24,0,.44-.02.62-.04.16-.02.26-.06.3-.1.02-.04.06-.1.06-.24,0-.16-.04-.22-.08-.24-.06-.04-.18-.06-.36-.06h-.56l-.64-.02c-.24,0-.42-.04-.56-.14-.16-.12-.24-.3-.24-.52,0-.18.04-.32.1-.46.06-.12.18-.22.32-.26.12-.06.28-.1.46-.1.18-.02.38-.02.58-.02h.38c.08,0,.22.02.4.04.18.02.34.08.46.22.12.12.16.32.16.54,0,.02,0,.06-.02.06-.02.02-.04.04-.06.04h-.3s-.04-.02-.06-.04c-.02,0-.04-.04-.04-.06,0-.1,0-.18-.02-.22-.02-.04-.04-.06-.08-.08"/>
    <path class="st22" d="M1208.18,155.02h1.5c.2,0,.34.04.4.08.04.02.1.1.1.28v.04c0,.18-.06.26-.1.3-.06.04-.2.06-.4.06h-1.5v-.76ZM1210.7,157.12l-1.08-.9h.14c.3,0,.52-.06.68-.18s.22-.36.22-.64c0-.3-.06-.52-.22-.64s-.38-.16-.68-.16h-1.98s-.04,0-.06.02c-.02.02-.02.04-.02.06v2.43s0,.04.02.06c.02.02.04.02.06.02h.3s.04,0,.06-.02c.02-.02.04-.04.04-.06v-.88h.72l1.14.96h.62s.04,0,.04-.02v-.04Z"/>
    <path class="st18" d="M1143.83,128.56h1.39s-.53,1.02-.63,2.45c-.1,1.42.58,3.56.76,4.25.15.56.34,1.3.3,2.38-.18,2.36-1.63,3.74-2.98,5.5h-.94s1.57-1.85,2.08-2.99c.41-.92.73-1.79.6-3.09-.12-1.21-.2-1.24-.98-4.14-.5-2.36.08-3.38.4-4.36"/>
    <path class="st26" d="M1139.64,144.41c1.66-1.42,3.34-3.45,3.46-6.28.12-2.75-2.7-4.45-2.26-8.48h2.62c-.86,3.01.96,4.85.98,8.12.02,2.39-2.46,5.41-4,6.64h-.8Z"/>
    <path class="st22" d="M1132.07,138.39v-2.99c.28.52.42.74.68,1.06,2.08,2.57,7.19,1.42,7.25-2.33h.8c.36,4.53-5.29,7.06-8.73,4.25"/>
    <path class="st22" d="M1120.26,137.47h3.8c-3.92-1.66-2.8-8.84,2.36-8.46.52.04.86.12,1.4.32v-1.12c-5.93-2.01-10.43,4.29-7.57,9.27"/>
    <path class="st22" d="M1135.8,149.22l-2.18,7.06-.2.58c-.02.08-.08.12-.16.12s-.14-.06-.16-.12l-5.97-19.39h-2.26l7.63,19.85c.12.32.42.54.78.54s.66-.24.78-.58l2.74-7.08-1-.98Z"/>
    <path class="st22" d="M1155.8,146.39c-.26-1.28-1.78-1.82-3.34-1.34.06-.24.1-.48.12-.72h-2.24c-.28,4.29-3.42,7.68-7.27,7.68s-7.15-3.37-7.39-7.64c-.04-.64.22-.9.22-.9.6-.72,2.14-1.22,2.14-1.22-1.7.1-2.6.3-3.52.56-.92.28-1.14.82-1.14,1.14,0,.5.08.82.08.82.7,3.85,3.96,7.18,8.19,7.76-2.06.32-3.64,1.3-4,2.55h2.52c.22-1.12,1.42-1.99,2.86-1.99s2.64.86,2.86,1.99h2.5c-.36-1.24-1.96-2.25-4.02-2.55,3.52-.48,6.43-2.81,7.65-5.92,1.18-.48,2.62-.08,2.64.98.02.96-.88,1.68-1.52,1.95-.18.06-.34.1-.48.14-.32.1-.42.18-.4.38,0,.2.2.26.42.26,1.7-.12,3.52-1.86,3.12-3.93"/>
    <path class="st22" d="M1150.41,143.97h2.14s.2-1.44-5.01-1.86c0,0-2.44-.22-4.03.04,0,0,6.13.36,6.71,1.56,0,0,.06.1.08.26h.1Z"/>
    <path class="st22" d="M1139.82,145.59c1.56.04,2.8-.06,3.54-.1-.04-.08-.1-.16-.16-.22h-.16c-3.18-.04-5.91-.48-6.93-1.08-.04.38.02.72.06.94.08.06,1.08.38,3.64.46"/>
    <path class="st15" d="M1149.13,127.74h-3.4c-.34.46-.64,1.02-.76,1.4-.28.92-.34,1.26-.38,1.94-.1,2.35,1.06,4.03,1.06,6.22,0,1.26-.5,2.53-1.28,3.69-.04.04-.06.08-.08.1-.14.2-.28.38-.42.56.26-.02.3-.02.62-.02.52-.7.78-1.02,1-1.42.46-.78.92-1.81,1.02-2.89.12-1.61-.42-3.53-.16-4.99,0,0,.24-2.47,2.9-4.59h-.12Z"/>
    <path class="st22" d="M1140.06,127.92c-.02-.06-.02-.1-.02-.16v-.1c-.02-.08-.02-.18-.04-.26-.04-.36-.12-.7-.22-1.02v-.02c-.7-2.29-2.68-3.85-4.97-4.27-.28-.04-.58-.06-.9-.06-.38,0-.74.04-1.1.1-.82.2-1.54.48-2.16.86-.06.02-.1.06-.14.08t-.02.02c-1.48,1-2.5,2.63-2.68,4.51h.88c.1-.74.26-1.2.52-1.74,2.02-4.09,8.53-2.71,8.59,1.95.02.58-.08,1.14-.34,1.8-.2.54-.68,1.06-1.28,1.52v2.77c2.26-.9,3.88-3.13,3.88-5.72v-.26Z"/>
  </g>
  <path d="M1478.88,125.78v2.87h-.64v-1.86s-.69,1.58-.69,1.58h-.47l-.69-1.58v1.86h-.65v-2.87h.8l.78,1.71.78-1.71h.79ZM1472.56,126.37h.86v2.28h.73v-2.28h.86v-.59h-2.45v.59ZM1418.74,134.39h-6.46c-4.76,0-8.61,3.86-8.61,8.61s3.86,8.61,8.61,8.61h6.46c0-2.38-1.93-4.31-4.31-4.31h-2.15c-2.38,0-4.31-1.93-4.31-4.3s1.93-4.31,4.31-4.31h2.15c2.38,0,4.31-1.93,4.31-4.31M1446.73,138.69h0c2.38,0,4.31,1.93,4.31,4.31s-1.93,4.3-4.31,4.3-4.31-1.93-4.31-4.3,1.93-4.31,4.31-4.31M1438.12,143h0c0,4.75,3.86,8.61,8.61,8.61s8.61-3.86,8.61-8.61-3.86-8.61-8.61-8.61-8.61,3.86-8.61,8.61M1427.35,138.69h0c2.38,0,4.31,1.93,4.31,4.31s-1.93,4.3-4.31,4.3-4.31-1.93-4.31-4.3,1.93-4.31,4.31-4.31M1418.74,143h0c0,4.75,3.86,8.61,8.61,8.61s8.61-3.86,8.61-8.61-3.86-8.61-8.61-8.61-8.61,3.86-8.61,8.61M1392.91,138.69h0c2.38,0,4.31,1.93,4.31,4.31s-1.93,4.3-4.31,4.3-4.31-1.93-4.31-4.3,1.93-4.31,4.31-4.31M1384.3,143h0c0,4.75,3.86,8.61,8.61,8.61s8.61-3.86,8.61-8.61-3.86-8.61-8.61-8.61-8.61,3.86-8.61,8.61M1465.75,140.81l3.06-3.05c1.87-1.87,2.02-4.75.34-6.43l-7.36,7.35v-8.6c0-2.38-1.93-4.31-4.31-4.31v25.83h4.31v-8.66l7.41,7.41c1.68,1.68,4.4,1.68,6.08,0l-9.53-9.53ZM1358.47,138.69v12.91c2.38,0,4.31-1.93,4.31-4.31v-12.91c-2.38,0-4.31,1.93-4.31,4.31M1373.54,147.3h0c-2.38,0-4.31-1.93-4.31-4.3s1.93-4.31,4.31-4.31h4.31v4.31c0,2.38-1.93,4.3-4.31,4.3M1382.15,125.78c-2.38,0-4.31,1.93-4.31,4.31v4.31h-4.31c-4.76,0-8.61,3.86-8.61,8.61s3.86,8.61,8.61,8.61,8.61-3.86,8.61-8.61v-17.22ZM1347.71,138.69h0c2.38,0,4.31,1.93,4.31,4.31s-1.93,4.3-4.31,4.3h-4.31v-4.3c0-2.38,1.93-4.31,4.31-4.31M1339.1,160.22c2.38,0,4.31-1.93,4.31-4.3v-4.31h4.31c4.76,0,8.61-3.86,8.61-8.61s-3.86-8.61-8.61-8.61-8.61,3.86-8.61,8.61v17.22ZM1336.94,134.39c0,2.38-1.93,4.31-4.31,4.31h-5.38c-.59,0-1.08.48-1.08,1.08s.48,1.08,1.08,1.08h4.31c2.97,0,5.38,2.41,5.38,5.38s-2.41,5.38-5.38,5.38h-9.69c0-2.38,1.93-4.31,4.31-4.31h5.38c.59,0,1.08-.48,1.08-1.08s-.48-1.08-1.08-1.08h-4.31c-2.97,0-5.38-2.41-5.38-5.38s2.41-5.38,5.38-5.38h9.69Z"/>
  <g>
    <g>
      <polygon points="976.26 20.87 976.26 21.25 977.15 21.25 977.15 24.06 977.61 24.06 977.61 21.27 978.49 21.27 978.49 20.87 976.26 20.87"/>
      <g class="st27">
        <rect x="795.87" y="17.1" width="189.74" height="37.95"/>
      </g>
    </g>
    <g>
      <polygon points="981.69 20.87 980.75 23.39 979.86 20.87 979.16 20.87 979.16 24.06 979.65 24.06 979.65 21.38 980.63 24.06 980.86 24.06 981.86 21.35 981.86 24.06 982.34 24.06 982.34 20.87 981.69 20.87"/>
      <g class="st6">
        <rect x="795.87" y="17.1" width="189.74" height="37.95"/>
      </g>
    </g>
    <g>
      <polygon points="820.83 20.67 820.83 25.65 828.7 25.65 828.7 51.25 834.12 51.25 834.12 25.65 843.81 25.65 843.81 20.67 820.83 20.67"/>
      <g class="st9">
        <rect x="795.87" y="17.1" width="189.74" height="37.95"/>
      </g>
    </g>
    <g>
      <polygon points="867.65 20.66 858.36 35.11 849.06 20.67 843.35 20.67 843.35 51.21 848.67 51.21 848.67 29.39 858.23 43.7 858.4 43.7 868.04 29.3 868.04 51.21 873.37 51.21 873.37 20.66 867.65 20.66"/>
      <g class="st7">
        <rect x="795.87" y="17.1" width="189.74" height="37.95"/>
      </g>
    </g>
    <g>
      <polygon points="924.77 20.73 915.65 44.09 906.49 20.73 900.59 20.73 913.22 51.34 917.91 51.34 930.54 20.73 924.77 20.73"/>
      <g class="st8">
        <rect x="795.87" y="17.1" width="189.74" height="37.95"/>
      </g>
    </g>
    <g>
      <path d="M962.05,51.77c-2.22,0-4.28-.41-6.16-1.22-1.88-.81-3.51-1.92-4.89-3.32-1.38-1.4-2.47-3.06-3.25-4.97s-1.18-3.95-1.18-6.12v-.09c0-2.17.39-4.2,1.16-6.1.77-1.9,1.86-3.56,3.25-4.99,1.39-1.43,3.05-2.56,4.96-3.38s4.02-1.24,6.33-1.24c1.39,0,2.65.12,3.79.35,1.14.23,2.19.56,3.15.97.96.42,1.83.92,2.64,1.5.81.58,1.58,1.21,2.3,1.91l-3.43,3.95c-1.22-1.13-2.5-2.04-3.86-2.73-1.36-.69-2.91-1.04-4.64-1.04-1.45,0-2.79.28-4.01.84-1.22.56-2.29,1.33-3.19,2.3s-1.59,2.1-2.08,3.4c-.49,1.3-.74,2.69-.74,4.17v.09c0,1.47.24,2.87.74,4.19.5,1.32,1.18,2.47,2.08,3.45s1.96,1.75,3.19,2.32c1.23.57,2.56.84,4.01.84,1.85,0,3.44-.35,4.77-1.06,1.33-.71,2.65-1.67,3.95-2.89l3.43,3.47c-.78.84-1.6,1.58-2.45,2.23-.85.65-1.77,1.22-2.75,1.69s-2.06.84-3.23,1.09c-1.17.25-2.47.37-3.88.37"/>
      <g class="st14">
        <rect x="795.87" y="17.1" width="189.74" height="37.95"/>
      </g>
    </g>
    <g>
      <polygon points="811.76 20.67 799.14 51.25 804.91 51.25 814.02 27.91 823.17 51.25 829.07 51.25 816.44 20.67 811.76 20.67"/>
      <g class="st11">
        <rect x="795.87" y="17.1" width="189.74" height="37.95"/>
      </g>
    </g>
    <g>
      <polygon points="950.15 51.25 944.24 51.25 935.1 27.91 925.98 51.25 920.21 51.25 932.84 20.67 937.52 20.67 950.15 51.25"/>
      <g class="st10">
        <rect x="795.87" y="17.1" width="189.74" height="37.95"/>
      </g>
    </g>
    <g>
      <path d="M888.44,51.23c-2.28,0-4.36-.4-6.25-1.2-1.88-.8-3.5-1.89-4.85-3.27-1.35-1.38-2.41-2.99-3.17-4.84-.76-1.85-1.14-3.81-1.14-5.89v-.09c0-2.08.38-4.04,1.14-5.89.76-1.85,1.83-3.46,3.21-4.85,1.38-1.39,3.01-2.5,4.89-3.32s3.97-1.22,6.25-1.22,4.36.4,6.25,1.2c1.88.8,3.51,1.89,4.85,3.27,1.35,1.38,2.41,2.99,3.17,4.84.76,1.85,1.15,3.81,1.15,5.89v.09c0,2.08-.38,4.04-1.15,5.89-.77,1.85-1.83,3.46-3.21,4.85s-3.01,2.5-4.9,3.32c-1.89.82-3.97,1.22-6.25,1.22M888.53,46.46c1.46,0,2.79-.27,4.02-.82,1.22-.55,2.26-1.3,3.13-2.24s1.55-2.05,2.03-3.32c.48-1.27.74-2.62.74-4.05v-.09c0-1.44-.24-2.79-.74-4.08-.5-1.28-1.18-2.39-2.06-3.34-.88-.94-1.94-1.69-3.17-2.26-1.23-.56-2.58-.84-4.04-.84s-2.79.27-4.01.82c-1.22.55-2.26,1.3-3.13,2.24-.87.94-1.55,2.05-2.04,3.32-.49,1.27-.73,2.62-.73,4.05v.09c0,1.43.25,2.79.73,4.08.48,1.28,1.18,2.39,2.06,3.34s1.94,1.69,3.17,2.26c1.23.56,2.58.84,4.04.84"/>
      <g class="st13">
        <rect x="795.87" y="17.1" width="189.74" height="37.95"/>
      </g>
    </g>
    <g>
      <rect x="870.67" y="34.63" width="35.61" height="2.64" transform="translate(345.64 740.23) rotate(-54.69)"/>
      <g class="st12">
        <rect x="795.87" y="17.1" width="189.74" height="37.95"/>
      </g>
    </g>
  </g>
  <g>
    <polygon class="st17" points="1763.22 136.07 1762.25 136.07 1757.67 151.23 1752.87 151.23 1748.03 136.07 1747.2 136.07 1747.2 132.25 1754.84 132.25 1754.84 136.07 1753.82 136.07 1756.36 144.08 1758.76 136.07 1757.88 136.07 1757.88 132.25 1763.22 132.25 1763.22 136.07"/>
    <path class="st17" d="M1771.01,151.24h-7.64v-3.79h.97v-6.07h-.97v-3.79h6.53v9.87h1.12v3.79ZM1769.85,134.18c0,.76-.34,1.34-1.02,1.74-.54.32-1.17.49-1.9.49s-1.35-.15-1.88-.46c-.68-.4-1.02-.99-1.02-1.77s.33-1.37,1-1.77c.54-.32,1.17-.49,1.9-.49s1.36.16,1.9.49c.68.4,1.02.99,1.02,1.77"/>
    <path class="st17" d="M1783.69,147.27c0,1.39-.47,2.47-1.4,3.25-.84.7-1.86,1.05-3.06,1.05-.65,0-1.27-.1-1.85-.28-.59-.19-1.21-.49-1.88-.88v.83h-3.58v-4.59h3.58c.52,1.35,1.39,2.02,2.59,2.02.28,0,.55-.08.8-.23.24-.15.37-.39.37-.71,0-.55-.64-.99-1.92-1.31-1.88-.46-3.09-.84-3.61-1.14-1.3-.74-1.95-1.91-1.95-3.51,0-1.43.49-2.55,1.47-3.36.89-.74,1.95-1.11,3.18-1.11.65,0,1.23.09,1.76.28.52.19,1.13.49,1.83.91v-.91h3.32v4.33h-3.51c-.55-1.16-1.34-1.74-2.35-1.74-.27,0-.52.05-.75.14-.23.09-.4.26-.51.48-.05.12-.07.21-.07.29,0,.13,0,.22.02.26.02.04.03.06.05.06.22.42,1.01.8,2.35,1.14,1.65.42,2.78.84,3.4,1.26,1.16.76,1.73,1.92,1.73,3.48"/>
    <polygon class="st17" points="1799.19 141.37 1798.13 141.37 1794.02 151.24 1789.36 151.24 1784.97 141.37 1783.85 141.37 1783.85 137.58 1792.05 137.58 1792.05 141.37 1791.07 141.37 1792.78 145.56 1794.4 141.37 1793.42 141.37 1793.42 137.58 1799.19 137.58 1799.19 141.37"/>
    <path class="st17" d="M1807.81,147.84v-1.82c-.19-.09-.33-.16-.4-.2-.28-.15-.53-.25-.74-.28-.44,0-.84.15-1.2.46-.36.3-.53.7-.53,1.2s.12.87.35,1.12c.23.26.56.39,1.01.39.27,0,.51-.07.74-.21.22-.14.48-.36.78-.64M1814.48,151.24h-6.67v-.91c-.7.44-1.34.76-1.94.97-.59.21-1.25.31-1.96.31-1.17,0-2.18-.34-3.04-1.03-.98-.78-1.47-1.84-1.47-3.19,0-1.44.55-2.58,1.66-3.39.96-.7,2.08-1.06,3.35-1.06.6,0,1.17.05,1.71.14.21.04.77.17,1.69.4,0-1.14-.08-1.93-.24-2.37-.27-.72-.81-1.08-1.64-1.08-.48,0-.88.14-1.22.41-.34.28-.62.69-.84,1.24l-4.23-.12c.14-1.75.94-2.95,2.4-3.62.95-.44,2.33-.66,4.15-.66,2.14,0,3.72.25,4.75.74,1.63.78,2.45,2.23,2.45,4.36v5.05h1.09v3.79Z"/>
    <path class="st17" d="M1826.26,143.34c-.55-.36-1.16-.54-1.83-.54-.89,0-1.57.3-2.07.88-.49.59-.74,1.43-.74,2.51v1.26h1.28v3.79h-7.77v-3.79h.97v-6.07h-.97v-3.79h6.2v3.34c.68-1.23,1.19-2.05,1.52-2.45.68-.8,1.45-1.2,2.3-1.2.3,0,.67.05,1.09.14v5.93Z"/>
    <path class="st17" d="M1836.02,144.45v-1.08c-.1-.57-.28-1.04-.55-1.4-.32-.42-.72-.63-1.2-.63-.64,0-1.12.34-1.44,1.03-.26.53-.38,1.21-.38,2.02s.13,1.52.38,2.05c.34.68.83,1.03,1.47,1.03.47,0,.85-.19,1.14-.56.3-.37.49-.87.59-1.5v-.97ZM1842.4,151.24h-6.53v-1.34c-.6.53-1.19.93-1.78,1.18-.59.26-1.23.38-1.95.38-1.53,0-2.77-.67-3.69-2.02-.93-1.35-1.39-2.96-1.39-4.85,0-2.02.47-3.69,1.4-5.02,1-1.43,2.33-2.14,3.99-2.14.67,0,1.27.1,1.82.31.55.21,1.1.53,1.67.97v-2.65h-.93v-3.82h6.43v15.23h.95v3.76Z"/>
    <path class="st17" d="M1851.02,151.24h-7.64v-3.79h.97v-6.07h-.97v-3.79h6.53v9.87h1.12v3.79ZM1849.86,134.18c0,.76-.34,1.34-1.02,1.74-.54.32-1.17.49-1.9.49s-1.35-.15-1.88-.46c-.68-.4-1.02-.99-1.02-1.77s.33-1.37,1-1.77c.54-.32,1.17-.49,1.9-.49s1.36.16,1.9.49c.68.4,1.02.99,1.02,1.77"/>
    <path class="st17" d="M1863.7,147.27c0,1.39-.47,2.47-1.4,3.25-.84.7-1.86,1.05-3.06,1.05-.65,0-1.27-.1-1.85-.28-.59-.19-1.21-.49-1.88-.88v.83h-3.59v-4.59h3.59c.52,1.35,1.38,2.02,2.59,2.02.28,0,.55-.08.8-.23.24-.15.37-.39.37-.71,0-.55-.64-.99-1.92-1.31-1.88-.46-3.09-.84-3.61-1.14-1.3-.74-1.95-1.91-1.95-3.51,0-1.43.49-2.55,1.47-3.36.89-.74,1.95-1.11,3.18-1.11.65,0,1.23.09,1.76.28.52.19,1.13.49,1.83.91v-.91h3.32v4.33h-3.51c-.55-1.16-1.34-1.74-2.35-1.74-.27,0-.52.05-.75.14-.23.09-.4.26-.51.48-.05.12-.07.21-.07.29,0,.13,0,.22.02.26.01.04.03.06.05.06.22.42,1.01.8,2.35,1.14,1.64.42,2.78.84,3.39,1.26,1.16.76,1.73,1.92,1.73,3.48"/>
    <path class="st17" d="M1873,148.53c0,.98-.35,1.74-1.04,2.27-.59.45-1.33.68-2.2.68s-1.62-.22-2.14-.65c-.57-.48-.94-1.23-1.1-2.27h2.27c.06.3.18.52.36.65.18.14.42.2.7.2.31,0,.53-.06.67-.17.14-.11.21-.26.21-.45,0-.31-.35-.57-1.05-.8-1.01-.33-1.66-.58-1.96-.77-.7-.46-1.06-1.13-1.06-2.02,0-.94.32-1.67.97-2.19.56-.44,1.26-.67,2.1-.67s1.49.21,2.01.62c.58.47.92,1.17,1.03,2.1h-2.2c-.03-.28-.13-.49-.32-.6-.19-.11-.41-.17-.67-.17-.19,0-.33.03-.43.08-.16.1-.24.26-.24.51,0,.21.09.36.27.47.11.07.28.13.49.18l1.38.44c.57.21,1.02.5,1.35.88.38.44.57,1,.57,1.66"/>
    <rect class="st17" x="1873.94" y="148.63" width="2.13" height="2.6"/>
    <path class="st17" d="M1881.06,148.28l-.73-3-.73,3h1.46ZM1884.05,151.24h-2.3l-.27-1.14h-2.3l-.28,1.14h-2.27l2.53-8.66h2.34l2.54,8.66Z"/>
    <rect class="st17" x="1884.61" y="148.63" width="2.13" height="2.6"/>
    <path class="st28" d="M1708.2,127.13c17.71,0,32.07,6.55,32.07,14.64s-14.36,14.64-32.07,14.64-32.07-6.56-32.07-14.64,14.36-14.64,32.07-14.64"/>
    <path class="st19" d="M1727.52,143.04c-1.33.46-3.22,1.28-12.82,1.74l-.76.05s-1.58.31-.05-.82c.61-.36,4.8-3.68,6.79-3.68,1.43,0,9.75-1.23,9.65,1.07-.1.2.67.51-2.81,1.63M1737.06,139.72c-4.04-3.12-23.09-.46-23.09-.46.15-.66-10.67-1.12-12.66-1.43-3.68-.51-3.47-1.17-3.58-1.38,1.74-2.6,9.7-2.76,11.24-2.76,3.52-.51,5.92.66,6.74.92.15.41,1.28.82,2.14.87,5.16.05,5.87-1.17,6.95-1.53,1.07-.36.2-1.57-1.94-1.84-18.08-2.3-31.05,3.22-33.2,4.14s-1.52,1.81-.71,2.25c2.55,1.38,17.36,2.35,18.44,3.27,1.12.41.69.83.2,1.07-5.11,2.5-12.83,1.91-14.04,1.94-7.1.15-7.35-1.58-7.56-1.74-.56-.56-3.12-.2-3.12-.2,0,0-3.68,1.18-3.88,1.28-1.58,1.07.26,1.53.26,1.53,0,0,1.33.41,1.58.46,10.16,1.53,19.51.56,21.04.36,1.84-.46,1.17.36,1.17.36,0,0-3.07,2.4-4.39,3.98-1.33,1.58,2.09.92,3.22.82,3.73-.1,5.82-2.86,6.48-3.52,2.25-2.04,3.01-1.12,3.47-1.17,1.18-.15,8.07,3.68,9.81,4.44,2.35,1.17,5.52.2,6.03.1,2.09.36.77-.97.36-1.17-8.07-2.76-8.27-3.68-8.58-3.93-.87-.66.51-.51.87-.56,13.48-1.33,15.83-3.42,16.6-3.93,2.25-.92.46-2.04.15-2.14"/>
  </g>
  <g>
    <path d="M1577.5,120.31c29.54,0,53.63,10.38,53.63,23.11s-24.09,23.11-53.63,23.11-53.63-10.38-53.63-23.11,24.09-23.11,53.63-23.11"/>
    <path class="st18" d="M1577.51,121.2c28.93,0,52.53,9.98,52.53,22.22s-23.6,22.22-52.53,22.22-52.53-9.99-52.53-22.22,23.6-22.22,52.53-22.22"/>
    <path d="M1577.5,124.7c24.37,0,44.24,8.41,44.24,18.72s-19.88,18.72-44.24,18.72-44.24-8.41-44.24-18.72,19.87-18.72,44.24-18.72"/>
    <g>
      <path class="st18" d="M1614.03,137.79h.56c.12,0,.21-.01.28-.04.07-.02.12-.06.15-.12.03-.05.05-.11.05-.18,0-.09-.03-.17-.1-.23-.07-.06-.17-.09-.32-.09h-.62v.65ZM1613.78,138.87v-1.95h.87c.18,0,.3.02.39.05.09.04.16.1.22.18.05.09.08.19.08.29,0,.14-.05.26-.14.35-.09.09-.23.16-.41.18.07.03.12.07.15.1.08.07.15.16.21.26l.34.53h-.32l-.26-.41c-.08-.12-.14-.21-.19-.27-.05-.06-.09-.11-.13-.13-.04-.02-.08-.04-.12-.05-.03,0-.08-.01-.14-.01h-.3v.87h-.26Z"/>
      <g>
        <path class="st18" d="M1575.31,143.43c0-2.44.75-4.41,2.25-5.92,1.49-1.5,4.19-2.26,6.61-2.26s5.13.75,6.63,2.26c1.5,1.51,2.25,3.48,2.25,5.91s-.75,4.42-2.24,5.92c-1.5,1.5-4.2,2.25-6.63,2.25s-5.14-.75-6.62-2.25c-1.49-1.5-2.23-3.47-2.23-5.92M1579.75,143.48c0,1.44.45,2.6,1.18,3.46.74.87,2.03,1.3,3.24,1.3s2.52-.44,3.26-1.3c.73-.87,1.18-2,1.18-3.44s-.44-2.7-1.17-3.58c-.73-.88-2.05-1.32-3.27-1.32s-2.52.44-3.25,1.32c-.72.88-1.17,2.06-1.17,3.56"/>
        <path class="st18" d="M1538.36,144.38v-6.61c0-.85.18-1.49.54-1.91.37-.42.92-.63,1.67-.63s1.3.21,1.67.63c.36.42.55,1.06.55,1.91v6.21c0,1.39.33,2.43.98,3.13.65.7,1.63,1.05,2.93,1.05s2.26-.35,2.92-1.05c.66-.7.99-1.74.99-3.13v-6.21c0-.85.18-1.49.54-1.91.36-.42.92-.63,1.66-.63s1.3.21,1.66.63c.37.42.55,1.06.55,1.91v6.61c0,2.28-.73,4.04-2.2,5.3-1.47,1.26-3.51,1.89-6.12,1.89s-4.67-.63-6.14-1.89c-1.47-1.26-2.2-3.03-2.2-5.3"/>
        <path class="st18" d="M1561.25,148.93c0,.87-.2,1.58-.56,2-.35.42-.9.64-1.63.64s-1.35-.15-1.7-.57c-.36-.42-.51-1.14-.51-2v-11.32c0-.82.17-1.43.5-1.83.34-.4.84-.6,1.52-.6.44,0,.83.09,1.19.27.35.18.72.48,1.11.9l7.91,8.86v-7.47c0-.87.18-1.51.53-1.94.36-.43.9-.64,1.64-.64s1.36.21,1.72.64c.36.43.54,1.08.54,1.94v11.6c0,.77-.16,1.35-.48,1.71-.32.37-.84.49-1.52.49-.45,0-.86-.05-1.25-.26-.39-.21-.79-.55-1.22-1.01l-7.78-8.75v7.34Z"/>
        <path class="st18" d="M1614.51,135.28c-1.45,0-2.62,1.17-2.62,2.62s1.17,2.62,2.62,2.62,2.62-1.17,2.62-2.62-1.17-2.62-2.62-2.62ZM1614.51,140.01c-1.17,0-2.11-.95-2.11-2.11s.95-2.11,2.11-2.11,2.11.95,2.11,2.11-.95,2.11-2.11,2.11Z"/>
        <path class="st18" d="M1609.81,147.1c-.72-.72-3.73-3.67-3.73-3.67,0,0,2.84-2.78,3.83-3.77.94-.94.78-2.85-.33-3.73-1.36-1.08-3.03-.64-3.79.12-.6.61-3.59,3.54-3.59,3.54,0,0-3-2.95-3.72-3.67-.72-.72-2.57-1.05-3.81.19-1.24,1.23-.83,2.87,0,3.71.83.83,3.64,3.62,3.64,3.62,0,0-2.86,2.84-3.75,3.72-.89.89-.95,2.53.18,3.66,1.13,1.13,2.97.9,3.79.08.83-.83,3.68-3.65,3.68-3.65,0,0,2.86,2.83,3.52,3.5.72.73,2.44,1.45,3.91.12,1.4-1.26.89-3.05.17-3.77ZM1608.6,149.71c-.48.48-1.3.37-1.61.08-.3-.3-4.78-4.7-4.78-4.7,0,0-4.43,4.35-4.72,4.65-.3.3-1.13.53-1.66,0-.53-.53-.42-1.2-.14-1.49.29-.29,4.86-4.81,4.86-4.81,0,0-4.37-4.29-4.85-4.77-.36-.36-.34-1.04.08-1.47.36-.36,1.21-.51,1.65-.1l4.75,4.7s4.4-4.32,4.75-4.67c.35-.35,1.16-.47,1.62-.02.49.48.5,1.19.13,1.56-.37.38-4.81,4.76-4.81,4.76,0,0,4.52,4.45,4.83,4.77.31.31.36,1.04-.12,1.52Z"/>
      </g>
    </g>
  </g>
  <g>
    <g>
      <rect class="st5" x="1053.27" y="37.94" width="223.27" height="23.65"/>
      <path class="st5" d="M1276.31,11.16v50.13h-222.82V11.16h222.82M1276.99,10.49h-224.17v51.48h224.17V10.49h0Z"/>
      <g>
        <path class="st5" d="M1079.77,24.66h6.55c3.22,0,4.31,1,4.31,3.97,0,2.66-.46,3.37-2.4,3.75v.1c1.52.08,2.28.98,2.26,2.6v2.9h-2.58v-2.4c.04-1.46-.58-2.08-2-2.04h-3.59v4.43h-2.56v-13.32ZM1085.9,31.37c.8,0,1.32-.12,1.62-.4.42-.34.52-.74.52-1.88,0-1.88-.32-2.24-1.96-2.24h-3.75v4.51h3.57Z"/>
        <path class="st5" d="M1095.05,30.23h6.21v1.88h-6.21v3.75h6.61v2.12h-9.17v-13.32h9.11v2.12h-6.55v3.45Z"/>
        <path class="st5" d="M1110.92,28.55v-.24c0-1.46-.42-1.76-2.48-1.76-2.42,0-2.9.3-2.9,1.82,0,.96.24,1.4.88,1.6.34.1.46.1,2.54.22,2.24.14,3,.28,3.63.74.82.56,1.1,1.34,1.1,3.03s-.24,2.56-.82,3.14c-.8.78-1.82,1-4.59,1-2.42,0-3.23-.14-4.11-.66-.5-.3-.92-.94-1.06-1.64-.12-.58-.14-.98-.16-2.04h2.46c0,1,.06,1.34.28,1.68.32.54.64.6,2.72.6,1.5,0,1.92-.06,2.3-.36.34-.24.48-.76.48-1.68s-.2-1.3-.74-1.48q-.32-.12-2.54-.26c-2.28-.14-2.76-.22-3.43-.54-1.06-.52-1.48-1.48-1.48-3.31,0-1.58.34-2.56,1.06-3.07.82-.62,1.86-.8,4.33-.8s3.57.26,4.23,1c.52.58.76,1.38.76,2.54v.48h-2.46Z"/>
        <path class="st5" d="M1124.66,24.98c1.2.54,1.88,1.5,2.14,3.06.1.6.14,1.38.14,3.15,0,3.19-.12,4.07-.68,5.07-.48.84-1.36,1.42-2.56,1.66-.54.12-1.6.18-2.9.18-1.98,0-2.98-.16-3.79-.6-1.06-.58-1.6-1.44-1.84-2.91-.1-.62-.12-1.26-.12-2.92,0-3.43.14-4.41.76-5.39.5-.78,1.38-1.34,2.48-1.56.52-.12,1.62-.18,2.82-.18,1.9,0,2.78.12,3.55.44ZM1117.65,31.87c0,2.34.1,2.94.58,3.49.38.44.98.54,3.02.54s2.5-.22,2.84-1.18c.24-.66.26-1,.26-3.49,0-2.1,0-2.16-.1-2.78-.12-.78-.44-1.28-.94-1.5-.44-.18-.94-.22-2.44-.22-1.62,0-2.16.1-2.58.52-.44.42-.62,1.12-.64,2.44v2.18Z"/>
        <path class="st5" d="M1131.39,35.74h6.21v2.24h-8.77v-13.32h2.56v11.08Z"/>
        <path class="st5" d="M1149.9,24.66v8.87c0,1.64-.2,2.54-.7,3.19-.4.52-.98.92-1.74,1.14-.52.16-1.56.24-3.1.24-1.96,0-2.86-.1-3.63-.44-1.44-.62-1.9-1.58-1.9-3.99v-9.01h2.56v9.01c0,1.94.4,2.24,3,2.24s2.95-.28,2.95-2.34v-8.91h2.56Z"/>
        <path class="st5" d="M1157.65,37.98h-2.56v-11.08h-3.85v-2.24h10.34v2.24h-3.93v11.08Z"/>
        <path class="st5" d="M1165.5,30.23h6.21v1.88h-6.21v3.75h6.61v2.12h-9.17v-13.32h9.11v2.12h-6.55v3.45Z"/>
      </g>
      <path class="st5" d="M1250.05,30.28l-5.33,1.63-12.38-12.92h0s0,0,0,0h0s-.02-.02-.02-.02l-.03.03h-1.43v-1.51h-.79v1.51h-2.18l-.06-.03v.02s-.01,0-.01,0h0s-1.68,3.36-1.68,3.36l-4.65-5.56h0s0,0,0,0h0s-.01-.02-.01-.02l-.04.03h-2.18v-2.79h-.79v2.79h-2.19l-.05-.03v.02s-.01,0-.01,0h0s-4.95,8.65-4.95,8.65l-.53-2.39h.46v-.34h-.53l-.76-3.41v-.02s0,0,0,0h0s-.02,0-.02,0l-.18.02h0s-1.73,0-1.73,0v-1.81h-.79v1.81h-1.74l-.06-.04-.42,3.45h-.38v.34h.34l-.43,3.52h-1.03v.34h.99l-.96,7.8c-1.07,0-1.69,0-1.69,0,0,0,.82,2.13,1.72,2.13l.52,1.5h29.26l6.34-4.26,10.47-3.64-.05-.15ZM1244.51,31.97l-3.94,1.21-7.79-13.45,11.73,12.24ZM1227.2,22.7h2.87v3.52h-.7l-2.33-2.8.16-.72ZM1230.07,26.55v.5l-.42-.5h.42ZM1229.11,26.22h-2.69l.57-2.55,2.13,2.55ZM1229.39,26.55l.68.82v7.14s-.01,0-.02,0l-3.75-7.78.04-.18h3.05ZM1229.83,34.52c-1.66.1-3.45.17-5.32.2l1.71-7.67,3.61,7.47ZM1227.95,19.33h2.12v3.03h-2.8l.68-3.03ZM1227.63,19.82l-.57,2.55h-.49v.34h.42l-.12.52-.59-.71,1.35-2.7ZM1226.18,22.72l.63.76-.61,2.74h-.16l-.79-1.64.93-1.86ZM1226.04,22.55l-.9,1.8-3.29-6.81,4.19,5.01ZM1225.03,24.57l-5.08,10.15c-.23,0-.46,0-.7,0v-9.37h4.58v-.34h-4.58v-4.41h3.5v-.34h-3.5v-3.14h2.18l3.59,7.45ZM1207.96,34.71v-3.12l2.62-4.58.52,4.47-1.12,3.24c-.7,0-1.38,0-2.02,0ZM1210.42,26.89l-2.46,4.29v-4.29h2.46ZM1211.37,26.89l.51,2.32-.63,1.82-.48-4.15h.6ZM1207.96,26.55v-3.52h2.17l.41,3.52h-2.57ZM1207.17,34.71c-.35,0-.68,0-1,0l1-1.74v1.75ZM1211.15,31.94l.32,2.78c-.44,0-.87,0-1.29,0l.96-2.77ZM1211.31,31.5l.66-1.91,1.14,5.13c-.48,0-.96,0-1.43,0l-.37-3.22ZM1212.1,29.22l3-8.62h3.38v4.41h-4.58v.34h4.58v9.37c-1.75,0-3.49,0-5.15,0l-1.22-5.49ZM1216.3,17.13h2.17v3.14h-3.26l1.09-3.14ZM1215.85,17.82l-.85,2.45h-.02v.07l-2.96,8.51-.43-1.96h.61v-.34h-.69l-.18-.83,4.53-7.9ZM1211.3,26.55h-.46l.33-.57.13.57ZM1211.11,25.69l-.39.68-.39-3.33h.19l.59,2.65ZM1210.44,22.7h-.15l-.17-1.45.32,1.45ZM1210.09,22.7h-2.13v-3.07h1.77l.35,3.07ZM1205.53,19.63h1.64v3.07h-2.02l.38-3.07ZM1205.11,23.04h2.06v3.52h-2.49l.43-3.52ZM1203.68,34.7l.96-7.81h2.53v5.66l-1.23,2.15c-.87,0-1.63,0-2.26,0ZM1220.18,34.73l4.96-9.92.68,1.41h-.34v.34h.5l.1.2-1.78,7.97c-.37,0-.74,0-1.11,0-.99,0-2,0-3.01,0ZM1230.86,34.46v-6.14l4.77,5.72c-1.38.15-2.99.3-4.77.43ZM1239.31,33.56c-.83.12-2,.28-3.44.44l-5.01-6.01v-1.44h3.37v-.34h-3.37v-3.52h2.32v-.34h-2.32v-3.03h1.45l8.06,13.91-1.05.32Z"/>
    </g>
    <g>
      <path class="st18" d="M1094.41,51.68h-1.41v-7.36h1.41v7.36Z"/>
      <path class="st18" d="M1101.66,49.05v.25c0,1.1-.11,1.51-.51,1.89-.23.22-.62.41-1.03.49-.23.03-.88.07-1.53.07-1.27,0-1.61-.06-2.1-.33-.64-.34-.91-.89-.99-1.94-.03-.42-.06-1.32-.06-2,0-1.53.14-2.1.64-2.57.55-.53,1.1-.65,2.89-.65,1.17,0,1.63.1,2.01.42.31.26.5.65.56,1.19.02.18.03.4.04.9h-1.4c-.02-1.18-.15-1.3-1.41-1.3-.94,0-1.35.08-1.57.29-.19.19-.26.45-.29,1.01q-.01.19-.01,1.19c0,2.42.1,2.57,1.68,2.57,1.43,0,1.68-.18,1.68-1.17,0-.07,0-.17-.01-.31h1.4Z"/>
      <path class="st18" d="M1104.01,47.4h3.43v1.04h-3.43v2.07h3.65v1.17h-5.06v-7.36h5.03v1.17h-3.62v1.91Z"/>
      <path class="st18" d="M1115.54,46.47v-.13c0-.81-.23-.97-1.37-.97-1.33,0-1.6.17-1.6,1,0,.53.13.77.49.88.19.06.25.06,1.4.12,1.24.08,1.65.15,2.01.41.45.31.61.74.61,1.68s-.13,1.41-.45,1.73c-.44.43-1,.55-2.54.55-1.33,0-1.79-.08-2.27-.36-.28-.17-.51-.52-.58-.9-.07-.32-.08-.54-.09-1.12h1.36c0,.55.03.74.15.93.18.3.35.33,1.5.33.83,0,1.06-.03,1.27-.2.19-.13.26-.42.26-.93s-.11-.72-.41-.82q-.18-.07-1.4-.14c-1.26-.08-1.52-.12-1.9-.3-.58-.29-.82-.82-.82-1.83,0-.87.19-1.41.58-1.7.45-.34,1.03-.44,2.39-.44s1.97.14,2.34.55c.29.32.42.76.42,1.4v.26h-1.36Z"/>
      <path class="st18" d="M1121.3,48.86v2.81h-1.41v-2.81l-2.65-4.54h1.61l1.11,1.94c.09.15.18.32.47.89l.15.3h.03l.17-.3c.28-.55.36-.69.47-.89l1.12-1.94h1.63l-2.72,4.54Z"/>
      <path class="st18" d="M1128.66,46.47v-.13c0-.81-.23-.97-1.37-.97-1.33,0-1.6.17-1.6,1,0,.53.13.77.49.88.19.06.25.06,1.4.12,1.24.08,1.65.15,2.01.41.45.31.61.74.61,1.68s-.13,1.41-.45,1.73c-.44.43-1,.55-2.54.55-1.33,0-1.79-.08-2.27-.36-.28-.17-.51-.52-.58-.9-.07-.32-.08-.54-.09-1.12h1.36c0,.55.03.74.15.93.18.3.35.33,1.5.33.83,0,1.06-.03,1.27-.2.19-.13.26-.42.26-.93s-.11-.72-.41-.82q-.18-.07-1.4-.14c-1.26-.08-1.52-.12-1.9-.3-.58-.29-.82-.82-.82-1.83,0-.87.19-1.41.58-1.7.45-.34,1.03-.44,2.39-.44s1.97.14,2.34.55c.29.32.42.76.42,1.4v.26h-1.36Z"/>
      <path class="st18" d="M1134.21,51.68h-1.41v-6.12h-2.13v-1.24h5.71v1.24h-2.17v6.12Z"/>
      <path class="st18" d="M1138.54,47.4h3.43v1.04h-3.43v2.07h3.65v1.17h-5.06v-7.36h5.03v1.17h-3.62v1.91Z"/>
      <path class="st18" d="M1151.81,51.68h-1.39v-4.01c0-.53.01-.67.05-1.63l.02-.54h-.04l-.17.51c-.31.96-.39,1.21-.51,1.53l-1.62,4.15h-1.27l-1.63-4.11c-.14-.35-.22-.58-.53-1.53l-.17-.51h-.04l.03.53c.04.93.05,1.16.05,1.61v4.01h-1.39v-7.36h2.27l1.31,3.41c.13.34.21.58.52,1.52l.17.52h.04l.17-.51c.29-.93.37-1.18.5-1.52l1.3-3.42h2.32v7.36Z"/>
      <path class="st18" d="M1157.19,46.47v-.13c0-.81-.23-.97-1.37-.97-1.33,0-1.6.17-1.6,1,0,.53.13.77.49.88.19.06.25.06,1.4.12,1.24.08,1.65.15,2.01.41.45.31.61.74.61,1.68s-.13,1.41-.45,1.73c-.44.43-1,.55-2.54.55-1.33,0-1.79-.08-2.27-.36-.28-.17-.51-.52-.58-.9-.07-.32-.08-.54-.09-1.12h1.36c0,.55.03.74.15.93.18.3.35.33,1.5.33.83,0,1.06-.03,1.27-.2.19-.13.26-.42.26-.93s-.11-.72-.41-.82q-.18-.07-1.4-.14c-1.26-.08-1.52-.12-1.9-.3-.58-.29-.82-.82-.82-1.83,0-.87.19-1.41.58-1.7.45-.34,1.03-.44,2.39-.44s1.97.14,2.34.55c.29.32.42.76.42,1.4v.26h-1.36Z"/>
    </g>
    <path class="st18" d="M1233.89,38.62h-30.12v.81h3.4l-2.81,2.81.57.57,3.38-3.38h2.45l-1.83,1.83.57.57,2.41-2.41h5.96l-5.23,5.23h-4.02v.81h3.21l-1.25,1.25h-4.02v.81h3.21l-2.45,2.45-.99-.99-.57.57.99.99-1.3,1.3.57.57,1.3-1.3.99.99.57-.57-.99-.99,2.45-2.44v3.21h.81v-4.02l1.25-1.25v3.21h.81v-4.02l5.24-5.24v2.77l-2.02,2.02,2.02,2.02v2.73l-3.47,3.46.57.57,2.89-2.89v3.76h-1.8v.81h1.8v.84h-1.24v.81h1.24v1.17h.81v-1.17h1.24v-.81h-1.24v-.84h1.8v-.81h-1.8v-3.76l2.89,2.89.57-.57-3.47-3.46v-2.73l2.02-2.02-2.02-2.02v-2.75l5.22,5.22v4.02h.81v-3.21l1.25,1.25v4.02h.81v-3.21l2.45,2.45-.99.99.57.57.99-.99,1.3,1.3.57-.57-1.3-1.3.99-.99-.57-.57-.99.99-2.45-2.45h3.21v-.81h-4.02l-1.25-1.25h3.21v-.81h-4.02l-5.23-5.23h5.96l2.41,2.41.57-.57-1.83-1.83h2.45l3.38,3.38.57-.57-2.81-2.81h3.36v-.81ZM1217.58,44.79l.88-.88v1.75l-.88-.88ZM1220.14,44.79l-.88.88v-1.75l.88.88Z"/>
  </g>
  <g>
    <g>
      <path class="st20" d="M28.65,145.76c0,3.44-2.4,5.7-6.14,5.7h-6.65c-1.79-.03-2.73-.93-2.73-2.57v-14.23c.02-1.67.97-2.57,2.73-2.57h5.29c4.07,0,6.53,2.02,6.53,5.38,0,1.56-.52,2.69-1.71,3.62,1.77,1.12,2.68,2.71,2.68,4.68ZM21.06,139.69c1.48,0,2.24-.58,2.24-1.71s-.85-1.79-2.24-1.79h-3.23v3.5h3.23ZM21.56,147.44c1.47,0,2.38-.75,2.38-2s-.91-2.03-2.34-2.03h-3.76v4.02h3.73Z"/>
      <path class="st20" d="M35.46,148.68v.49c-.03,1.5-.94,2.49-2.34,2.49s-2.34-1.02-2.34-2.49v-14.52c0-1.67.95-2.57,2.71-2.57h3.68c5.22,0,8.57,2.74,8.57,7.05,0,2.69-1.64,4.74-4.62,5.76l3.46,2.4c.88.61,1.3,1.3,1.3,2.09,0,1.24-.99,2.25-2.31,2.25-.51,0-1.06-.2-1.61-.63l-6.5-5.09v2.78ZM37.19,142.08c2.7,0,4.04-.95,4.04-2.92s-1.31-2.92-4.12-2.92h-1.65v5.84h1.73Z"/>
      <path class="st20" d="M52.27,139.74h5.16c1.31.03,2.16.73,2.16,1.82s-.88,1.85-2.16,1.85h-5.16v3.97h6.64c1.46.03,2.37.81,2.37,2.05s-.94,2.02-2.37,2.02h-8.63c-1.75-.03-2.7-.93-2.7-2.57v-14.23c0-1.67.95-2.57,2.7-2.57h8.48c1.46.03,2.38.81,2.38,2.02s-.97,2.05-2.38,2.05h-6.49v3.59Z"/>
      <path class="st20" d="M76.82,133.85c.52-1.36,1.19-1.97,2.27-1.97s1.97.72,2.28,1.97l3.68,14.28.12.49c.1.26.12.55.12.84,0,1.18-1.03,2.14-2.31,2.14-1.19,0-2.03-.7-2.33-1.94l-.13-.46-2.01-7.78-2.7,8.3c-.46,1.36-1.07,1.9-2.13,1.9s-1.73-.63-2.16-1.9l-2.67-8.3-1.94,7.75-.12.5c-.34,1.26-1.15,1.94-2.34,1.94-1.28,0-2.28-.96-2.28-2.17,0-.26.03-.52.09-.78l.12-.49,3.57-14.43c.27-1.13,1.12-1.85,2.21-1.85s1.73.58,2.18,1.71l3.31,8.64,3.16-8.38Z"/>
      <path class="st20" d="M91.66,148.16l-.64,1.39-.21.47c-.52,1.06-1.24,1.56-2.25,1.56-1.27,0-2.33-.95-2.33-2.11,0-.4.09-.84.3-1.24l.21-.46,6.75-14.38c.42-.89,1.19-1.38,2.21-1.38s1.83.51,2.25,1.38l6.92,14.32c.09.23.19.38.21.46.22.46.31.9.31,1.3,0,1.16-1.1,2.14-2.38,2.14-.99,0-1.75-.52-2.27-1.56l-.21-.47-.7-1.42h-8.17ZM95.72,138.73l-2.4,5.58h4.89l-2.5-5.58Z"/>
    </g>
    <path class="st20" d="M118.51,141.76v-.02c0-10.75-8.34-19.56-19-20.06H19.01c-10.66.5-19.01,9.31-19.01,20.06v.05c0,10.75,8.35,19.56,19.01,20.06h80.49c10.67-.5,19.01-9.31,19.01-20.06,0,0,0-.02,0-.03ZM110.48,153.89c-2.97,2.97-6.84,4.66-10.98,4.89l-80.48.03c-4.18-.21-7.99-1.92-10.99-4.92-3.23-3.23-5.01-7.54-5.02-12.12,0-4.59,1.79-8.89,5.02-12.12,3.19-3.19,7.41-4.94,11.91-4.94h78.63c4.49,0,8.71,1.75,11.91,4.94,3.23,3.23,5.01,7.53,5.01,12.12,0,4.58-1.78,8.89-5.01,12.12Z"/>
  </g>
  <g>
    <g>
      <path class="st23" d="M790.7,170.84c-.24-.03-.45-.08-.67-.09-2.29-.17-4.51-.67-6.67-1.44-1.81-.65-3.52-1.52-5.16-2.54-1.74-1.08-3.29-2.37-4.71-3.83-1.34-1.39-2.48-2.93-3.49-4.57-.89-1.44-1.61-2.96-2.18-4.56-.04-.13-.1-.25-.15-.37-.02-.04-.02-.08-.04-.16.11,0,.21,0,.31,0,1.59,0,3.18,0,4.76,0,.81,0,1.42-.3,1.81-1.02.02-.03.04-.05.08-.1.24.62.67,1,1.31,1.1.17.03.36.01.54.01,1.75,0,3.5-.02,5.25,0,1.04.02,1.6-.51,1.87-1.42,0-.03.02-.06.02-.08.13.26.22.54.39.78.33.48.81.72,1.39.72,1.91,0,3.82,0,5.73,0,.42,0,.78-.15,1.15-.48,0,.17,0,.29,0,.41-.03,1.11-.05,2.22-.08,3.33-.02.88-.05,1.75-.05,2.63,0,1.12.81,1.92,1.93,1.92,1.87,0,3.75,0,5.62,0,.7,0,1.18-.35,1.49-.96.28-.56.39-1.18.38-1.8,0-1.05-.07-2.09-.1-3.14-.01-.5,0-1,0-1.53,3.7-.28,6.73-1.71,8.67-5.06,1.51,2.57,3.7,4.14,6.59,4.82-.18.47-.32.94-.53,1.38-.46.98-.9,1.97-1.43,2.91-.84,1.51-1.85,2.91-2.97,4.22-1.36,1.59-2.9,2.99-4.62,4.18-1.39.96-2.86,1.79-4.41,2.47-1.91.85-3.9,1.48-5.96,1.82-1.03.17-2.08.25-3.13.39-.98.02-1.95.02-2.94.02Z"/>
      <path class="st23" d="M793.83,119.49c.26.03.49.07.72.09,2.33.19,4.59.73,6.78,1.54,1.76.66,3.42,1.52,5.02,2.52,1.33.84,2.53,1.83,3.68,2.9,1.46,1.37,2.75,2.88,3.84,4.56.76,1.18,1.43,2.41,2,3.71-2.36.8-4.32,2.13-5.57,4.3-.44-.59-.85-1.2-1.31-1.76-.65-.79-1.51-1.31-2.43-1.72-1.45-.64-2.99-.86-4.55-.88-2.64-.03-5.27,0-7.91-.04-1.13-.02-2.1.86-2,2.17.02.29.03.59.04.92-.27-.35-.5-.68-.76-.98-.81-.91-1.8-1.5-2.98-1.8-.92-.23-1.86-.29-2.79-.3-.97-.01-1.93,0-2.9.03-.77.03-1.49.27-2.19.57-.12.05-.3.06-.43.02-1.23-.44-2.51-.64-3.81-.68-.43-.02-.86.06-1.29.06-2.08,0-4.16,0-6.24,0-.05,0-.11,0-.16,0,2.9-7.06,10.79-14.48,21.94-15.22,1.11-.02,2.2-.02,3.32-.02Z"/>
      <path class="st3" d="M721.51,129.47c2.26-.03,4.52-.03,6.8-.03v7.96c.72.02,1.33-.18,1.86-.65.63-.56,1.02-1.29,1.38-2.02.64-1.33,1.24-2.68,1.85-4.03.17-.37.33-.75.5-1.12.03-.06.14-.13.22-.13,1.7,0,3.41,0,5.12,0-.25.43-.53.83-.74,1.26-.37.75-.7,1.52-1.05,2.28-.51,1.1-.97,2.22-1.53,3.29-.47.9-.96,1.82-1.76,2.5-.34.29-.71.54-1.06.8.39.17.79.33,1.19.52.98.48,1.69,1.24,2.18,2.2.58,1.13.99,2.33,1.35,3.54.31,1.06.59,2.13.92,3.19.21.68.49,1.34.73,2,.04.1.07.2.11.31h-7.04c-.11-.46-.21-.92-.33-1.39-.43-1.73-.84-3.47-1.33-5.18-.19-.67-.54-1.32-.9-1.93-.35-.59-.93-.89-1.66-.89v9.39c-2.27,0-4.52,0-6.79,0-.03-1.1-.03-2.19,0-3.32.04-1.5.09-2.97.08-4.44,0-3.79-.03-7.58-.05-11.38,0-.06-.03-.12-.05-.18,0-.84,0-1.69,0-2.56Z"/>
      <path class="st4" d="M779.43,151.45h-3.19c0-.47,0-.92,0-1.38,0-1.66.02-3.33.01-4.99,0-.81-.03-1.63-.1-2.44-.09-1.06-.45-2-1.41-2.61-.56-.35-1.17-.47-1.84-.47-.19,3.96-.19,7.91,0,11.87h-5.73c.19-4.96.21-9.91,0-14.9.12,0,.22,0,.31,0,2.96,0,5.92,0,8.88,0,.95,0,1.9.03,2.8.4.41.17.79.4,1.21.62.59-.5,1.3-.84,2.11-.97.11-.02.23-.04.35-.04,1.53.01,3.07-.12,4.59.13,1.46.24,2.59.99,3.23,2.37.34.74.41,1.54.4,2.34-.02,2.22-.07,4.44-.08,6.66,0,1.13.06,2.25.09,3.4h-5.63c0-.72,0-1.43,0-2.15,0-.35.03-.7.03-1.05,0-.9.02-1.79-.01-2.69-.04-1.13-.07-2.27-.22-3.39-.16-1.2-.84-2.08-2.04-2.44-.4-.12-.84-.13-1.29-.2-.1,4.01-.22,7.96,0,11.94h-2.48Z"/>
      <path class="st3" d="M835.91,143.21c.03.73.03,1.44.09,2.14.08.98.39,1.87,1.21,2.5.6.47,1.29.64,2.1.65v-11.95h5.57v14.88h-.26c-2.56,0-5.11,0-7.67,0-.69,0-1.38.01-2.07-.03-.91-.05-1.79-.21-2.59-.68-.49-.29-.88-.7-1.24-1.13-.64-.75-.76-1.66-.77-2.58-.01-1.63.06-3.26.06-4.88,0-1.8-.06-3.6-.09-5.4,0-.05,0-.11,0-.17h5.66v6.66Z"/>
      <path class="st4" d="M850.85,143.82c.69-1.42,1.37-2.82,2.08-4.26-1.85-.11-3.67-.16-5.51,0,.26-1.01.51-2.01.77-3.01h11.65c-1.98,3.81-3.97,7.62-5.97,11.48h6.43c-.37,1.15-.73,2.29-1.1,3.42h-12.36c1.34-2.54,2.68-5.08,4.02-7.63Z"/>
      <path class="st4" d="M745.3,151.45h-4.34c.05-2.5.14-4.98.14-7.47,0-2.48-.08-4.95-.13-7.44h5.67v1.5c.42-.6.91-1.01,1.49-1.32.75-.39,1.53-.68,2.41-.55.17.02.23.07.22.25-.05.92-.1,1.84-.14,2.76-.05.88-.1,1.76-.15,2.67-.22-.13-.4-.26-.6-.37-.69-.4-1.44-.42-2.21-.34-.3.03-.6.1-.9.14-.14.02-.19.08-.19.23-.02,1.08-.07,2.17-.06,3.25.02,1.89.08,3.78.12,5.66,0,.33,0,.66,0,1.02h-1.31Z"/>
      <path class="st3" d="M808.51,139.83c-.79-1.48-2.03-2.41-3.63-2.88-1.18-.35-2.39-.4-3.61-.41-2.34,0-4.68,0-7.02,0h-.31c0,.19.02.35.02.51.04,1.57.08,3.15.11,4.72.03,1.4.06,2.8.05,4.19-.03,3.67-.08,7.34-.12,11.04v2.25h5.66c-.07-2.45-.15-4.88,0-7.28.9-.08,1.77-.13,2.64-.24,1.58-.2,3.05-.73,4.3-1.75.51-.41,1.01-.83,1.38-1.39.68-1.04,1.12-2.16,1.33-3.38.33-1.88.09-3.69-.81-5.38ZM803.44,144.94c-.09.56-.28,1.1-.43,1.65,0,0,0,0,0,0,0,0,0,0,0,.01-.57,1.24-1.48,2.06-2.79,2.41-.18.05-.36.07-.56.1v-10.3c.52-.03,1.02.04,1.5.25,1.25.54,1.93,1.51,2.18,2.84.19,1.01.28,2.02.11,3.04Z"/>
      <path class="st4" d="M827.18,140.32c-.41-.86-.93-1.62-1.66-2.24-1.22-1.04-2.65-1.61-4.22-1.83-2.23-.32-4.4-.12-6.44.95-.99.52-1.83,1.21-2.5,2.1-.89,1.18-1.39,2.5-1.51,4-.05.76-.04,1.49.11,2.22.37,1.8,1.17,3.34,2.65,4.5,1.45,1.14,3.11,1.68,4.91,1.88,1.36.15,2.69.02,4-.36,1.45-.42,2.67-1.21,3.67-2.3,1.36-1.48,1.9-3.29,1.83-5.29-.04-1.27-.31-2.47-.86-3.62ZM821.53,144.14c.03,1.09-.09,2.14-.39,3.15-.1.36-.27.69-.43,1.03-.47.99-1.96,1.06-2.6.03-.36-.58-.54-1.22-.66-1.88-.31-1.81-.31-3.61.19-5.39.17-.61.42-1.2.9-1.65.77-.73,1.69-.43,2.11.34.26.49.48,1.03.57,1.57.16.91.21,1.84.3,2.77,0,0,0,.02,0,.02,0,0,0,0,0,0Z"/>
      <path class="st4" d="M764.63,148.68c0-1.57.04-3.13.05-4.7,0-1.22.03-2.43-.02-3.65-.03-.69-.21-1.36-.57-1.96-.64-1.05-1.62-1.6-2.78-1.89-1.86-.47-3.74-.43-5.62-.2-.56.07-1.12.15-1.67.23-.61.09-1.21.19-1.83.28-.08.95-.15,1.86-.23,2.8.66-.08,1.29-.13,1.91-.25.86-.16,1.7-.18,2.55.02.71.16,1.41.35,1.94.9.48.5.73,1.08.66,1.8-.16,0-.31,0-.45,0-1.21.05-2.42.05-3.62.17-1.88.18-3.39,1.04-4.15,2.83-.65,1.53-.69,3.09.42,4.49.53.67,1.22,1.12,2.01,1.41,1.08.4,2.21.5,3.35.5,2.66.02,5.33,0,8.02,0,.06-.08.12-.15.12-.23-.03-.85-.1-1.7-.1-2.55ZM758.9,148.78s0,0-.01,0c0,0,0,.01,0,.02-.93.11-1.8-.44-2.11-1.31-.31-.85-.01-1.88.74-2.32.34-.2.76-.27,1.16-.37.18-.05.25.06.24.25,0,1.25,0,2.49,0,3.74Z"/>
    </g>
    <path d="M863,139.58c-.31.32-.7.47-1.14.47s-.83-.16-1.14-.47c-.31-.31-.47-.7-.47-1.14s.16-.82.47-1.14c.31-.31.69-.47,1.14-.47s.83.16,1.14.47.47.69.47,1.14-.16.83-.47,1.14ZM860.88,137.45c-.27.27-.4.6-.4.98s.13.72.4.99c.27.27.6.41.98.41s.71-.14.98-.41c.27-.27.4-.6.4-.99s-.13-.71-.4-.98c-.27-.27-.6-.41-.98-.41s-.71.14-.98.41ZM861.83,137.54c.22,0,.38.02.48.06.18.08.27.23.27.45,0,.16-.06.28-.17.35-.06.04-.15.07-.26.09.14.02.24.08.3.17.06.09.1.18.1.27v.13s0,.08,0,.13,0,.08.02.09v.02s-.28,0-.28,0v-.02s0-.01,0-.02v-.06s0-.14,0-.14c0-.2-.06-.34-.17-.41-.07-.04-.18-.06-.35-.06h-.25v.7h-.31v-1.77h.62ZM862.17,137.82c-.08-.04-.2-.07-.38-.07h-.27v.64h.28c.13,0,.23-.01.3-.04.12-.05.18-.14.18-.28s-.04-.22-.12-.26Z"/>
  </g>
</svg>