<?xml version="1.0" encoding="UTF-8"?>
<svg id="Layer_1" xmlns="http://www.w3.org/2000/svg" version="1.1" viewBox="0 0 171.53 52.23">
  <!-- Generator: Adobe Illustrator 29.5.1, SVG Export Plug-In . SVG Version: 2.1.0 Build 141)  -->
  <path d="M89.07,21.66c-.75-3.87.57-8.21,2.99-11.27-.18.47-.4.91-.59,1.36-1.35,3.15-2.22,6.48-2.41,9.9h0Z"/>
  <path d="M82.45,20.79c-.72-2.48-.14-5.4,1.28-7.53.21-.31.45-.6.69-.88-.07.17-.15.34-.23.51-1.19,2.46-1.9,5.16-1.74,7.91h0Z"/>
  <path d="M77.32,13.22c-1.11,2.52-1.98,5.29-1.28,8.04-1.44-2.51-.34-5.87,1.28-8.04h0Z"/>
  <path d="M85.76,3.52c4.64-1.54,9.42-2.69,14.28-3.31,3.09-.41,6.44-.38,9.07,1.61,2.25,1.65,3.79,4.6,3.39,7.46-.62,4.14-4.42,6.82-8.48,6.51-2.07-.04-4.04-1.23-5.27-2.83,1.58,1.15,3.47,1.82,5.21,1.48,1.73-.25,3.35-1.01,4.42-2.36.83-1.06,1.46-2.39,1.52-3.74-.01-1.8-.69-3.66-2.1-4.91-2.86-2.47-7-1.85-10.52-1.6-3.86.37-7.69,1.03-11.52,1.67h0Z"/>
  <path d="M80.31,3.63c-1.38-.28-2.77-.41-4.17-.48-2-.16-4.17.17-5.76,1.44-.76.63-1.43,1.38-1.52,2.33.04.56.08,1.15.38,1.68.58.98,1.65,1.86,2.87,2.35,1.27.51,2.68.47,4.04.46,1.4-.03,2.8-.14,4.2-.27,1.4-.14,2.79-.29,4.18-.51-2.76.56-5.54,1-8.35,1.27-1.07.1-2.14.2-3.22.14-1.94-.14-3.84-.82-5.23-2.28-.7-.74-1.31-1.76-1.15-2.85.33-2.55,2.99-3.93,5.27-4.2.74-.1,1.48-.12,2.19-.08,2.13.03,4.26.29,6.27,1h0Z"/>
  <path d="M93.27,24.33c-2.16-.63-4.53-1.21-7.52-1.68-2.85-.45-5.63-.78-8.55-.54-1.43.13-3.66.19-3.46,2.09.32,1.63,2.33,1.2,3.48,1.08-.68-.08-1.79-.4-1.82-.84-.02-.27.17-.4.21-.43.6-.46,1.52-.71,2.26-.83,3.68-.59,10,.4,15.32,1.56l.09-.4Z"/>
  <path d="M98.29,8.48c-.02.06-2.36,6-4.08,16.49.78.18,1.52.36,2.19.53-.23-.77-.63-2.65-.46-6.04.13-2.49,2.35-10.98,2.35-10.98Z"/>
  <g>
    <path d="M4.74,41.02c1.09,4.19,4.42,6.88,8.29,6.88,2.96,0,5.74-1.55,7.2-4.24h4.74c-1.96,5.2-6.7,8.57-12.12,8.57-7.11,0-12.85-6.29-12.85-13.03,0-7.98,6.02-13.54,12.72-13.54,7.43,0,13.08,5.74,13.08,12.99,0,.77,0,1.5-.14,2.37H4.74ZM21.06,37.37c-.36-4.28-4.15-7.38-8.2-7.38s-7.75,3.05-8.11,7.38h16.32Z"/>
    <path d="M48.31,51.59v-2.73h-.09c-1.23,2.14-4.1,3.37-7.43,3.37-5.42,0-10.53-2.92-10.53-11.8v-14.08h4.74v13.72c0,5.29,1.96,7.84,6.29,7.84s6.61-3.05,6.61-7.93v-13.63h4.74v25.25h-4.33Z"/>
    <path d="M58.52,51.59v-25.25h4.42v2.28h.09c1.14-1.69,3.1-2.78,6.43-2.96v4.88c-4.1.14-6.2,2.64-6.2,6.88v14.17h-4.74Z"/>
    <path d="M84.63,52.23c-7.11,0-13.44-6.06-13.44-13.17,0-7.7,6.06-13.4,13.81-13.4,6.97,0,13.54,5.47,13.44,13.49-.09,6.75-5.74,13.08-13.81,13.08ZM84.77,29.99c-4.74,0-8.84,4.01-8.84,8.93s3.96,8.98,8.75,8.98,9.02-3.92,9.02-9.02-3.96-8.89-8.93-8.89Z"/>
    <path d="M123.87,51.59v-3.6h-.09c-1.96,2.73-5.24,4.24-8.93,4.24-7.34,0-13.13-5.56-13.13-12.99s5.47-13.58,12.99-13.58c3.42,0,6.65,1.23,8.7,3.78h.09v-11.58h4.74v33.73h-4.38ZM115.07,29.99c-4.83,0-8.61,4.06-8.61,9.02s3.87,8.89,8.61,8.89,8.8-3.92,8.8-8.7c0-5.15-3.46-9.21-8.8-9.21Z"/>
    <path d="M134.12,23.43v-5.56h4.74v5.56h-4.74ZM134.12,51.59v-25.25h4.74v25.25h-4.74Z"/>
    <path d="M144.97,51.59V17.87h4.74v11.99h.09c2.05-2.78,5.24-4.19,8.66-4.19,7.16,0,13.08,6.02,13.08,13.31s-5.56,13.26-12.67,13.26c-3.65,0-7.02-1.46-9.11-4.28h-.09v3.65h-4.69ZM166.8,38.97c0-4.79-3.78-8.98-8.66-8.98s-8.57,4.1-8.57,8.89,3.78,9.02,8.61,9.02,8.61-4.01,8.61-8.93Z"/>
  </g>
</svg>