<?xml version="1.0" encoding="UTF-8"?>
<svg id="Layer_1" xmlns="http://www.w3.org/2000/svg" version="1.1" viewBox="0 0 113.95 57.57">
  <!-- Generator: Adobe Illustrator 29.5.1, SVG Export Plug-In . SVG Version: 2.1.0 Build 141)  -->
  <defs>
    <style>
      .st0 {
        fill: #ffc908;
      }

      .st1 {
        fill: #1e3364;
      }
    </style>
  </defs>
  <path class="st0" d="M61.31,33.74c.31-1.34.55-2.71.69-4.09-1.23-.27-2.45-.52-3.69-.76.07-.79.11-1.59.11-2.4,0-.02,0-.05,0-.08h-4.78s0,.05,0,.08c0,12.46-10.1,22.56-22.56,22.56s-22.56-10.1-22.56-22.56c0-9.02,5.3-16.8,12.94-20.41l-2.02-4.33c-.8.37-1.57.79-2.33,1.24-.75-1.01-1.51-2-2.29-2.99-1.17.74-2.32,1.52-3.38,2.41.68,1.06,1.37,2.11,2.07,3.14-.7.59-1.37,1.21-2,1.86-.98-.78-1.98-1.54-2.98-2.3-.97.99-1.82,2.08-2.65,3.19.93.85,1.87,1.69,2.81,2.51-.52.75-1.01,1.52-1.46,2.32-1.15-.5-2.31-.98-3.48-1.45-.66,1.22-1.25,2.47-1.73,3.77,1.11.58,2.23,1.15,3.36,1.69-.31.85-.58,1.73-.81,2.61-1.24-.18-2.49-.35-3.73-.49-.31,1.35-.55,2.71-.69,4.09,1.23.27,2.45.52,3.69.76-.07.79-.11,1.58-.11,2.39,0,.12,0,.23,0,.34-1.25.15-2.49.31-3.73.49.02,1.38.18,2.76.38,4.13,1.25-.05,2.51-.12,3.76-.21.16.91.36,1.8.61,2.67-1.16.46-2.33.94-3.48,1.43.38,1.33.88,2.63,1.44,3.89,1.2-.38,2.39-.77,3.58-1.18.39.83.81,1.64,1.28,2.42-1.01.75-2.01,1.51-2.99,2.29.74,1.17,1.52,2.31,2.4,3.38,1.06-.68,2.11-1.37,3.15-2.07.59.7,1.21,1.37,1.86,2-.78.98-1.54,1.98-2.29,2.99.99.96,2.08,1.82,3.18,2.65.85-.93,1.69-1.87,2.51-2.81.74.52,1.52,1.01,2.32,1.46-.5,1.15-.98,2.31-1.45,3.48,1.22.66,2.47,1.25,3.77,1.73.58-1.12,1.15-2.23,1.69-3.36.85.31,1.72.58,2.61.8-.18,1.25-.35,2.49-.49,3.73,1.35.31,2.71.56,4.09.69.27-1.23.52-2.45.76-3.69.79.07,1.59.11,2.39.11.11,0,.23,0,.34,0,.15,1.24.31,2.49.49,3.73,1.38-.02,2.76-.18,4.13-.38-.05-1.25-.12-2.51-.21-3.76.91-.16,1.8-.36,2.67-.61.46,1.17.94,2.33,1.43,3.48,1.33-.38,2.63-.88,3.89-1.44-.38-1.2-.77-2.39-1.18-3.58.83-.39,1.64-.81,2.42-1.28.75,1.01,1.51,2,2.29,2.99,1.17-.73,2.32-1.52,3.38-2.4-.67-1.06-1.36-2.11-2.07-3.15.7-.59,1.37-1.21,2.01-1.86.98.78,1.98,1.54,2.98,2.29.97-.99,1.83-2.08,2.65-3.18-.93-.85-1.86-1.69-2.81-2.51.53-.75,1.01-1.52,1.46-2.32,1.15.5,2.31.98,3.48,1.45.65-1.22,1.25-2.47,1.73-3.77-1.12-.58-2.23-1.14-3.36-1.7.31-.85.58-1.72.8-2.61,1.25.18,2.49.35,3.74.49Z"/>
  <g>
    <g>
      <g>
        <path class="st1" d="M36.22,9.66h-1.43c-2.03,0-3.44,1.5-3.44,3.6s1.26,3.59,3.44,3.59h1.43v2.37h-1.98c-3.2,0-5.52-2.69-5.52-5.96s2.32-5.96,5.52-5.96h1.98v2.37Z"/>
        <path class="st1" d="M43.3,7.09c-3.39,0-6.07,2.83-6.07,6.17s2.68,6.17,6.07,6.17,6.06-2.83,6.06-6.17-2.67-6.17-6.06-6.17ZM43.3,16.97c-2.06,0-3.63-1.69-3.63-3.71s1.57-3.71,3.63-3.71,3.63,1.69,3.63,3.71-1.57,3.71-3.63,3.71Z"/>
        <path class="st1" d="M53.31,19.22h-2.55v-8.28c0-2.08,1.36-3.65,3.53-3.65h2.64v2.35h-2.16c-.78,0-1.52.43-1.52,1.43v1.31h3.66v2.41h-3.61v4.43Z"/>
        <path class="st1" d="M58.45,19.22v-7.72c0-2.83,1.36-4.41,3.92-4.41,2.35,0,3.99,1.3,3.99,3.54,0,1.48-.68,2.32-2.03,2.45v.04c1.07.24,2.21.52,2.21,2.29v3.81h-2.55v-3.61c0-.82-.39-1.16-2.23-1.16v-2.16c1.89,0,2.16-.84,1.98-1.86-.11-.66-.95-.97-1.44-.94-.74.06-1.34.44-1.34,1.63v8.1h-2.51Z"/>
        <path class="st1" d="M70.75,19.22h-2.54V7.3h2.54v11.93Z"/>
        <path class="st1" d="M101.43,19.22h-2.12c-3,0-3.63-1.09-3.63-3.85V7.3h2.49v7.8c0,.97.19,1.68,1.38,1.68h1.89v2.44Z"/>
        <path class="st1" d="M108.09,19.22h-2.12c-3.01,0-3.64-1.09-3.64-3.85V7.3h2.49v7.8c0,.97.19,1.68,1.39,1.68h1.89v2.44Z"/>
        <path class="st1" d="M84.64,9.69c-.18-1.74-.97-2.59-2.28-2.59-1.23,0-1.86.68-2.09,2.18l-1.21,5.74h-.09l-1.21-5.74c-.23-1.5-.86-2.18-2.09-2.18-1.31,0-2.09.85-2.27,2.59l-1,9.54h2.5l.89-9.44h.14l1.66,8.09c.18.92.5,1.57,1.43,1.56,0,0,0,0,0,0,0,0,0,0,0,0,.93.01,1.25-.64,1.43-1.56l1.66-8.09h.14l.89,9.44h2.5l-1-9.54Z"/>
        <path class="st1" d="M93.79,9.53v-2.24h-1.69c-3.2,0-5.45,2.66-5.45,5.97h0c0,3.31,2.25,5.96,5.45,5.96h1.69v-2.24c-3.97.22-4.44-1.46-4.55-2.65h4.55v-2.16h-4.55c.11-1.19.58-2.87,4.55-2.65Z"/>
      </g>
      <path class="st1" d="M113.48,13.26h-.47c0,2.4-.97,4.57-2.54,6.14-1.57,1.57-3.74,2.54-6.14,2.54H32.48c-2.4,0-4.57-.97-6.14-2.54-1.57-1.57-2.54-3.74-2.54-6.14s.97-4.57,2.54-6.14c1.57-1.57,3.74-2.55,6.14-2.55h71.85c2.4,0,4.57.97,6.14,2.55,1.57,1.57,2.54,3.74,2.54,6.14h.94c0-5.32-4.31-9.62-9.62-9.62H32.48c-5.32,0-9.63,4.31-9.63,9.62s4.31,9.62,9.63,9.62h71.85c5.32,0,9.62-4.31,9.62-9.62h-.47Z"/>
    </g>
    <polygon class="st1" points="26.07 28.61 22.54 26.6 26.13 24.5 29.67 26.6 26.07 28.61"/>
    <g>
      <polygon class="st1" points="30.42 32.02 26.9 34.05 26.9 29.89 30.42 27.86 30.42 32.02"/>
      <polygon class="st1" points="32.04 32.02 35.56 34.05 35.56 29.89 32.04 27.86 32.04 32.02"/>
    </g>
    <polygon class="st1" points="48.57 34.49 45.01 32.23 47.33 30.36 48.25 29.61 47.23 29.02 45.19 27.82 44.79 27.59 44.38 27.81 40.93 29.74 39.33 28.8 41.96 27.34 43.18 26.61 41.54 26.61 37.68 28.79 40.92 30.68 44.78 28.53 46.82 29.72 43.62 32.31 48.14 35.18 47.04 37.05 42.32 34.51 41.64 38.56 39.6 37.37 39.59 32.95 36.36 31.06 36.36 31.59 36.37 35.48 32.54 33.24 32.54 36.97 36.35 39.22 36.35 41.58 32.5 40.12 32.3 45.47 30.15 45.47 29.95 40.12 26.1 41.58 26.1 39.22 29.91 36.97 29.91 33.25 26.1 35.48 26.1 35.28 26.1 31.06 22.88 32.95 22.87 37.37 20.83 38.56 20.14 34.51 15.43 37.05 14.33 35.18 18.85 32.31 15.65 29.72 17.69 28.53 21.55 30.68 24.78 28.79 22.64 27.59 20.91 26.61 20.92 26.6 20.91 26.6 22.62 25.63 24.72 24.37 21.44 22.57 17.64 24.82 15.57 23.68 18.7 21.01 14.11 18.26 15.15 16.37 19.93 18.78 19.93 18.77 19.28 17.54 15.51 15.64 14.81 15.29 14.43 15.98 13.39 17.87 13.01 18.56 13.68 18.96 17.31 21.13 15.04 23.06 14.14 23.83 15.18 24.4 17.24 25.54 17.65 25.76 18.06 25.52 21.45 23.51 23.08 24.4 22.2 24.92 20.5 25.92 19.28 26.6 20.54 27.34 22.24 28.3 23.14 28.8 21.54 29.74 18.09 27.81 17.68 27.59 17.27 27.82 15.24 29.02 14.22 29.61 15.14 30.36 17.45 32.23 13.9 34.49 13.23 34.91 13.63 35.59 14.72 37.46 15.12 38.13 15.81 37.76 19.53 35.77 20.02 38.7 20.22 39.87 21.24 39.27 23.28 38.08 23.68 37.84 23.69 37.37 23.69 33.42 25.28 32.49 25.28 35.28 25.28 35.48 25.28 36.91 26.51 36.18 29.09 34.67 29.09 36.5 25.68 38.51 25.28 38.75 25.28 42.76 26.39 42.34 29.17 41.29 29.33 45.5 29.35 46.29 33.09 46.29 33.12 45.5 33.27 41.29 36.06 42.34 37.16 42.76 37.16 38.75 36.76 38.51 33.36 36.5 33.36 34.66 35.96 36.18 37.19 36.91 37.19 35.48 37.18 32.48 38.77 33.42 38.78 37.37 38.79 37.84 39.19 38.08 41.22 39.27 42.25 39.87 42.44 38.7 42.94 35.77 46.66 37.76 47.35 38.13 47.75 37.46 48.84 35.59 49.24 34.91 48.57 34.49"/>
    <polygon class="st1" points="36.4 28.61 39.91 26.61 32.83 26.61 36.4 28.61"/>
  </g>
</svg>