<?xml version="1.0" encoding="UTF-8"?>
<svg id="Layer_1" xmlns="http://www.w3.org/2000/svg" version="1.1" viewBox="0 0 210.61 29.28">
  <!-- Generator: Adobe Illustrator 29.5.1, SVG Export Plug-In . SVG Version: 2.1.0 Build 141)  -->
  <defs>
    <style>
      .st0 {
        fill: #575756;
      }

      .st1 {
        fill: #bf2026;
      }

      .st2 {
        fill: #ececec;
      }
    </style>
  </defs>
  <polygon class="st0" points="87.09 8.94 86.12 8.94 81.54 24.1 76.74 24.1 71.9 8.94 71.07 8.94 71.07 5.12 78.71 5.12 78.71 8.94 77.69 8.94 80.23 16.95 82.63 8.94 81.75 8.94 81.75 5.12 87.09 5.12 87.09 8.94"/>
  <path class="st0" d="M94.88,24.11h-7.64v-3.79h.97v-6.07h-.97v-3.79h6.53v9.87h1.12v3.79ZM93.71,7.05c0,.76-.34,1.34-1.02,1.74-.54.32-1.17.49-1.9.49s-1.35-.15-1.88-.46c-.68-.4-1.02-.99-1.02-1.77s.33-1.37,1-1.77c.54-.32,1.17-.49,1.9-.49s1.36.16,1.9.49c.68.4,1.02.99,1.02,1.77"/>
  <path class="st0" d="M107.56,20.14c0,1.39-.47,2.47-1.4,3.25-.84.7-1.86,1.05-3.06,1.05-.65,0-1.27-.1-1.85-.28-.59-.19-1.21-.49-1.88-.88v.83h-3.58v-4.59h3.58c.52,1.35,1.39,2.02,2.59,2.02.28,0,.55-.08.8-.23.24-.15.37-.39.37-.71,0-.55-.64-.99-1.92-1.31-1.88-.46-3.09-.84-3.61-1.14-1.3-.74-1.95-1.91-1.95-3.51,0-1.43.49-2.55,1.47-3.36.89-.74,1.95-1.11,3.18-1.11.65,0,1.23.09,1.76.28.52.19,1.13.49,1.83.91v-.91h3.32v4.33h-3.51c-.55-1.16-1.34-1.74-2.35-1.74-.27,0-.52.05-.75.14-.23.09-.4.26-.51.48-.05.12-.07.21-.07.29,0,.13,0,.22.02.26.02.04.03.06.05.06.22.42,1.01.8,2.35,1.14,1.65.42,2.78.84,3.4,1.26,1.16.76,1.73,1.92,1.73,3.48"/>
  <polygon class="st0" points="123.06 14.24 121.99 14.24 117.88 24.11 113.23 24.11 108.84 14.24 107.72 14.24 107.72 10.45 115.91 10.45 115.91 14.24 114.94 14.24 116.65 18.43 118.26 14.24 117.29 14.24 117.29 10.45 123.06 10.45 123.06 14.24"/>
  <path class="st0" d="M131.68,20.71v-1.82c-.19-.09-.33-.16-.4-.2-.28-.15-.53-.25-.74-.28-.44,0-.84.15-1.2.46-.36.3-.53.7-.53,1.2s.12.87.35,1.12c.23.26.56.39,1.01.39.27,0,.51-.07.74-.21.22-.14.48-.36.78-.64M138.35,24.11h-6.67v-.91c-.7.44-1.34.76-1.94.97-.59.21-1.25.31-1.96.31-1.17,0-2.18-.34-3.04-1.03-.98-.78-1.47-1.84-1.47-3.19,0-1.44.55-2.58,1.66-3.39.96-.7,2.08-1.06,3.35-1.06.6,0,1.17.05,1.71.14.21.04.77.17,1.69.4,0-1.14-.08-1.93-.24-2.37-.27-.72-.81-1.08-1.64-1.08-.48,0-.88.14-1.22.41-.34.28-.62.69-.84,1.24l-4.23-.12c.14-1.75.94-2.95,2.4-3.62.95-.44,2.33-.66,4.15-.66,2.14,0,3.72.25,4.75.74,1.63.78,2.45,2.23,2.45,4.36v5.05h1.09v3.79Z"/>
  <path class="st0" d="M150.13,16.21c-.55-.36-1.16-.54-1.83-.54-.89,0-1.57.3-2.07.88-.49.59-.74,1.43-.74,2.51v1.26h1.28v3.79h-7.77v-3.79h.97v-6.07h-.97v-3.79h6.2v3.34c.68-1.23,1.19-2.05,1.52-2.45.68-.8,1.45-1.2,2.3-1.2.3,0,.67.05,1.09.14v5.93Z"/>
  <path class="st0" d="M159.88,17.32v-1.08c-.1-.57-.28-1.04-.55-1.4-.32-.42-.72-.63-1.2-.63-.64,0-1.12.34-1.44,1.03-.26.53-.38,1.21-.38,2.02s.13,1.52.38,2.05c.34.68.83,1.03,1.47,1.03.47,0,.85-.19,1.14-.56.3-.37.49-.87.59-1.5v-.97ZM166.27,24.11h-6.53v-1.34c-.6.53-1.19.93-1.78,1.18-.59.26-1.23.38-1.95.38-1.53,0-2.77-.67-3.69-2.02-.93-1.35-1.39-2.96-1.39-4.85,0-2.02.47-3.69,1.4-5.02,1-1.43,2.33-2.14,3.99-2.14.67,0,1.27.1,1.82.31.55.21,1.1.53,1.67.97v-2.65h-.93v-3.82h6.43v15.23h.95v3.76Z"/>
  <path class="st0" d="M174.89,24.11h-7.64v-3.79h.97v-6.07h-.97v-3.79h6.53v9.87h1.12v3.79ZM173.72,7.05c0,.76-.34,1.34-1.02,1.74-.54.32-1.17.49-1.9.49s-1.35-.15-1.88-.46c-.68-.4-1.02-.99-1.02-1.77s.33-1.37,1-1.77c.54-.32,1.17-.49,1.9-.49s1.36.16,1.9.49c.68.4,1.02.99,1.02,1.77"/>
  <path class="st0" d="M187.57,20.14c0,1.39-.47,2.47-1.4,3.25-.84.7-1.86,1.05-3.06,1.05-.65,0-1.27-.1-1.85-.28-.59-.19-1.21-.49-1.88-.88v.83h-3.59v-4.59h3.59c.52,1.35,1.38,2.02,2.59,2.02.28,0,.55-.08.8-.23.24-.15.37-.39.37-.71,0-.55-.64-.99-1.92-1.31-1.88-.46-3.09-.84-3.61-1.14-1.3-.74-1.95-1.91-1.95-3.51,0-1.43.49-2.55,1.47-3.36.89-.74,1.95-1.11,3.18-1.11.65,0,1.23.09,1.76.28.52.19,1.13.49,1.83.91v-.91h3.32v4.33h-3.51c-.55-1.16-1.34-1.74-2.35-1.74-.27,0-.52.05-.75.14-.23.09-.4.26-.51.48-.05.12-.07.21-.07.29,0,.13,0,.22.02.26.01.04.03.06.05.06.22.42,1.01.8,2.35,1.14,1.64.42,2.78.84,3.39,1.26,1.16.76,1.73,1.92,1.73,3.48"/>
  <path class="st0" d="M196.87,21.4c0,.98-.35,1.74-1.04,2.27-.59.45-1.33.68-2.2.68s-1.62-.22-2.14-.65c-.57-.48-.94-1.23-1.1-2.27h2.27c.06.3.18.52.36.65.18.14.42.2.7.2.31,0,.53-.06.67-.17.14-.11.21-.26.21-.45,0-.31-.35-.57-1.05-.8-1.01-.33-1.66-.58-1.96-.77-.7-.46-1.06-1.13-1.06-2.02,0-.94.32-1.67.97-2.19.56-.44,1.26-.67,2.1-.67s1.49.21,2.01.62c.58.47.92,1.17,1.03,2.1h-2.2c-.03-.28-.13-.49-.32-.6-.19-.11-.41-.17-.67-.17-.19,0-.33.03-.43.08-.16.1-.24.26-.24.51,0,.21.09.36.27.47.11.07.28.13.49.18l1.38.44c.57.21,1.02.5,1.35.88.38.44.57,1,.57,1.66"/>
  <rect class="st0" x="197.81" y="21.5" width="2.13" height="2.6"/>
  <path class="st0" d="M204.93,21.15l-.73-3-.73,3h1.46ZM207.91,24.11h-2.3l-.27-1.14h-2.3l-.28,1.14h-2.27l2.53-8.66h2.34l2.54,8.66Z"/>
  <rect class="st0" x="208.48" y="21.5" width="2.13" height="2.6"/>
  <path class="st2" d="M32.07,0c17.71,0,32.07,6.55,32.07,14.64s-14.36,14.64-32.07,14.64S0,22.72,0,14.64,14.36,0,32.07,0"/>
  <path class="st1" d="M51.38,15.91c-1.33.46-3.22,1.28-12.82,1.74l-.76.05s-1.58.31-.05-.82c.61-.36,4.8-3.68,6.79-3.68,1.43,0,9.75-1.23,9.65,1.07-.1.2.67.51-2.81,1.63M60.93,12.59c-4.04-3.12-23.09-.46-23.09-.46.15-.66-10.67-1.12-12.66-1.43-3.68-.51-3.47-1.17-3.58-1.38,1.74-2.6,9.7-2.76,11.24-2.76,3.52-.51,5.92.66,6.74.92.15.41,1.28.82,2.14.87,5.16.05,5.87-1.17,6.95-1.53,1.07-.36.2-1.57-1.94-1.84-18.08-2.3-31.05,3.22-33.2,4.14s-1.52,1.81-.71,2.25c2.55,1.38,17.36,2.35,18.44,3.27,1.12.41.69.83.2,1.07-5.11,2.5-12.83,1.91-14.04,1.94-7.1.15-7.35-1.58-7.56-1.74-.56-.56-3.12-.2-3.12-.2,0,0-3.68,1.18-3.88,1.28-1.58,1.07.26,1.53.26,1.53,0,0,1.33.41,1.58.46,10.16,1.53,19.51.56,21.04.36,1.84-.46,1.17.36,1.17.36,0,0-3.07,2.4-4.39,3.98-1.33,1.58,2.09.92,3.22.82,3.73-.1,5.82-2.86,6.48-3.52,2.25-2.04,3.01-1.12,3.47-1.17,1.18-.15,8.07,3.68,9.81,4.44,2.35,1.17,5.52.2,6.03.1,2.09.36.77-.97.36-1.17-8.07-2.76-8.27-3.68-8.58-3.93-.87-.66.51-.51.87-.56,13.48-1.33,15.83-3.42,16.6-3.93,2.25-.92.46-2.04.15-2.14"/>
</svg>