<?xml version="1.0" encoding="UTF-8"?>
<svg id="Layer_1" xmlns="http://www.w3.org/2000/svg" version="1.1" viewBox="0 0 157.5 35.84">
  <!-- Generator: Adobe Illustrator 29.5.1, SVG Export Plug-In . SVG Version: 2.1.0 Build 141)  -->
  <defs>
    <style>
      .st0 {
        fill: #ff3425;
      }

      .st1 {
        fill: #fff;
      }

      .st2 {
        fill: #939599;
      }

      .st3 {
        fill: #00a843;
      }
    </style>
  </defs>
  <path class="st2" d="M126.52,21.54s-.04,0-.04-.02c-.02-.02-.02-.04,0-.06.14-.28.28-.58.36-.9,0-.02.04-.04.06-.04h6.41s.02,0,.04.02c.02,0,.02.02.02.04-.04.32-.08.62-.14.92,0,.02-.04.04-.06.04h-6.65Z"/>
  <path class="st2" d="M122.86,23.64v-.06c1.3,0,2.46-.6,3.22-1.54,0-.02.02-.02.04-.02h6.91s.04,0,.06.02v.06c-1.18,4.55-5.31,7.92-10.23,7.92-5.83,0-10.57-4.73-10.57-10.59s4.75-10.57,10.57-10.57c5.03,0,9.23,3.51,10.31,8.2,0,.02,0,.04-.02.06-.02,0-.04.02-.06.02h-6.75s-.04-.02-.06-.04c-.74-1.08-2-1.8-3.42-1.8-1.14,0-2.16.46-2.92,1.2-.74.76-1.2,1.78-1.2,2.93s.46,2.19,1.2,2.93c.76.76,1.78,1.22,2.92,1.22v.06Z"/>
  <path class="st2" d="M133.35,19.01s.06.02.08.06v.36c0,.18,0,.36-.02.54,0,.04-.02.06-.06.06h-6.33s-.04,0-.04-.02c-.02,0-.02-.02-.02-.04.02-.18.04-.36.04-.54,0-.12-.02-.24-.02-.36,0-.02,0-.04.02-.04,0-.02.02-.02.04-.02h6.31Z"/>
  <path class="st2" d="M126.94,18.53s-.06-.02-.06-.04c-.06-.28-.16-.54-.26-.78-.02-.02-.02-.04,0-.06,0-.02.02-.04.06-.04h6.53s.06.02.06.06c.06.26.08.52.12.8,0,.02-.02.04-.02.04-.02.02-.04.02-.06.02h-6.37Z"/>
  <path class="st2" d="M69.52,15.36h12.93c.06,0,.12-.04.12-.1v-6.04s-.02-.06-.04-.08c-.02-.02-.04-.02-.08-.02l-13.95.02c-.06,0-1.24,0-2.48.6-.74.36-1.34.84-1.78,1.46-.56.76-.9,1.7-.98,2.81v10.29s.04,1.2.68,2.47c.38.72.88,1.34,1.5,1.8.78.6,1.74.96,2.86,1.1l.56.02h13.59c.06,0,.1-.06.1-.12v-5.98c0-.06-.04-.1-.1-.1h-12.95s-.08-.06-.08-.12v-.76c0-.06.04-.1.1-.1h8.19c.06,0,.12-.04.12-.1v-5.98s-.06-.1-.12-.1h-8.19c-.06,0-.1-.04-.1-.1v-.76c0-.06.04-.12.1-.12"/>
  <path class="st2" d="M82.45,33.67h-42.43c-.06,0-.12.04-.12.08v.4c0,.06.06.1.12.1h42.43c.06,0,.1-.04.1-.1v-.4s-.04-.08-.1-.08"/>
  <path class="st2" d="M155.48,9.89h.46c.08,0,.14.02.2.06.04.04.08.1.08.18s-.04.14-.08.18c-.06.06-.12.08-.24.08h-.42v-.5ZM155.94,9.55h-.8s-.06.02-.06.06v1.87s.04.06.06.06h.28s.06-.04.06-.06v-.74h.42l.34.76s.02.04.04.04h.32s.04-.02.04-.04c.02,0,.02-.04,0-.06l-.36-.78c.12-.04.2-.12.24-.2.08-.1.1-.2.1-.32,0-.14-.06-.28-.16-.4-.12-.12-.3-.18-.52-.18M155.84,11.85c-.36,0-.68-.14-.92-.38-.26-.26-.4-.58-.4-.94s.14-.66.4-.92c.24-.26.56-.38.92-.38s.66.12.92.38c.26.26.4.56.4.92s-.14.68-.4.92c-.26.26-.56.4-.92.4M155.84,8.86c-.46,0-.86.16-1.18.5-.32.32-.48.72-.48,1.16s.16.86.48,1.18c.32.32.72.48,1.18.48s.84-.16,1.16-.48c.34-.32.5-.72.5-1.18s-.16-.84-.5-1.16c-.32-.34-.7-.5-1.16-.5"/>
  <path class="st2" d="M48.94,25.05c.68,2.77,3.18,4.97,6.15,4.97,3.5,0,6.35-2.85,6.35-6.36v-9.91c0-.06-.06-.1-.12-.1h-6.03c-.06,0-.12.04-.12.1v9.47c0,.08-.06.2-.18.2,0,0-.1.02-.18-.08,0,0,0-.02-.02-.04,0,0-2.38-9.83-2.4-9.79,0,0-.32-1.18-1.24-2.33-.52-.66-1.16-1.2-1.86-1.58-.86-.48-1.86-.72-2.94-.72-1.22,0-2.28.2-3.2.62-.78.36-1.42.86-1.96,1.5-.9,1.12-1.22,2.49-1.22,3.31v15.26c0,.06.04.12.1.12h6.03c.06,0,.12-.06.12-.12v-14c0-.06-.02-.28.2-.28.16,0,.18.14.24.3l2.3,9.45Z"/>
  <path class="st2" d="M148.93,15.84h.04c.08-.04.16-.08.26-.12.04-.02.08-.04.14-.06.06-.02.14-.06.22-.08.02-.02.06-.02.08-.04.12-.02.22-.06.34-.08.04-.02.06-.04.06-.06v-6.22s-.02-.04-.02-.04c-.02-.02-.04-.02-.06-.02h-1.06s-.02,0-.04.02c-.02,0-.02.02-.02.04v6.6s.02.04.04.06h.02ZM153.19,23.6h-2.32l-.02-.02c-2.26,0-4.08-1.85-4.08-4.11,0-1.32.64-2.51,1.64-3.27v-.02s.04-.02.04-.04v-6.94s-.02-.04-.04-.06h-.04c-.64.08-2.7.5-4.73,2.61-2.44-2.53-4.95-2.63-4.95-2.63h-4.71s-.06.02-.06.06l-.02,6.12s.02.04.02.04c.02.02.04.02.06.02h2.4l.02.02.02-.02c2.26,0,4.1,1.84,4.1,4.11s-1.84,4.11-4.1,4.11v.02h-2.34s-.04,0-.06.02v6.06s.04.02.06.02h3.26l.64-.02c3.26,0,5.21-2.1,5.65-2.53.42.42,2.54,2.37,5.43,2.55h4.12s.02-.02.04-.02c0-.02.02-.04.02-.06v-5.96s-.02-.04-.02-.04c-.02-.02-.04-.02-.04-.02M150.55,15.36h.96s.02,0,.04-.02c0,0,.02-.02.02-.04v-6.12s-.02-.04-.02-.04c-.02-.02-.04-.02-.04-.02h-.96s-.02,0-.04.02c-.02,0-.02.02-.02.04v6.12s0,.04.02.04t.04.02M153.35,9.18s-.04-.06-.08-.06h-1.2s-.04,0-.06.02c0,0-.02.02-.02.04v6.12s.02.04.02.04c.02.02.04.02.06.02h1.22s.02,0,.04-.02c0,0,.02-.02.02-.04v-6.12Z"/>
  <path class="st2" d="M110.85,27.15h-6.01c-.06,0-.12.04-.12.08v.84c0,.06.06.1.12.1h6.01c.06,0,.12-.04.12-.1v-.84s-.06-.08-.12-.08"/>
  <path class="st2" d="M110.85,25.63h-6.01c-.06,0-.12.06-.12.1v.84c0,.06.06.1.12.1h6.01c.06,0,.12-.04.12-.1v-.84s-.06-.1-.12-.1"/>
  <path class="st2" d="M110.85,28.66h-6.01c-.06,0-.12.04-.12.08v.86c0,.06.06.1.12.1h6.01c.06,0,.12-.04.12-.1v-.86s-.06-.08-.12-.08"/>
  <path class="st2" d="M98.11,17.01l.22-2.41c.02-.22.06-.42.06-.42.36-3.09,2.62-5.29,6.27-5.29s6.21,2.29,6.29,5.73l.02.34v10.09c0,.06-.06.12-.12.12h-6.01s-.06-.02-.08-.04c-.02-.02-.04-.04-.04-.08v-9.69s-.02-.06-.06-.06-.06.02-.06.06l-.8,8.92c-.02.18-.06.44-.06.46-.5,2.99-3.08,5.25-6.21,5.25s-5.73-2.27-6.21-5.25c0-.02-.04-.28-.06-.46l-.8-8.92s-.04-.06-.06-.06c-.04,0-.06.02-.06.06v14.22s-.02.06-.04.08c-.02.02-.04.04-.08.04h-6.03c-.06,0-.1-.06-.1-.12v-14.96c.1-3.45,2.82-5.73,6.29-5.73,3.64,0,5.93,2.21,6.29,5.29,0,0,.02.2.06.42l.22,2.41.54,6.06s.02.04.04.04.04-.02.04-.04l.54-6.06Z"/>
  <path class="st2" d="M80.85,22.4v-5.94c0-.06-.04-.12-.1-.12h-.84s-.08.06-.08.12v5.94c0,.06.04.12.08.12h.84c.06,0,.1-.06.1-.12"/>
  <path class="st2" d="M82.35,22.4v-5.94c0-.06-.04-.12-.08-.12h-.86s-.08.06-.08.12v5.94c0,.06.04.12.08.12h.86s.08-.06.08-.12"/>
  <path class="st2" d="M79.35,22.4v-5.94c0-.06-.04-.12-.1-.12h-.84c-.06,0-.1.06-.1.12v5.94c0,.06.04.12.1.12h.84c.06,0,.1-.06.1-.12"/>
  <path class="st2" d="M61.31,10.63h-6.03c-.06,0-.12.04-.12.1v.84s.06.08.12.08h6.03c.06,0,.1-.04.1-.08v-.84c0-.06-.04-.1-.1-.1"/>
  <path class="st2" d="M61.31,9.12h-6.03c-.06,0-.12.04-.12.08v.86s.06.08.12.08h6.03c.06,0,.1-.04.1-.08v-.86s-.04-.08-.1-.08"/>
  <path class="st2" d="M61.31,12.13h-6.03c-.06,0-.12.04-.12.1v.84c0,.06.06.1.12.1h6.03c.06,0,.1-.04.1-.1v-.84c0-.06-.04-.1-.1-.1"/>
  <path class="st2" d="M84.6,33.79h1.42c.22,0,.38-.04.42-.08.04-.02.1-.14.1-.36,0-.14-.04-.24-.08-.28-.04-.04-.12-.08-.28-.08h-1.58v.8ZM84.22,35.15s-.04,0-.06-.02c-.02-.02-.04-.04-.04-.06v-2.41s.02-.06.04-.08c.02,0,.04-.02.06-.02h2c.26,0,.46.04.6.18.14.12.2.32.2.6,0,.14-.02.26-.04.38-.02.12-.06.22-.14.28-.06.08-.14.12-.24.16-.1.02-.24.04-.4.04h-1.6v.86s0,.04-.02.06c-.02.02-.04.02-.06.02h-.3Z"/>
  <path class="st2" d="M93.57,34.73l.62.02h.3c.18,0,.34-.02.52-.02.16-.02.24-.08.28-.14.04-.06.06-.2.06-.38v-.5c0-.16,0-.28-.02-.4,0-.1-.02-.16-.06-.2-.02-.04-.06-.08-.1-.08-.06-.02-.12-.04-.2-.04h-.2l-.56-.02-.56.02c-.28,0-.44.04-.5.08-.04.04-.1.18-.08.44l-.02.36v.18c0,.3.04.48.08.56.04.06.18.12.44.12M93.51,32.55h1.06c.52,0,.84.06,1.02.22.18.18.24.5.24,1v.16c0,.18,0,.36-.02.56-.02.2-.1.38-.24.5-.14.12-.34.18-.58.16-.06.02-.16.02-.28.02h-.94c-.14,0-.28,0-.42-.02-.14,0-.26-.04-.36-.08-.12-.04-.2-.12-.26-.24-.08-.1-.12-.24-.14-.4-.02-.16-.02-.34-.02-.56v-.42c.02-.1.04-.22.06-.38.04-.18.14-.32.3-.4.16-.08.36-.12.58-.12"/>
  <path class="st2" d="M99.51,33.61s.06.02.06.04c.02.02.04.04.04.06v.24s-.02.04-.04.06c-.02.02-.04.04-.06.04h-1.8v1.02s-.02.04-.04.06c-.02.02-.04.02-.06.02h-.3s-.04,0-.06-.02c-.02-.02-.02-.04-.02-.06v-2.41s0-.06.02-.08c.02,0,.04-.02.06-.02h2.3s.06.02.06.02c.02.02.04.04.04.08v.24s-.02.04-.04.06c0,.02-.04.02-.06.02h-1.9v.62h1.8Z"/>
  <path class="st2" d="M103.4,33.61s.06.02.08.02c0,.02.02.04.02.08v.24s-.02.04-.02.06c-.02.02-.04.02-.08.02h-1.92v.7h2.02s.06.02.08.02c0,.02.02.04.02.08v.24s-.02.04-.02.06c-.02.02-.04.02-.08.02h-2.4s-.04,0-.06-.02c-.02-.02-.02-.04-.02-.06v-2.41s0-.06.02-.08c.02,0,.04-.02.06-.02h2.38s.06.02.06.02c.02.02.04.04.04.08v.24s-.02.04-.04.06c0,.02-.04.02-.06.02h-2v.62h1.92Z"/>
  <path class="st2" d="M107.2,33.05s-.12-.04-.24-.04c-.12-.02-.3-.04-.5-.04h-.1c-.16,0-.32.02-.48.02-.16.02-.28.04-.34.08-.06.02-.1.06-.1.08-.02.04-.04.1-.04.18,0,.14.04.2.08.24.06.04.16.06.3.06h1.1c.08,0,.2.02.36.02.16.02.32.08.42.2.12.12.18.3.18.54,0,.14-.02.28-.08.4-.06.12-.16.2-.28.26-.12.06-.26.08-.42.1-.16.02-.34.02-.52.02h-.6c-.1,0-.24-.02-.42-.04-.2-.04-.36-.1-.46-.24-.1-.14-.14-.34-.14-.6,0-.02.02-.06.04-.06,0-.02.04-.04.06-.04h.28s.06.02.06.04c.02,0,.04.04.04.06v.04c0,.14,0,.22.02.26.02.04.04.06.12.08.08.04.2.06.36.06s.32.02.46.02c.26,0,.46-.02.62-.04.16-.02.28-.06.3-.1.04-.04.08-.1.08-.24,0-.16-.04-.22-.08-.24-.06-.04-.18-.06-.36-.06h-.56l-.64-.02c-.24,0-.42-.04-.58-.14-.14-.12-.22-.3-.22-.52,0-.18.04-.32.1-.46.06-.12.16-.22.32-.26.12-.06.28-.1.46-.1.18-.02.36-.02.58-.02h.38c.08,0,.22.02.38.04.2.02.36.08.48.22.1.12.16.32.16.54,0,.02-.02.06-.04.06,0,.02-.04.04-.06.04h-.28s-.06-.02-.08-.04c0,0-.02-.04-.02-.06,0-.1-.02-.18-.02-.22-.02-.04-.04-.06-.08-.08"/>
  <path class="st2" d="M111.45,33.05s-.12-.04-.24-.04c-.14-.02-.3-.04-.5-.04h-.1c-.16,0-.32.02-.5.02-.16.02-.28.04-.34.08-.06.02-.08.06-.1.08,0,.04-.02.1-.02.18,0,.14.04.2.08.24.06.04.16.06.3.06h1.1c.08,0,.2.02.36.02.16.02.3.08.42.2.12.12.16.3.16.54,0,.14-.02.28-.06.4-.06.12-.16.2-.28.26-.12.06-.26.08-.42.1-.16.02-.34.02-.52.02h-.6c-.1,0-.24-.02-.42-.04-.2-.04-.36-.1-.46-.24-.1-.14-.14-.34-.14-.6,0-.02,0-.06.02-.06.02-.02.04-.04.06-.04h.3s.04.02.06.04c.02,0,.02.04.02.06v.04c0,.14.02.22.04.26,0,.04.04.06.12.08.08.04.2.06.36.06s.3.02.46.02c.24,0,.46-.02.62-.04.16-.02.26-.06.3-.1.04-.04.06-.1.06-.24,0-.16-.04-.22-.06-.24-.06-.04-.18-.06-.38-.06h-.54l-.64-.02c-.24,0-.44-.04-.58-.14-.16-.12-.22-.3-.22-.52,0-.18.02-.32.08-.46.06-.12.18-.22.32-.26.14-.06.3-.1.48-.1.16-.02.36-.02.58-.02h.38c.08,0,.2.02.38.04.2.02.36.08.46.22.12.12.16.32.16.54,0,.02,0,.06-.02.06-.02.02-.04.04-.06.04h-.3s-.04-.02-.06-.04c-.02,0-.02-.04-.02-.06,0-.1-.02-.18-.04-.22-.02-.04-.04-.06-.06-.08"/>
  <path class="st2" d="M113.53,35.15s-.04,0-.06-.02c-.02-.02-.02-.04-.02-.06v-2.41s0-.06.02-.08c.02,0,.04-.02.06-.02h.3s.04,0,.06.02c.02.02.02.04.02.08v2.41s0,.04-.02.06c-.02.02-.04.02-.06.02h-.3Z"/>
  <path class="st2" d="M116.31,34.73l.62.02h.3c.18,0,.34-.02.52-.02.16-.02.24-.08.28-.14.04-.06.06-.2.06-.38v-.5c0-.16,0-.28-.02-.4,0-.1-.04-.16-.06-.2-.02-.04-.06-.08-.1-.08-.06-.02-.14-.04-.2-.04h-.2l-.56-.02-.56.02c-.28,0-.44.04-.5.08-.04.04-.1.18-.08.44l-.02.36v.18c0,.3.04.48.08.56.04.06.18.12.44.12M116.25,32.55h1.06c.52,0,.84.06,1.02.22.18.18.24.5.24,1v.16c0,.18,0,.36-.02.56-.02.2-.1.38-.24.5-.14.12-.34.18-.58.16-.06.02-.16.02-.28.02h-.94c-.14,0-.28,0-.42-.02-.14,0-.26-.04-.36-.08-.12-.04-.2-.12-.26-.24-.08-.1-.12-.24-.14-.4-.02-.16-.02-.34-.02-.56v-.42c.02-.1.04-.22.06-.38.04-.18.14-.32.3-.4.16-.08.36-.12.58-.12"/>
  <path class="st2" d="M120.06,35.15s-.04,0-.06-.02c-.02-.02-.02-.04-.02-.06v-2.41s0-.06.02-.08c.02,0,.04-.02.06-.02h.5l.06.02,2.06,2.03v-1.94s0-.06.02-.08c.02,0,.04-.02.06-.02h.3s.04,0,.06.02c.02.02.04.04.04.08v2.41s-.02.04-.04.06c-.02.02-.04.02-.06.02h-.48l-.06-.02-2.08-2.05v1.99s0,.04-.02.06c-.02.02-.04.02-.06.02h-.3Z"/>
  <path class="st2" d="M125.26,34.19h1.32l-.66-1.14-.66,1.14ZM127.2,35.15s-.06-.02-.08-.04l-.28-.5h-1.84l-.28.5s-.04.04-.08.04h-.34s-.06-.02-.08-.04c-.02-.04-.02-.06,0-.1l1.42-2.41s.04-.04.08-.04h.38s.06.02.08.04l1.44,2.41s.02.06,0,.1c-.02.02-.06.04-.08.04h-.34Z"/>
  <path class="st2" d="M128.79,35.15s-.06,0-.08-.02c0-.02-.02-.04-.02-.06v-2.41s.02-.06.02-.08c.02,0,.04-.02.08-.02h.28s.06.02.06.02c.02.02.04.04.04.08v2.06h1.8s.06.02.06.02c.02.02.04.04.04.08v.24s-.02.04-.04.06c0,.02-.04.02-.06.02h-2.18Z"/>
  <path class="st2" d="M135.35,35.19l-.54-.04c-.46-.02-.74-.32-.74-.76v-.88c0-.1.02-.22.06-.38.02-.18.12-.32.26-.42.14-.1.32-.14.54-.14.1-.02.2-.02.28-.02h1.08c.1.02.2.04.36.06.16.04.28.14.36.28.06.14.08.32.08.54,0,.04,0,.06-.02.08-.02,0-.04.02-.06.02h-.3s-.04-.02-.06-.02c-.02-.02-.02-.04-.02-.08v-.02c0-.1-.02-.18-.02-.26-.02-.04-.04-.08-.06-.08-.02-.02-.1-.06-.24-.06-.12-.02-.3-.04-.52-.04-.1,0-.22.02-.4.02s-.3.02-.4.02c-.2,0-.32.06-.34.08-.02.02-.06.1-.08.24,0,.14-.02.26-.02.38v.32c0,.3.04.5.08.6.02.06.16.12.4.12h1.1c.22,0,.36-.04.42-.08.04,0,.08-.1.08-.28v-.1s.02-.06.04-.06c.02-.02.04-.04.06-.04h.3s.04.02.06.04c.02,0,.04.04.04.06-.02.3-.06.54-.18.68-.14.14-.36.18-.72.2l-.62.02h-.26Z"/>
  <path class="st2" d="M138.58,35.15s-.04,0-.06-.02c-.02-.02-.02-.04-.02-.06v-2.41s0-.06.02-.08c.02,0,.04-.02.06-.02h.3s.04.02.06.02c.02.02.04.04.04.08v2.06h1.8s.04.02.06.02c.02.02.04.04.04.08v.24s-.02.04-.04.06c-.02.02-.04.02-.06.02h-2.2Z"/>
  <path class="st2" d="M142.7,34.19h1.34l-.68-1.14-.66,1.14ZM144.66,35.15s-.06-.02-.08-.04l-.3-.5h-1.82l-.28.5s-.06.04-.08.04h-.34s-.06-.02-.08-.04c-.02-.04-.02-.06,0-.1l1.42-2.41s.04-.04.08-.04h.38s.06.02.08.04l1.42,2.41s.02.06.02.1c-.02.02-.06.04-.08.04h-.34Z"/>
  <path class="st2" d="M148.39,33.05s-.12-.04-.24-.04c-.14-.02-.3-.04-.5-.04h-.12c-.14,0-.3.02-.48.02-.16.02-.28.04-.34.08-.06.02-.08.06-.1.08-.02.04-.02.1-.02.18,0,.14.04.2.08.24.06.04.16.06.3.06h1.1c.08,0,.2.02.34.02.18.02.32.08.44.2.12.12.16.3.16.54,0,.14-.02.28-.08.4-.04.12-.14.2-.26.26-.12.06-.26.08-.44.1-.14.02-.32.02-.5.02h-.6c-.1,0-.24-.02-.42-.04-.2-.04-.36-.1-.46-.24-.1-.14-.14-.34-.14-.6,0-.02,0-.06.02-.06.02-.02.04-.04.06-.04h.3s.04.02.06.04c.02,0,.02.04.02.06v.04c0,.14.02.22.04.26,0,.04.04.06.12.08.08.04.2.06.36.06s.3.02.46.02c.24,0,.46-.02.62-.04.16-.02.26-.06.3-.1.04-.04.06-.1.06-.24,0-.16-.04-.22-.08-.24-.04-.04-.18-.06-.36-.06h-.54l-.64-.02c-.24,0-.44-.04-.58-.14-.16-.12-.22-.3-.22-.52,0-.18.02-.32.08-.46.06-.12.18-.22.32-.26.14-.06.3-.1.48-.1.16-.02.36-.02.56-.02h.4c.08,0,.2.02.38.04.2.02.36.08.46.22.12.12.16.32.16.54,0,.02,0,.06-.02.06-.02.02-.04.04-.06.04h-.3s-.04-.02-.06-.04c-.02,0-.02-.04-.02-.06,0-.1-.02-.18-.04-.22-.02-.04-.04-.06-.06-.08"/>
  <path class="st2" d="M152.61,33.05s-.1-.04-.24-.04c-.12-.02-.28-.04-.5-.04h-.1c-.16,0-.32.02-.48.02-.16.02-.28.04-.34.08-.06.02-.08.06-.1.08-.02.04-.02.1-.02.18,0,.14.02.2.08.24.06.04.16.06.3.06h1.08c.1,0,.2.02.36.02.18.02.32.08.44.2.12.12.16.3.16.54,0,.14-.02.28-.08.4-.06.12-.14.2-.28.26-.12.06-.26.08-.42.1-.16.02-.32.02-.52.02h-.6c-.08,0-.22-.02-.42-.04-.2-.04-.36-.1-.46-.24-.1-.14-.12-.34-.14-.6,0-.02.02-.06.04-.06.02-.02.04-.04.06-.04h.3s.04.02.06.04c.02,0,.02.04.02.06v.04c0,.14.02.22.04.26,0,.04.02.06.1.08.1.04.22.06.36.06.16,0,.32.02.48.02.24,0,.44-.02.62-.04.16-.02.26-.06.3-.1.02-.04.06-.1.06-.24,0-.16-.04-.22-.08-.24-.06-.04-.18-.06-.36-.06h-.56l-.64-.02c-.24,0-.42-.04-.56-.14-.16-.12-.24-.3-.24-.52,0-.18.04-.32.1-.46.06-.12.18-.22.32-.26.12-.06.28-.1.46-.1.18-.02.38-.02.58-.02h.38c.08,0,.22.02.4.04.18.02.34.08.46.22.12.12.16.32.16.54,0,.02,0,.06-.02.06-.02.02-.04.04-.06.04h-.3s-.04-.02-.06-.04c-.02,0-.04-.04-.04-.06,0-.1,0-.18-.02-.22-.02-.04-.04-.06-.08-.08"/>
  <path class="st2" d="M88.8,32.99h1.5c.2,0,.34.04.4.08.04.02.1.1.1.28v.04c0,.18-.06.26-.1.3-.06.04-.2.06-.4.06h-1.5v-.76ZM91.32,35.09l-1.08-.9h.14c.3,0,.52-.06.68-.18s.22-.36.22-.64c0-.3-.06-.52-.22-.64s-.38-.16-.68-.16h-1.98s-.04,0-.06.02c-.02.02-.02.04-.02.06v2.43s0,.04.02.06c.02.02.04.02.06.02h.3s.04,0,.06-.02c.02-.02.04-.04.04-.06v-.88h.72l1.14.96h.62s.04,0,.04-.02v-.04Z"/>
  <path class="st1" d="M24.46,6.54h1.39s-.53,1.02-.63,2.45c-.1,1.42.58,3.56.76,4.25.15.56.34,1.3.3,2.38-.18,2.36-1.63,3.74-2.98,5.5h-.94s1.57-1.85,2.08-2.99c.41-.92.73-1.79.6-3.09-.12-1.21-.2-1.24-.98-4.14-.5-2.36.08-3.38.4-4.36"/>
  <path class="st3" d="M20.27,22.38c1.66-1.42,3.34-3.45,3.46-6.28.12-2.75-2.7-4.45-2.26-8.48h2.62c-.86,3.01.96,4.85.98,8.12.02,2.39-2.46,5.41-4,6.64h-.8Z"/>
  <path class="st2" d="M12.7,16.36v-2.99c.28.52.42.74.68,1.06,2.08,2.57,7.19,1.42,7.25-2.33h.8c.36,4.53-5.29,7.06-8.73,4.25"/>
  <path class="st2" d="M.88,15.44h3.8C.76,13.78,1.89,6.6,7.05,6.98c.52.04.86.12,1.4.32v-1.12C2.53,4.17-1.98,10.47.88,15.44"/>
  <path class="st2" d="M16.42,27.19l-2.18,7.06-.2.58c-.02.08-.08.12-.16.12s-.14-.06-.16-.12L7.75,15.44h-2.26l7.63,19.85c.12.32.42.54.78.54s.66-.24.78-.58l2.74-7.08-1-.98Z"/>
  <path class="st2" d="M36.42,24.37c-.26-1.28-1.78-1.82-3.34-1.34.06-.24.1-.48.12-.72h-2.24c-.28,4.29-3.42,7.68-7.27,7.68s-7.15-3.37-7.39-7.64c-.04-.64.22-.9.22-.9.6-.72,2.14-1.22,2.14-1.22-1.7.1-2.6.3-3.52.56-.92.28-1.14.82-1.14,1.14,0,.5.08.82.08.82.7,3.85,3.96,7.18,8.19,7.76-2.06.32-3.64,1.3-4,2.55h2.52c.22-1.12,1.42-1.99,2.86-1.99s2.64.86,2.86,1.99h2.5c-.36-1.24-1.96-2.25-4.02-2.55,3.52-.48,6.43-2.81,7.65-5.92,1.18-.48,2.62-.08,2.64.98.02.96-.88,1.68-1.52,1.95-.18.06-.34.1-.48.14-.32.1-.42.18-.4.38,0,.2.2.26.42.26,1.7-.12,3.52-1.86,3.12-3.93"/>
  <path class="st2" d="M31.04,21.94h2.14s.2-1.44-5.01-1.86c0,0-2.44-.22-4.03.04,0,0,6.13.36,6.71,1.56,0,0,.06.1.08.26h.1Z"/>
  <path class="st2" d="M20.45,23.56c1.56.04,2.8-.06,3.54-.1-.04-.08-.1-.16-.16-.22h-.16c-3.18-.04-5.91-.48-6.93-1.08-.04.38.02.72.06.94.08.06,1.08.38,3.64.46"/>
  <path class="st0" d="M29.76,5.72h-3.4c-.34.46-.64,1.02-.76,1.4-.28.92-.34,1.26-.38,1.94-.1,2.35,1.06,4.03,1.06,6.22,0,1.26-.5,2.53-1.28,3.69-.04.04-.06.08-.08.1-.14.2-.28.38-.42.56.26-.02.3-.02.62-.02.52-.7.78-1.02,1-1.42.46-.78.92-1.81,1.02-2.89.12-1.61-.42-3.53-.16-4.99,0,0,.24-2.47,2.9-4.59h-.12Z"/>
  <path class="st2" d="M20.69,5.9c-.02-.06-.02-.1-.02-.16v-.1c-.02-.08-.02-.18-.04-.26-.04-.36-.12-.7-.22-1.02v-.02C19.71,2.05,17.72.48,15.44.06c-.28-.04-.58-.06-.9-.06-.38,0-.74.04-1.1.1-.82.2-1.54.48-2.16.86-.06.02-.1.06-.14.08t-.02.02c-1.48,1-2.5,2.63-2.68,4.51h.88c.1-.74.26-1.2.52-1.74,2.02-4.09,8.53-2.71,8.59,1.95.02.58-.08,1.14-.34,1.8-.2.54-.68,1.06-1.28,1.52v2.77c2.26-.9,3.88-3.13,3.88-5.72v-.26Z"/>
</svg>