<?xml version="1.0" encoding="UTF-8"?>
<svg id="Layer_1" xmlns="http://www.w3.org/2000/svg" version="1.1" viewBox="0 0 132.44 26.11">
  <!-- Generator: Adobe Illustrator 29.5.1, SVG Export Plug-In . SVG Version: 2.1.0 Build 141)  -->
  <defs>
    <style>
      .st0 {
        fill: #ea1c24;
      }

      .st1 {
        fill-rule: evenodd;
      }
    </style>
  </defs>
  <path class="st0" d="M13.06,0C5.86,0,0,5.86,0,13.05s5.86,13.05,13.06,13.05,13.06-5.86,13.06-13.05S20.25,0,13.06,0M17.56,1.67c3.12,1.24,5.62,3.74,6.87,6.86h-6.87V1.67ZM13.06.81c1.44,0,2.82.25,4.1.71l-4.1,4.1L8.96,1.52c1.28-.46,2.66-.71,4.1-.71M8.55,1.67v6.86H1.68c1.25-3.12,3.75-5.62,6.87-6.86M.81,13.08s0-.02,0-.03c0-1.46.26-2.86.73-4.16l4.18,4.18H.81ZM6.79,13.08l-3.79-3.79h5.76l3.79,3.79h-5.76ZM9.3,8.76V2.94l3.75,3.75,3.75-3.75v5.82l-3.75,3.75-3.75-3.75ZM13.56,13.08l3.79-3.79h5.76l-3.79,3.79h-5.76ZM20.39,13.08l4.18-4.18c.47,1.3.73,2.7.73,4.16,0,0,0,.02,0,.03h-4.91Z"/>
  <path class="st1" d="M131.53,3.58h-.5l-.53-.95v.95h-.43V1.54h.62c.25,0,.43.05.56.14.12.1.19.24.19.43,0,.14-.04.26-.13.36-.08.1-.19.16-.32.17l.56.92ZM130.49,2.41c.24,0,.36-.02.41-.06.06-.04.08-.1.08-.2s-.03-.17-.09-.21c-.07-.04-.18-.06-.34-.06l-.07.53ZM130.67,1.06c.83,0,1.51.68,1.51,1.51s-.68,1.51-1.51,1.51-1.51-.68-1.51-1.51.68-1.51,1.51-1.51M130.67.8c.97,0,1.77.79,1.77,1.77s-.79,1.77-1.77,1.77-1.77-.8-1.77-1.77.8-1.77,1.77-1.77M41.48,10.92h12.63v2.1h-12.63v-2.1ZM29.02,14.26c-.04-.4-.06-.8-.06-1.21,0-6.94,5.66-12.59,12.6-12.59,3.95,0,7.49,1.84,9.8,4.7l-1.81,1.04c-1.93-2.25-4.8-3.68-7.99-3.68-5.8,0-10.53,4.73-10.53,10.53,0,.41.02.81.07,1.21.6,5.23,5.07,9.32,10.46,9.32,4.87,0,8.98-3.33,10.18-7.83h2.12c-1.24,5.65-6.29,9.9-12.3,9.9-6.53,0-11.93-5.01-12.54-11.39M99.69.79v20.47L114.78.55v17.81L127.6.79v24.13h-2.06V7.25l-12.97,17.81V7.25s-12.88,17.68-12.88,17.68h-2.06V7.25l-12.97,17.81V7.25l-12.88,17.68h-14.93V1.23h14.95v2.1h-12.85v7.59h11.77v2.1h-11.77v9.81h11.69L86.86.55v17.81L99.69.79Z"/>
</svg>