<?xml version="1.0" encoding="UTF-8"?>
<svg id="Layer_1" xmlns="http://www.w3.org/2000/svg" version="1.1" viewBox="0 0 118.51 40.17">
  <!-- Generator: Adobe Illustrator 29.5.1, SVG Export Plug-In . SVG Version: 2.1.0 Build 141)  -->
  <defs>
    <style>
      .st0 {
        fill: #1b75bc;
      }
    </style>
  </defs>
  <g>
    <path class="st0" d="M28.65,24.08c0,3.44-2.4,5.7-6.14,5.7h-6.65c-1.79-.03-2.73-.93-2.73-2.57v-14.23c.02-1.67.97-2.57,2.73-2.57h5.29c4.07,0,6.53,2.02,6.53,5.38,0,1.56-.52,2.69-1.71,3.62,1.77,1.12,2.68,2.71,2.68,4.68ZM21.06,18c1.48,0,2.24-.58,2.24-1.71s-.85-1.79-2.24-1.79h-3.23v3.5h3.23ZM21.56,25.75c1.47,0,2.38-.75,2.38-2s-.91-2.03-2.34-2.03h-3.76v4.02h3.73Z"/>
    <path class="st0" d="M35.46,27v.49c-.03,1.5-.94,2.49-2.34,2.49s-2.34-1.02-2.34-2.49v-14.52c0-1.67.95-2.57,2.71-2.57h3.68c5.22,0,8.57,2.74,8.57,7.05,0,2.69-1.64,4.74-4.62,5.76l3.46,2.4c.88.61,1.3,1.3,1.3,2.09,0,1.24-.99,2.25-2.31,2.25-.51,0-1.06-.2-1.61-.63l-6.5-5.09v2.78ZM37.19,20.4c2.7,0,4.04-.95,4.04-2.92s-1.31-2.92-4.12-2.92h-1.65v5.84h1.73Z"/>
    <path class="st0" d="M52.27,18.06h5.16c1.31.03,2.16.73,2.16,1.82s-.88,1.85-2.16,1.85h-5.16v3.97h6.64c1.46.03,2.37.81,2.37,2.05s-.94,2.02-2.37,2.02h-8.63c-1.75-.03-2.7-.93-2.7-2.57v-14.23c0-1.67.95-2.57,2.7-2.57h8.48c1.46.03,2.38.81,2.38,2.02s-.97,2.05-2.38,2.05h-6.49v3.59Z"/>
    <path class="st0" d="M76.82,12.16c.52-1.36,1.19-1.97,2.27-1.97s1.97.72,2.28,1.97l3.68,14.28.12.49c.1.26.12.55.12.84,0,1.18-1.03,2.14-2.31,2.14-1.19,0-2.03-.7-2.33-1.94l-.13-.46-2.01-7.78-2.7,8.3c-.46,1.36-1.07,1.9-2.13,1.9s-1.73-.63-2.16-1.9l-2.67-8.3-1.94,7.75-.12.5c-.34,1.26-1.15,1.94-2.34,1.94-1.28,0-2.28-.96-2.28-2.17,0-.26.03-.52.09-.78l.12-.49,3.57-14.43c.27-1.13,1.12-1.85,2.21-1.85s1.73.58,2.18,1.71l3.31,8.64,3.16-8.38Z"/>
    <path class="st0" d="M91.66,26.48l-.64,1.39-.21.47c-.52,1.06-1.24,1.56-2.25,1.56-1.27,0-2.33-.95-2.33-2.11,0-.4.09-.84.3-1.24l.21-.46,6.75-14.38c.42-.89,1.19-1.38,2.21-1.38s1.83.51,2.25,1.38l6.92,14.32c.09.23.19.38.21.46.22.46.31.9.31,1.3,0,1.16-1.1,2.14-2.38,2.14-.99,0-1.75-.52-2.27-1.56l-.21-.47-.7-1.42h-8.17ZM95.72,17.05l-2.4,5.58h4.89l-2.5-5.58Z"/>
  </g>
  <path class="st0" d="M118.51,20.08v-.02c0-10.75-8.34-19.56-19-20.06H19.01C8.35.5,0,9.31,0,20.06v.05c0,10.75,8.35,19.56,19.01,20.06h80.49c10.67-.5,19.01-9.31,19.01-20.06,0,0,0-.02,0-.03ZM110.48,32.21c-2.97,2.97-6.84,4.66-10.98,4.89l-80.48.03c-4.18-.21-7.99-1.92-10.99-4.92-3.23-3.23-5.01-7.54-5.02-12.12,0-4.59,1.79-8.89,5.02-12.12,3.19-3.19,7.41-4.94,11.91-4.94h78.63c4.49,0,8.71,1.75,11.91,4.94,3.23,3.23,5.01,7.53,5.01,12.12,0,4.58-1.78,8.89-5.01,12.12Z"/>
</svg>