<?xml version="1.0" encoding="UTF-8"?>
<svg id="Layer_1" xmlns="http://www.w3.org/2000/svg" version="1.1" viewBox="0 0 224.17 51.48">
  <!-- Generator: Adobe Illustrator 29.5.1, SVG Export Plug-In . SVG Version: 2.1.0 Build 141)  -->
  <defs>
    <style>
      .st0 {
        fill: #5fafe1;
      }

      .st1 {
        fill: #fff;
      }
    </style>
  </defs>
  <g>
    <rect class="st0" x=".45" y="27.46" width="223.27" height="23.65"/>
    <path class="st0" d="M223.49.68v50.13H.67V.68h222.82M224.17,0H0v51.48h224.17V0h0Z"/>
    <g>
      <path class="st0" d="M26.95,14.17h6.55c3.22,0,4.31,1,4.31,3.97,0,2.66-.46,3.37-2.4,3.75v.1c1.52.08,2.28.98,2.26,2.6v2.9h-2.58v-2.4c.04-1.46-.58-2.08-2-2.04h-3.59v4.43h-2.56v-13.32ZM33.08,20.88c.8,0,1.32-.12,1.62-.4.42-.34.52-.74.52-1.88,0-1.88-.32-2.24-1.96-2.24h-3.75v4.51h3.57Z"/>
      <path class="st0" d="M42.22,19.74h6.21v1.88h-6.21v3.75h6.61v2.12h-9.17v-13.32h9.11v2.12h-6.55v3.45Z"/>
      <path class="st0" d="M58.1,18.07v-.24c0-1.46-.42-1.76-2.48-1.76-2.42,0-2.9.3-2.9,1.82,0,.96.24,1.4.88,1.6.34.1.46.1,2.54.22,2.24.14,3,.28,3.63.74.82.56,1.1,1.34,1.1,3.03s-.24,2.56-.82,3.14c-.8.78-1.82,1-4.59,1-2.42,0-3.23-.14-4.11-.66-.5-.3-.92-.94-1.06-1.64-.12-.58-.14-.98-.16-2.04h2.46c0,1,.06,1.34.28,1.68.32.54.64.6,2.72.6,1.5,0,1.92-.06,2.3-.36.34-.24.48-.76.48-1.68s-.2-1.3-.74-1.48q-.32-.12-2.54-.26c-2.28-.14-2.76-.22-3.43-.54-1.06-.52-1.48-1.48-1.48-3.31,0-1.58.34-2.56,1.06-3.07.82-.62,1.86-.8,4.33-.8s3.57.26,4.23,1c.52.58.76,1.38.76,2.54v.48h-2.46Z"/>
      <path class="st0" d="M71.84,14.49c1.2.54,1.88,1.5,2.14,3.06.1.6.14,1.38.14,3.15,0,3.19-.12,4.07-.68,5.07-.48.84-1.36,1.42-2.56,1.66-.54.12-1.6.18-2.9.18-1.98,0-2.98-.16-3.79-.6-1.06-.58-1.6-1.44-1.84-2.91-.1-.62-.12-1.26-.12-2.92,0-3.43.14-4.41.76-5.39.5-.78,1.38-1.34,2.48-1.56.52-.12,1.62-.18,2.82-.18,1.9,0,2.78.12,3.55.44ZM64.83,21.38c0,2.34.1,2.94.58,3.49.38.44.98.54,3.02.54s2.5-.22,2.84-1.18c.24-.66.26-1,.26-3.49,0-2.1,0-2.16-.1-2.78-.12-.78-.44-1.28-.94-1.5-.44-.18-.94-.22-2.44-.22-1.62,0-2.16.1-2.58.52-.44.42-.62,1.12-.64,2.44v2.18Z"/>
      <path class="st0" d="M78.57,25.26h6.21v2.24h-8.77v-13.32h2.56v11.08Z"/>
      <path class="st0" d="M97.08,14.17v8.87c0,1.64-.2,2.54-.7,3.19-.4.52-.98.92-1.74,1.14-.52.16-1.56.24-3.1.24-1.96,0-2.86-.1-3.63-.44-1.44-.62-1.9-1.58-1.9-3.99v-9.01h2.56v9.01c0,1.94.4,2.24,3,2.24s2.95-.28,2.95-2.34v-8.91h2.56Z"/>
      <path class="st0" d="M104.83,27.49h-2.56v-11.08h-3.85v-2.24h10.34v2.24h-3.93v11.08Z"/>
      <path class="st0" d="M112.67,19.74h6.21v1.88h-6.21v3.75h6.61v2.12h-9.17v-13.32h9.11v2.12h-6.55v3.45Z"/>
    </g>
    <path class="st0" d="M197.23,19.79l-5.33,1.63-12.38-12.92h0s0,0,0,0h0s-.02-.02-.02-.02l-.03.03h-1.43v-1.51h-.79v1.51h-2.18l-.06-.03v.02s-.01,0-.01,0h0s-1.68,3.36-1.68,3.36l-4.65-5.56h0s0,0,0,0h0s-.01-.02-.01-.02l-.04.03h-2.18v-2.79h-.79v2.79h-2.19l-.05-.03v.02s-.01,0-.01,0h0s-4.95,8.65-4.95,8.65l-.53-2.39h.46v-.34h-.53l-.76-3.41v-.02s0,0,0,0h0s-.02,0-.02,0l-.18.02h0s-1.73,0-1.73,0v-1.81h-.79v1.81h-1.74l-.06-.04-.42,3.45h-.38v.34h.34l-.43,3.52h-1.03v.34h.99l-.96,7.8c-1.07,0-1.69,0-1.69,0,0,0,.82,2.13,1.72,2.13l.52,1.5h29.26l6.34-4.26,10.47-3.64-.05-.15ZM191.68,21.49l-3.94,1.21-7.79-13.45,11.73,12.24ZM174.37,12.22h2.87v3.52h-.7l-2.33-2.8.16-.72ZM177.24,16.07v.5l-.42-.5h.42ZM176.28,15.73h-2.69l.57-2.55,2.13,2.55ZM176.56,16.07l.68.82v7.14s-.01,0-.02,0l-3.75-7.78.04-.18h3.05ZM177.01,24.04c-1.66.1-3.45.17-5.32.2l1.71-7.67,3.61,7.47ZM175.13,8.85h2.12v3.03h-2.8l.68-3.03ZM174.81,9.33l-.57,2.55h-.49v.34h.42l-.12.52-.59-.71,1.35-2.7ZM173.36,12.23l.63.76-.61,2.74h-.16l-.79-1.64.93-1.86ZM173.22,12.06l-.9,1.8-3.29-6.81,4.19,5.01ZM172.21,14.09l-5.08,10.15c-.23,0-.46,0-.7,0v-9.37h4.58v-.34h-4.58v-4.41h3.5v-.34h-3.5v-3.14h2.18l3.59,7.45ZM155.14,24.22v-3.12l2.62-4.58.52,4.47-1.12,3.24c-.7,0-1.38,0-2.02,0ZM157.59,16.41l-2.46,4.29v-4.29h2.46ZM158.55,16.41l.51,2.32-.63,1.82-.48-4.15h.6ZM155.14,16.07v-3.52h2.17l.41,3.52h-2.57ZM154.35,24.22c-.35,0-.68,0-1,0l1-1.74v1.75ZM158.33,21.45l.32,2.78c-.44,0-.87,0-1.29,0l.96-2.77ZM158.48,21.01l.66-1.91,1.14,5.13c-.48,0-.96,0-1.43,0l-.37-3.22ZM159.28,18.74l3-8.62h3.38v4.41h-4.58v.34h4.58v9.37c-1.75,0-3.49,0-5.15,0l-1.22-5.49ZM163.48,6.64h2.17v3.14h-3.26l1.09-3.14ZM163.03,7.33l-.85,2.45h-.02v.07l-2.96,8.51-.43-1.96h.61v-.34h-.69l-.18-.83,4.53-7.9ZM158.48,16.07h-.46l.33-.57.13.57ZM158.28,15.2l-.39.68-.39-3.33h.19l.59,2.65ZM157.62,12.21h-.15l-.17-1.45.32,1.45ZM157.26,12.21h-2.13v-3.07h1.77l.35,3.07ZM152.71,9.15h1.64v3.07h-2.02l.38-3.07ZM152.29,12.55h2.06v3.52h-2.49l.43-3.52ZM150.86,24.21l.96-7.81h2.53v5.66l-1.23,2.15c-.87,0-1.63,0-2.26,0ZM167.36,24.24l4.96-9.92.68,1.41h-.34v.34h.5l.1.2-1.78,7.97c-.37,0-.74,0-1.11,0-.99,0-2,0-3.01,0ZM178.03,23.97v-6.14l4.77,5.72c-1.38.15-2.99.3-4.77.43ZM186.49,23.08c-.83.12-2,.28-3.44.44l-5.01-6.01v-1.44h3.37v-.34h-3.37v-3.52h2.32v-.34h-2.32v-3.03h1.45l8.06,13.91-1.05.32Z"/>
  </g>
  <g>
    <path class="st1" d="M41.58,41.19h-1.41v-7.36h1.41v7.36Z"/>
    <path class="st1" d="M48.84,38.56v.25c0,1.1-.11,1.51-.51,1.89-.23.22-.62.41-1.03.49-.23.03-.88.07-1.53.07-1.27,0-1.61-.06-2.1-.33-.64-.34-.91-.89-.99-1.94-.03-.42-.06-1.32-.06-2,0-1.53.14-2.1.64-2.57.55-.53,1.1-.65,2.89-.65,1.17,0,1.63.1,2.01.42.31.26.5.65.56,1.19.02.18.03.4.04.9h-1.4c-.02-1.18-.15-1.3-1.41-1.3-.94,0-1.35.08-1.57.29-.19.19-.26.45-.29,1.01q-.01.19-.01,1.19c0,2.42.1,2.57,1.68,2.57,1.43,0,1.68-.18,1.68-1.17,0-.07,0-.17-.01-.31h1.4Z"/>
    <path class="st1" d="M51.18,36.91h3.43v1.04h-3.43v2.07h3.65v1.17h-5.06v-7.36h5.03v1.17h-3.62v1.91Z"/>
    <path class="st1" d="M62.72,35.98v-.13c0-.81-.23-.97-1.37-.97-1.33,0-1.6.17-1.6,1,0,.53.13.77.49.88.19.06.25.06,1.4.12,1.24.08,1.65.15,2.01.41.45.31.61.74.61,1.68s-.13,1.41-.45,1.73c-.44.43-1,.55-2.54.55-1.33,0-1.79-.08-2.27-.36-.28-.17-.51-.52-.58-.9-.07-.32-.08-.54-.09-1.12h1.36c0,.55.03.74.15.93.18.3.35.33,1.5.33.83,0,1.06-.03,1.27-.2.19-.13.26-.42.26-.93s-.11-.72-.41-.82q-.18-.07-1.4-.14c-1.26-.08-1.52-.12-1.9-.3-.58-.29-.82-.82-.82-1.83,0-.87.19-1.41.58-1.7.45-.34,1.03-.44,2.39-.44s1.97.14,2.34.55c.29.32.42.76.42,1.4v.26h-1.36Z"/>
    <path class="st1" d="M68.47,38.38v2.81h-1.41v-2.81l-2.65-4.54h1.61l1.11,1.94c.09.15.18.32.47.89l.15.3h.03l.17-.3c.28-.55.36-.69.47-.89l1.12-1.94h1.63l-2.72,4.54Z"/>
    <path class="st1" d="M75.84,35.98v-.13c0-.81-.23-.97-1.37-.97-1.33,0-1.6.17-1.6,1,0,.53.13.77.49.88.19.06.25.06,1.4.12,1.24.08,1.65.15,2.01.41.45.31.61.74.61,1.68s-.13,1.41-.45,1.73c-.44.43-1,.55-2.54.55-1.33,0-1.79-.08-2.27-.36-.28-.17-.51-.52-.58-.9-.07-.32-.08-.54-.09-1.12h1.36c0,.55.03.74.15.93.18.3.35.33,1.5.33.83,0,1.06-.03,1.27-.2.19-.13.26-.42.26-.93s-.11-.72-.41-.82q-.18-.07-1.4-.14c-1.26-.08-1.52-.12-1.9-.3-.58-.29-.82-.82-.82-1.83,0-.87.19-1.41.58-1.7.45-.34,1.03-.44,2.39-.44s1.97.14,2.34.55c.29.32.42.76.42,1.4v.26h-1.36Z"/>
    <path class="st1" d="M81.38,41.19h-1.41v-6.12h-2.13v-1.24h5.71v1.24h-2.17v6.12Z"/>
    <path class="st1" d="M85.71,36.91h3.43v1.04h-3.43v2.07h3.65v1.17h-5.06v-7.36h5.03v1.17h-3.62v1.91Z"/>
    <path class="st1" d="M98.99,41.19h-1.39v-4.01c0-.53.01-.67.05-1.63l.02-.54h-.04l-.17.51c-.31.96-.39,1.21-.51,1.53l-1.62,4.15h-1.27l-1.63-4.11c-.14-.35-.22-.58-.53-1.53l-.17-.51h-.04l.03.53c.04.93.05,1.16.05,1.61v4.01h-1.39v-7.36h2.27l1.31,3.41c.13.34.21.58.52,1.52l.17.52h.04l.17-.51c.29-.93.37-1.18.5-1.52l1.3-3.42h2.32v7.36Z"/>
    <path class="st1" d="M104.37,35.98v-.13c0-.81-.23-.97-1.37-.97-1.33,0-1.6.17-1.6,1,0,.53.13.77.49.88.19.06.25.06,1.4.12,1.24.08,1.65.15,2.01.41.45.31.61.74.61,1.68s-.13,1.41-.45,1.73c-.44.43-1,.55-2.54.55-1.33,0-1.79-.08-2.27-.36-.28-.17-.51-.52-.58-.9-.07-.32-.08-.54-.09-1.12h1.36c0,.55.03.74.15.93.18.3.35.33,1.5.33.83,0,1.06-.03,1.27-.2.19-.13.26-.42.26-.93s-.11-.72-.41-.82q-.18-.07-1.4-.14c-1.26-.08-1.52-.12-1.9-.3-.58-.29-.82-.82-.82-1.83,0-.87.19-1.41.58-1.7.45-.34,1.03-.44,2.39-.44s1.97.14,2.34.55c.29.32.42.76.42,1.4v.26h-1.36Z"/>
  </g>
  <path class="st1" d="M181.07,28.14h-30.12v.81h3.4l-2.81,2.81.57.57,3.38-3.38h2.45l-1.83,1.83.57.57,2.41-2.41h5.96l-5.23,5.23h-4.02v.81h3.21l-1.25,1.25h-4.02v.81h3.21l-2.45,2.45-.99-.99-.57.57.99.99-1.3,1.3.57.57,1.3-1.3.99.99.57-.57-.99-.99,2.45-2.44v3.21h.81v-4.02l1.25-1.25v3.21h.81v-4.02l5.24-5.24v2.77l-2.02,2.02,2.02,2.02v2.73l-3.47,3.46.57.57,2.89-2.89v3.76h-1.8v.81h1.8v.84h-1.24v.81h1.24v1.17h.81v-1.17h1.24v-.81h-1.24v-.84h1.8v-.81h-1.8v-3.76l2.89,2.89.57-.57-3.47-3.46v-2.73l2.02-2.02-2.02-2.02v-2.75l5.22,5.22v4.02h.81v-3.21l1.25,1.25v4.02h.81v-3.21l2.45,2.45-.99.99.57.57.99-.99,1.3,1.3.57-.57-1.3-1.3.99-.99-.57-.57-.99.99-2.45-2.45h3.21v-.81h-4.02l-1.25-1.25h3.21v-.81h-4.02l-5.23-5.23h5.96l2.41,2.41.57-.57-1.83-1.83h2.45l3.38,3.38.57-.57-2.81-2.81h3.36v-.81ZM164.76,34.3l.88-.88v1.75l-.88-.88ZM167.32,34.3l-.88.88v-1.75l.88.88Z"/>
</svg>