<?xml version="1.0" encoding="UTF-8"?>
<svg id="Layer_1" xmlns="http://www.w3.org/2000/svg" version="1.1" viewBox="0 0 141.96 51.35">
  <!-- Generator: Adobe Illustrator 29.5.1, SVG Export Plug-In . SVG Version: 2.1.0 Build 141)  -->
  <defs>
    <style>
      .st0 {
        fill: #151614;
      }

      .st1 {
        fill: #161715;
      }

      .st2 {
        fill: #d90d15;
      }
    </style>
  </defs>
  <g>
    <path class="st2" d="M69.19,51.35c-.24-.03-.45-.08-.67-.09-2.29-.17-4.51-.67-6.67-1.44-1.81-.65-3.52-1.52-5.16-2.54-1.74-1.08-3.29-2.37-4.71-3.83-1.34-1.39-2.48-2.93-3.49-4.57-.89-1.44-1.61-2.96-2.18-4.56-.04-.13-.1-.25-.15-.37-.02-.04-.02-.08-.04-.16.11,0,.21,0,.31,0,1.59,0,3.18,0,4.76,0,.81,0,1.42-.3,1.81-1.02.02-.03.04-.05.08-.1.24.62.67,1,1.31,1.1.17.03.36.01.54.01,1.75,0,3.5-.02,5.25,0,1.04.02,1.6-.51,1.87-1.42,0-.03.02-.06.02-.08.13.26.22.54.39.78.33.48.81.72,1.39.72,1.91,0,3.82,0,5.73,0,.42,0,.78-.15,1.15-.48,0,.17,0,.29,0,.41-.03,1.11-.05,2.22-.08,3.33-.02.88-.05,1.75-.05,2.63,0,1.12.81,1.92,1.93,1.92,1.87,0,3.75,0,5.62,0,.7,0,1.18-.35,1.49-.96.28-.56.39-1.18.38-1.8,0-1.05-.07-2.09-.1-3.14-.01-.5,0-1,0-1.53,3.7-.28,6.73-1.71,8.67-5.06,1.51,2.57,3.7,4.14,6.59,4.82-.18.47-.32.94-.53,1.38-.46.98-.9,1.97-1.43,2.91-.84,1.51-1.85,2.91-2.97,4.22-1.36,1.59-2.9,2.99-4.62,4.18-1.39.96-2.86,1.79-4.41,2.47-1.91.85-3.9,1.48-5.96,1.82-1.03.17-2.08.25-3.13.39-.98.02-1.95.02-2.94.02Z"/>
    <path class="st2" d="M72.32,0c.26.03.49.07.72.09,2.33.19,4.59.73,6.78,1.54,1.76.66,3.42,1.52,5.02,2.52,1.33.84,2.53,1.83,3.68,2.9,1.46,1.37,2.75,2.88,3.84,4.56.76,1.18,1.43,2.41,2,3.71-2.36.8-4.32,2.13-5.57,4.3-.44-.59-.85-1.2-1.31-1.76-.65-.79-1.51-1.31-2.43-1.72-1.45-.64-2.99-.86-4.55-.88-2.64-.03-5.27,0-7.91-.04-1.13-.02-2.1.86-2,2.17.02.29.03.59.04.92-.27-.35-.5-.68-.76-.98-.81-.91-1.8-1.5-2.98-1.8-.92-.23-1.86-.29-2.79-.3-.97-.01-1.93,0-2.9.03-.77.03-1.49.27-2.19.57-.12.05-.3.06-.43.02-1.23-.44-2.51-.64-3.81-.68-.43-.02-.86.06-1.29.06-2.08,0-4.16,0-6.24,0-.05,0-.11,0-.16,0C49.96,8.18,57.85.76,69,.02,70.1,0,71.2,0,72.32,0Z"/>
    <path class="st0" d="M0,9.98c2.26-.03,4.52-.03,6.8-.03v7.96c.72.02,1.33-.18,1.86-.65.63-.56,1.02-1.29,1.38-2.02.64-1.33,1.24-2.68,1.85-4.03.17-.37.33-.75.5-1.12.03-.06.14-.13.22-.13,1.7,0,3.41,0,5.12,0-.25.43-.53.83-.74,1.26-.37.75-.7,1.52-1.05,2.28-.51,1.1-.97,2.22-1.53,3.29-.47.9-.96,1.82-1.76,2.5-.34.29-.71.54-1.06.8.39.17.79.33,1.19.52.98.48,1.69,1.24,2.18,2.2.58,1.13.99,2.33,1.35,3.54.31,1.06.59,2.13.92,3.19.21.68.49,1.34.73,2,.04.1.07.2.11.31h-7.04c-.11-.46-.21-.92-.33-1.39-.43-1.73-.84-3.47-1.33-5.18-.19-.67-.54-1.32-.9-1.93-.35-.59-.93-.89-1.66-.89v9.39c-2.27,0-4.52,0-6.79,0-.03-1.1-.03-2.19,0-3.32.04-1.5.09-2.97.08-4.44,0-3.79-.03-7.58-.05-11.38,0-.06-.03-.12-.05-.18,0-.84,0-1.69,0-2.56Z"/>
    <path class="st1" d="M57.92,31.96h-3.19c0-.47,0-.92,0-1.38,0-1.66.02-3.33.01-4.99,0-.81-.03-1.63-.1-2.44-.09-1.06-.45-2-1.41-2.61-.56-.35-1.17-.47-1.84-.47-.19,3.96-.19,7.91,0,11.87h-5.73c.19-4.96.21-9.91,0-14.9.12,0,.22,0,.31,0,2.96,0,5.92,0,8.88,0,.95,0,1.9.03,2.8.4.41.17.79.4,1.21.62.59-.5,1.3-.84,2.11-.97.11-.02.23-.04.35-.04,1.53.01,3.07-.12,4.59.13,1.46.24,2.59.99,3.23,2.37.34.74.41,1.54.4,2.34-.02,2.22-.07,4.44-.08,6.66,0,1.13.06,2.25.09,3.4h-5.63c0-.72,0-1.43,0-2.15,0-.35.03-.7.03-1.05,0-.9.02-1.79-.01-2.69-.04-1.13-.07-2.27-.22-3.39-.16-1.2-.84-2.08-2.04-2.44-.4-.12-.84-.13-1.29-.2-.1,4.01-.22,7.96,0,11.94h-2.48Z"/>
    <path class="st0" d="M114.4,23.72c.03.73.03,1.44.09,2.14.08.98.39,1.87,1.21,2.5.6.47,1.29.64,2.1.65v-11.95h5.57v14.88h-.26c-2.56,0-5.11,0-7.67,0-.69,0-1.38.01-2.07-.03-.91-.05-1.79-.21-2.59-.68-.49-.29-.88-.7-1.24-1.13-.64-.75-.76-1.66-.77-2.58-.01-1.63.06-3.26.06-4.88,0-1.8-.06-3.6-.09-5.4,0-.05,0-.11,0-.17h5.66v6.66Z"/>
    <path class="st1" d="M129.34,24.33c.69-1.42,1.37-2.82,2.08-4.26-1.85-.11-3.67-.16-5.51,0,.26-1.01.51-2.01.77-3.01h11.65c-1.98,3.81-3.97,7.62-5.97,11.48h6.43c-.37,1.15-.73,2.29-1.1,3.42h-12.36c1.34-2.54,2.68-5.08,4.02-7.63Z"/>
    <path class="st1" d="M23.79,31.96h-4.34c.05-2.5.14-4.98.14-7.47,0-2.48-.08-4.95-.13-7.44h5.67v1.5c.42-.6.91-1.01,1.49-1.32.75-.39,1.53-.68,2.41-.55.17.02.23.07.22.25-.05.92-.1,1.84-.14,2.76-.05.88-.1,1.76-.15,2.67-.22-.13-.4-.26-.6-.37-.69-.4-1.44-.42-2.21-.34-.3.03-.6.1-.9.14-.14.02-.19.08-.19.23-.02,1.08-.07,2.17-.06,3.25.02,1.89.08,3.78.12,5.66,0,.33,0,.66,0,1.02h-1.31Z"/>
    <path class="st0" d="M87,20.34c-.79-1.48-2.03-2.41-3.63-2.88-1.18-.35-2.39-.4-3.61-.41-2.34,0-4.68,0-7.02,0h-.31c0,.19.02.35.02.51.04,1.57.08,3.15.11,4.72.03,1.4.06,2.8.05,4.19-.03,3.67-.08,7.34-.12,11.04v2.25h5.66c-.07-2.45-.15-4.88,0-7.28.9-.08,1.77-.13,2.64-.24,1.58-.2,3.05-.73,4.3-1.75.51-.41,1.01-.83,1.38-1.39.68-1.04,1.12-2.16,1.33-3.38.33-1.88.09-3.69-.81-5.38ZM81.92,25.45c-.09.56-.28,1.1-.43,1.65,0,0,0,0,0,0,0,0,0,0,0,.01-.57,1.24-1.48,2.06-2.79,2.41-.18.05-.36.07-.56.1v-10.3c.52-.03,1.02.04,1.5.25,1.25.54,1.93,1.51,2.18,2.84.19,1.01.28,2.02.11,3.04Z"/>
    <path class="st1" d="M105.67,20.83c-.41-.86-.93-1.62-1.66-2.24-1.22-1.04-2.65-1.61-4.22-1.83-2.23-.32-4.4-.12-6.44.95-.99.52-1.83,1.21-2.5,2.1-.89,1.18-1.39,2.5-1.51,4-.05.76-.04,1.49.11,2.22.37,1.8,1.17,3.34,2.65,4.5,1.45,1.14,3.11,1.68,4.91,1.88,1.36.15,2.69.02,4-.36,1.45-.42,2.67-1.21,3.67-2.3,1.36-1.48,1.9-3.29,1.83-5.29-.04-1.27-.31-2.47-.86-3.62ZM100.02,24.65c.03,1.09-.09,2.14-.39,3.15-.1.36-.27.69-.43,1.03-.47.99-1.96,1.06-2.6.03-.36-.58-.54-1.22-.66-1.88-.31-1.81-.31-3.61.19-5.39.17-.61.42-1.2.9-1.65.77-.73,1.69-.43,2.11.34.26.49.48,1.03.57,1.57.16.91.21,1.84.3,2.77,0,0,0,.02,0,.02,0,0,0,0,0,0Z"/>
    <path class="st1" d="M43.12,29.19c0-1.57.04-3.13.05-4.7,0-1.22.03-2.43-.02-3.65-.03-.69-.21-1.36-.57-1.96-.64-1.05-1.62-1.6-2.78-1.89-1.86-.47-3.74-.43-5.62-.2-.56.07-1.12.15-1.67.23-.61.09-1.21.19-1.83.28-.08.95-.15,1.86-.23,2.8.66-.08,1.29-.13,1.91-.25.86-.16,1.7-.18,2.55.02.71.16,1.41.35,1.94.9.48.5.73,1.08.66,1.8-.16,0-.31,0-.45,0-1.21.05-2.42.05-3.62.17-1.88.18-3.39,1.04-4.15,2.83-.65,1.53-.69,3.09.42,4.49.53.67,1.22,1.12,2.01,1.41,1.08.4,2.21.5,3.35.5,2.66.02,5.33,0,8.02,0,.06-.08.12-.15.12-.23-.03-.85-.1-1.7-.1-2.55ZM37.39,29.29s0,0-.01,0c0,0,0,.01,0,.02-.93.11-1.8-.44-2.11-1.31-.31-.85-.01-1.88.74-2.32.34-.2.76-.27,1.16-.37.18-.05.25.06.24.25,0,1.25,0,2.49,0,3.74Z"/>
  </g>
  <path d="M141.49,20.09c-.31.32-.7.47-1.14.47s-.83-.16-1.14-.47c-.31-.31-.47-.7-.47-1.14s.16-.82.47-1.14c.31-.31.69-.47,1.14-.47s.83.16,1.14.47.47.69.47,1.14-.16.83-.47,1.14ZM139.37,17.96c-.27.27-.4.6-.4.98s.13.72.4.99c.27.27.6.41.98.41s.71-.14.98-.41c.27-.27.4-.6.4-.99s-.13-.71-.4-.98c-.27-.27-.6-.41-.98-.41s-.71.14-.98.41ZM140.32,18.05c.22,0,.38.02.48.06.18.08.27.23.27.45,0,.16-.06.28-.17.35-.06.04-.15.07-.26.09.14.02.24.08.3.17.06.09.1.18.1.27v.13s0,.08,0,.13,0,.08.02.09v.02s-.28,0-.28,0v-.02s0-.01,0-.02v-.06s0-.14,0-.14c0-.2-.06-.34-.17-.41-.07-.04-.18-.06-.35-.06h-.25v.7h-.31v-1.77h.62ZM140.66,18.33c-.08-.04-.2-.07-.38-.07h-.27v.64h.28c.13,0,.23-.01.3-.04.12-.05.18-.14.18-.28s-.04-.22-.12-.26Z"/>
</svg>