<?xml version="1.0" encoding="UTF-8"?>
<svg id="Layer_1" xmlns="http://www.w3.org/2000/svg" version="1.1" viewBox="0 0 165.9 28.36">
  <!-- Generator: Adobe Illustrator 29.5.1, SVG Export Plug-In . SVG Version: 2.1.0 Build 141)  -->
  <defs>
    <style>
      .st0 {
        fill: #009bd9;
      }
    </style>
  </defs>
  <path d="M164.83,6.3c-.72.72-1.58,1.08-2.6,1.08s-1.88-.36-2.59-1.08c-.71-.71-1.06-1.58-1.06-2.6s.36-1.87,1.07-2.59c.71-.71,1.57-1.07,2.58-1.07s1.88.35,2.6,1.07,1.07,1.57,1.07,2.59-.36,1.88-1.07,2.6ZM160.01,1.47c-.61.62-.92,1.36-.92,2.23s.3,1.63.91,2.24c.61.62,1.36.93,2.23.93s1.62-.31,2.23-.93c.61-.62.92-1.37.92-2.24s-.31-1.61-.92-2.23c-.62-.62-1.36-.93-2.23-.93s-1.61.31-2.22.93ZM162.16,1.67c.5,0,.86.05,1.1.15.41.17.62.51.62,1.02,0,.36-.13.63-.39.79-.14.09-.33.16-.58.2.31.05.54.18.69.39.15.21.22.42.22.62v.29c0,.09,0,.19,0,.3s.02.18.04.21l.02.05h-.66v-.04s-.02-.03-.02-.04l-.02-.13v-.32c0-.46-.13-.77-.38-.92-.15-.09-.41-.13-.79-.13h-.56v1.58h-.71V1.67h1.41ZM162.93,2.31c-.18-.1-.46-.15-.86-.15h-.61v1.46h.64c.3,0,.53-.03.68-.09.28-.11.42-.32.42-.63s-.09-.49-.27-.59Z"/>
  <g>
    <path class="st0" d="M33.34,14.34c.04-.28-.06-.41-.12-.55-.43-.95-1.03-1.79-1.76-2.53-2.44-2.47-5.5-3.79-8.82-4.58-.11-.03-.22,0-.31.07-.17.61-.15,7.02.03,7.59h10.98ZM20.5,15.85H7.53c-.93,1.5-.99,3.1-.74,4.75.69.17,13.21.15,13.74,0,.15-.58.15-4.1-.02-4.74M33.58,26.45c1.5-1.17,1.85-3.8,1.14-5.17-.83-.17-13.08-.11-13.54.06-.14.86-.1,4.6.08,5.11h12.32ZM20.63,14.79c0-2.43,0-4.89,0-7.35,0-2.46,0-4.92,0-7.39.58-.14,1.07.01,1.54.08,3.21.48,6.3,1.37,9.19,2.91,3.2,1.7,5.82,4.02,7.72,7.12,1.3,2.11,2.09,4.41,2.51,6.84.34,1.93.5,3.87.39,5.82-.09,1.65-.24,3.3-.53,4.94-.02.14-.07.26-.21.4H.97c-.29-.65-.38-1.32-.5-1.97C.05,23.89-.09,21.56.05,19.23c.22-3.57,1.13-6.94,3.08-9.98,1.58-2.46,3.7-4.37,6.23-5.82C12.31,1.75,15.51.84,18.82.28c.2-.03.4-.08.7.09,0,1.88,0,3.82,0,5.72-.25.22-.5.23-.73.3-3.17.87-6,2.35-8.32,4.72-.98,1-1.77,2.14-2.42,3.38-.05.1-.09.2-.04.32.51.16,11.91.18,12.63-.01"/>
    <path class="st0" d="M101.55,28.19h-4.81c-.21-.26-.13-.54-.13-.8,0-3.95,0-7.9,0-11.85,0-.29.05-.58-.09-.86-.18-.23-.43-.33-.69-.4-.88-.24-1.57.27-1.57,1.18,0,3.95,0,7.9,0,11.85,0,.27.05.54-.06.79-.46.16-4.18.21-5.16.07-.22-.24-.13-.55-.13-.83,0-3.81,0-7.63,0-11.45,0-.2,0-.4,0-.61-.05-.71-.44-1.1-1.1-1.09-.71,0-1.15.4-1.2,1.09-.02.2,0,.4,0,.61,0,3.82,0,7.63,0,11.45,0,.26.04.54-.09.84h-5.8c-.19-.25-.12-.51-.12-.74,0-4.4-.03-8.8,0-13.2.02-2.52,1.59-4.67,4.28-5.24,2.18-.46,4.03.14,5.58,1.72.22.22.39.5.79.68.34-.37.68-.79,1.07-1.15,1.31-1.2,2.84-1.88,4.64-1.77,1.18.07,2.3.43,3.25,1.16,1,.77,1.51,1.79,1.5,3.08-.02,4.91,0,9.83,0,14.74,0,.22.04.45-.13.74"/>
    <path class="st0" d="M112.61,22.6c2.17.06,4.15-1.7,4.17-4.04.02-2.22-1.67-4.2-4.11-4.17-2.47.04-4.07,1.78-4.1,4.11-.04,2.18,1.78,4.09,4.05,4.09M103.03,1.88h5.61c.08,2.56-.02,5.11.05,7.61.28.16.44,0,.62-.07,3.89-1.27,7.37-.55,10.32,2.27,1.69,1.62,2.59,3.66,2.79,6.03.24,2.9-.61,5.41-2.55,7.52-1.43,1.56-3.23,2.57-5.33,2.93-3.56.61-6.63-.39-9.08-3.04-1.4-1.52-2.21-3.35-2.44-5.43-.08-.72-.09-1.43-.1-2.15,0-4.94,0-9.87,0-14.81,0-.27-.05-.54.09-.88"/>
    <path class="st0" d="M69.86,21.79c2.19.06,4.18-1.69,4.2-4.09.02-2.2-1.62-4.13-4.15-4.13-2.4,0-4.03,2-4.06,4.02-.03,2.28,1.79,4.17,4.01,4.19M79.78,28.16h-5.76c-.11-.83,0-1.66-.12-2.47-.41.66-.42,1.45-.74,2.14-.39.27-.83.33-1.27.37-2.24.18-4.39-.21-6.39-1.21-2.95-1.48-4.86-3.79-5.36-7.11-.4-2.67.09-5.18,1.61-7.44,1.11-1.64,2.68-2.7,4.55-3.29,2.26-.71,4.59-.88,6.89-.27,2.95.78,5.03,2.58,5.99,5.54.2.62.25,1.28.25,1.92-.01,2.35.12,4.7.21,7.05.06,1.56,0,3.13.15,4.76"/>
    <path class="st0" d="M130.53,15.61c.59.19,5.49.17,6.01-.04-.06-.74-.54-1.14-1.17-1.38-1.06-.4-2.15-.37-3.23-.1-.42.1-.81.27-1.14.56-.28.25-.56.52-.47.96M142.61,20.96h-12c-.08.49.21.72.5.91.94.6,1.97.84,3.08.67.82-.13,1.54-.47,2.19-1.03,1.7.66,3.38,1.31,5.07,1.97-1.86,3.47-7.07,5.88-11.95,3.83-5-2.11-7.32-7.8-5.24-12.77,2.11-5.02,7.67-7.37,12.89-5.21,4.82,2,6.81,7.33,5.45,11.63"/>
    <path class="st0" d="M149.15,28.17h-5.28s-.05-.04-.06-.06-.04-.03-.04-.05c-.02-.13-.05-.26-.05-.4,0-5.97,0-11.93,0-17.9,0-.09.03-.17.07-.35,1.62-.05,3.24-.01,4.83-.02.29.31.07.67.27.99,2.96-2.1,6.11-2.2,9.32-.71,1.95.9,3.33,2.45,4.4,4.41-1.56,1.04-3.08,2.05-4.62,3.08-.4-.35-.61-.8-.92-1.18-.57-.71-1.25-1.3-2.07-1.69-1.57-.75-3.03-.5-4.34.7-.37.33-.66.73-.96,1.12-.17.23-.22.48-.22.76,0,.45,0,.9-.01,1.35-.01,1.93-.11,3.85-.18,5.78-.05,1.36-.02,2.73-.14,4.17"/>
    <path class="st0" d="M59.33,1.79v26.28c-.47.17-5.66.2-6.46.04V1.79h6.46Z"/>
  </g>
</svg>