<?xml version="1.0" encoding="UTF-8"?>
<svg id="Layer_1" xmlns="http://www.w3.org/2000/svg" version="1.1" viewBox="0 0 107.25 46.22">
  <!-- Generator: Adobe Illustrator 29.5.1, SVG Export Plug-In . SVG Version: 2.1.0 Build 141)  -->
  <defs>
    <style>
      .st0 {
        fill: #fff;
      }
    </style>
  </defs>
  <path d="M53.63,0c29.54,0,53.63,10.38,53.63,23.11s-24.09,23.11-53.63,23.11S0,35.84,0,23.11,24.09,0,53.63,0"/>
  <path class="st0" d="M53.63.88c28.93,0,52.53,9.98,52.53,22.22s-23.6,22.22-52.53,22.22S1.1,35.35,1.1,23.11,24.7.88,53.63.88"/>
  <path d="M53.63,4.39c24.37,0,44.24,8.41,44.24,18.72s-19.88,18.72-44.24,18.72S9.38,33.42,9.38,23.11,29.26,4.39,53.63,4.39"/>
  <g>
    <path class="st0" d="M90.16,17.47h.56c.12,0,.21-.01.28-.04.07-.02.12-.06.15-.12.03-.05.05-.11.05-.18,0-.09-.03-.17-.1-.23-.07-.06-.17-.09-.32-.09h-.62v.65ZM89.9,18.56v-1.95h.87c.18,0,.3.02.39.05.09.04.16.1.22.18.05.09.08.19.08.29,0,.14-.05.26-.14.35-.09.09-.23.16-.41.18.07.03.12.07.15.1.08.07.15.16.21.26l.34.53h-.32l-.26-.41c-.08-.12-.14-.21-.19-.27-.05-.06-.09-.11-.13-.13-.04-.02-.08-.04-.12-.05-.03,0-.08-.01-.14-.01h-.3v.87h-.26Z"/>
    <g>
      <path class="st0" d="M51.44,23.12c0-2.44.75-4.41,2.25-5.92,1.49-1.5,4.19-2.26,6.61-2.26s5.13.75,6.63,2.26c1.5,1.51,2.25,3.48,2.25,5.91s-.75,4.42-2.24,5.92c-1.5,1.5-4.2,2.25-6.63,2.25s-5.14-.75-6.62-2.25c-1.49-1.5-2.23-3.47-2.23-5.92M55.87,23.17c0,1.44.45,2.6,1.18,3.46.74.87,2.03,1.3,3.24,1.3s2.52-.44,3.26-1.3c.73-.87,1.18-2,1.18-3.44s-.44-2.7-1.17-3.58c-.73-.88-2.05-1.32-3.27-1.32s-2.52.44-3.25,1.32c-.72.88-1.17,2.06-1.17,3.56"/>
      <path class="st0" d="M14.48,24.07v-6.61c0-.85.18-1.49.54-1.91.37-.42.92-.63,1.67-.63s1.3.21,1.67.63c.36.42.55,1.06.55,1.91v6.21c0,1.39.33,2.43.98,3.13.65.7,1.63,1.05,2.93,1.05s2.26-.35,2.92-1.05c.66-.7.99-1.74.99-3.13v-6.21c0-.85.18-1.49.54-1.91.36-.42.92-.63,1.66-.63s1.3.21,1.66.63c.37.42.55,1.06.55,1.91v6.61c0,2.28-.73,4.04-2.2,5.3-1.47,1.26-3.51,1.89-6.12,1.89s-4.67-.63-6.14-1.89c-1.47-1.26-2.2-3.03-2.2-5.3"/>
      <path class="st0" d="M37.37,28.62c0,.87-.2,1.58-.56,2-.35.42-.9.64-1.63.64s-1.35-.15-1.7-.57c-.36-.42-.51-1.14-.51-2v-11.32c0-.82.17-1.43.5-1.83.34-.4.84-.6,1.52-.6.44,0,.83.09,1.19.27.35.18.72.48,1.11.9l7.91,8.86v-7.47c0-.87.18-1.51.53-1.94.36-.43.9-.64,1.64-.64s1.36.21,1.72.64c.36.43.54,1.08.54,1.94v11.6c0,.77-.16,1.35-.48,1.71-.32.37-.84.49-1.52.49-.45,0-.86-.05-1.25-.26-.39-.21-.79-.55-1.22-1.01l-7.78-8.75v7.34Z"/>
      <path class="st0" d="M90.63,14.96c-1.45,0-2.62,1.17-2.62,2.62s1.17,2.62,2.62,2.62,2.62-1.17,2.62-2.62-1.17-2.62-2.62-2.62ZM90.63,19.7c-1.17,0-2.11-.95-2.11-2.11s.95-2.11,2.11-2.11,2.11.95,2.11,2.11-.95,2.11-2.11,2.11Z"/>
      <path class="st0" d="M85.93,26.79c-.72-.72-3.73-3.67-3.73-3.67,0,0,2.84-2.78,3.83-3.77.94-.94.78-2.85-.33-3.73-1.36-1.08-3.03-.64-3.79.12-.6.61-3.59,3.54-3.59,3.54,0,0-3-2.95-3.72-3.67-.72-.72-2.57-1.05-3.81.19-1.24,1.23-.83,2.87,0,3.71.83.83,3.64,3.62,3.64,3.62,0,0-2.86,2.84-3.75,3.72-.89.89-.95,2.53.18,3.66,1.13,1.13,2.97.9,3.79.08.83-.83,3.68-3.65,3.68-3.65,0,0,2.86,2.83,3.52,3.5.72.73,2.44,1.45,3.91.12,1.4-1.26.89-3.05.17-3.77ZM84.72,29.4c-.48.48-1.3.37-1.61.08-.3-.3-4.78-4.7-4.78-4.7,0,0-4.43,4.35-4.72,4.65-.3.3-1.13.53-1.66,0-.53-.53-.42-1.2-.14-1.49.29-.29,4.86-4.81,4.86-4.81,0,0-4.37-4.29-4.85-4.77-.36-.36-.34-1.04.08-1.47.36-.36,1.21-.51,1.65-.1l4.75,4.7s4.4-4.32,4.75-4.67c.35-.35,1.16-.47,1.62-.02.49.48.5,1.19.13,1.56-.37.38-4.81,4.76-4.81,4.76,0,0,4.52,4.45,4.83,4.77.31.31.36,1.04-.12,1.52Z"/>
    </g>
  </g>
</svg>