<?xml version="1.0" encoding="UTF-8"?>
<svg id="Layer_1" xmlns="http://www.w3.org/2000/svg" version="1.1" viewBox="0 0 176.61 49.87">
  <!-- Generator: Adobe Illustrator 29.5.1, SVG Export Plug-In . SVG Version: 2.1.0 Build 141)  -->
  <defs>
    <style>
      .st0 {
        fill: #fff;
      }

      .st1 {
        fill: #d85b4d;
      }

      .st2 {
        fill: #4b4b4d;
      }
    </style>
  </defs>
  <path class="st0" d="M173.28,10.09c-.45-.56-1.12-.88-1.85-.88-.03,0-3.17.08-7.32.16.6-.29,1.6-.93,1.8-1.74.08-.34.33-1.36-1.28-2.38-.48-.3-1.29-.5-1.56-.55l-.45-.08-.03-.31c0-.07-.02-.13-.05-.19-.09-.23-.36-.69-1.07-1.18-1.22-.84-2.61-1.4-5.41-1.4-3.22,0-4.68.62-5.68,1.23-1.09.66-2.22,1.91-2.23,1.92l-.2.22-.3-.02c-.06,0-1.49-.07-3.04,1.05-1.62,1.16-1.18,2.55-1.16,2.61.11.32.44.65.81.94-14.76-.06-129.22-.29-130.44-.29-1.92,0-3.62,1.36-4.03,3.24l-6.94,31.66c-.15.7.02,1.42.47,1.98s1.12.88,1.84.88h157.62c1.92,0,3.62-1.36,4.03-3.24l6.94-31.66c.15-.7-.02-1.42-.47-1.98Z"/>
  <g>
    <path class="st1" d="M131.11,41.89s-.08-.04-.18-.04H8.07c-.19,0-.27.07-.32.27l-.4,1.92c-.02.11,0,.17,0,.18.02.02.08.04.18.04h122.86c.18,0,.27-.07.32-.27l.4-1.92c.02-.11,0-.17,0-.18,0,0,0,0,0,0Z"/>
    <path class="st1" d="M137.16,14.31l.4-1.93c.02-.11,0-.16,0-.18,0,0,0,0,0,0-.02-.02-.08-.04-.18-.04H14.61c-.19,0-.27.07-.32.27l-.4,1.93c-.02.11,0,.17,0,.18.02.02.08.04.18.04h122.76c.18,0,.27-.07.32-.27Z"/>
    <g>
      <path class="st2" d="M118.66,21.38s-.08-.04-.18-.04h-3.88c-.21,0-.35.07-.47.23l-6.4,10.12s-.08.06-.13.05c-.05,0-.09-.04-.11-.08l-2.08-10.05c-.07-.21-.14-.26-.35-.26h-3.41c-.18,0-.27.07-.32.27l-2.96,13.97c-.02.11,0,.16,0,.18.02.02.08.04.18.04h2.51c.18,0,.27-.07.32-.27l1.98-9.38c.01-.06.06-.1.12-.11.06,0,.12.03.14.09l2.12,9.42c.07.21.14.26.35.26h1.51c.22,0,.35-.06.48-.23l6.4-9.65s.07-.05.11-.05c.02,0,.04,0,.06.01.06.03.09.09.07.15l-2.03,9.54c-.02.1,0,.16,0,.18.02.02.08.04.18.04h2.51c.18,0,.27-.07.32-.27l2.96-13.97c.02-.1,0-.16,0-.18Z"/>
      <path class="st2" d="M22.19,21.34h-8.87c-.19,0-.27.07-.32.27l-2.96,13.97c-.02.11,0,.17,0,.18.02.02.08.04.18.04h9.58c3.05,0,4.69-1.59,5.49-5.32l.82-3.89c.36-1.71.17-3.09-.55-3.97-.68-.84-1.82-1.27-3.38-1.27ZM23.11,26.77l-.82,3.83c-.44,2.09-1.51,2.38-2.61,2.38h-5.9s-.08-.02-.11-.05c-.03-.03-.03-.07-.03-.11l1.8-8.51c.01-.06.07-.11.13-.11h5.78c.58,0,1.17.06,1.54.52.34.42.4,1.07.2,2.05Z"/>
      <path class="st2" d="M32.37,21.38s-.08-.04-.18-.04h-2.51c-.18,0-.27.07-.32.27l-2.96,13.97c-.02.1,0,.16,0,.18.02.02.08.04.18.04h2.51c.19,0,.27-.07.32-.27l2.96-13.97c.02-.1,0-.16,0-.18,0,0,0,0,0,0Z"/>
      <path class="st2" d="M45.96,23.95l.5-2.39c.02-.11,0-.16,0-.18,0,0,0,0,0,0-.02-.02-.08-.04-.18-.04h-12.12c-.19,0-.27.07-.32.27l-.49,2.39c-.02.11,0,.17,0,.18.02.02.08.04.18.04h4.38s.08.02.11.05c.03.03.04.07.03.11l-2.38,11.19c-.02.1,0,.16,0,.18.02.02.08.04.18.04h2.55c.19,0,.27-.07.32-.27l2.38-11.2c.01-.06.07-.11.13-.11h4.42c.18,0,.27-.07.32-.27Z"/>
      <path class="st2" d="M57.76,21.34h-5.69c-2.93,0-4.7,1.62-5.42,4.96l-1,4.74c-.3,1.41-.09,2.6.59,3.44.7.87,1.9,1.32,3.45,1.32h5.69c2.91,0,4.73-1.66,5.42-4.93l1-4.74s0,0,0,0c.31-1.41.11-2.61-.57-3.45-.71-.87-1.9-1.33-3.46-1.33ZM58.79,26.16l-1.06,5c-.28,1.26-.86,1.77-2,1.77h-5.69c-.4,0-.9-.05-1.21-.43-.26-.33-.3-.78-.14-1.52l1.06-5c.28-1.31.81-1.8,1.98-1.8h5.69c.42,0,.93.05,1.24.42.26.32.3.77.14,1.54Z"/>
      <path class="st2" d="M77.77,27.46l-4.39-.3c-.45-.03-.95-.12-1.23-.5-.26-.36-.21-.8-.14-1.1.27-1.2,1.15-1.36,1.98-1.36h4.02c1.22,0,1.42.82,1.45,1.18.02.29.07.29.2.29h2.57c.2,0,.28-.06.31-.26.15-1.22-.07-2.18-.68-2.87-.69-.78-1.9-1.2-3.5-1.2h-4.07c-3.66,0-4.76,1.66-5.29,4.16-.25,1.17-.12,2.09.36,2.75.58.78,1.72,1.24,3.38,1.37l4.39.35c.44.03.92.11,1.2.48.27.35.22.81.16,1.13-.27,1.22-1.21,1.37-2,1.37h-4.35c-1.16,0-1.39-.74-1.42-1.18-.02-.29-.07-.29-.2-.29h-2.57c-.2,0-.28.06-.31.26-.15,1.23.07,2.2.68,2.88.69.78,1.89,1.19,3.48,1.19h4.39c3.64,0,4.75-1.7,5.29-4.24.25-1.17.12-2.1-.38-2.76-.59-.78-1.71-1.22-3.34-1.33Z"/>
      <path class="st2" d="M94.18,21.34h-4.59c-2.93,0-4.7,1.62-5.42,4.96l-2,9.33s0,.08.03.12c.03.03.06.05.11.05h2.5c.19,0,.35-.13.39-.32l.95-4.36c.01-.06.07-.11.13-.11h7.71s.08.02.1.05c.03.03.04.07.03.11l-.97,4.45s0,.08.03.12c.03.03.06.05.11.05h2.54c.19,0,.35-.13.39-.32l2-9.35c.31-1.41.11-2.61-.57-3.45-.7-.87-1.9-1.33-3.46-1.33ZM95.21,26.16l-.6,2.73c-.01.06-.07.11-.13.11h-7.71s-.08-.02-.1-.05c-.03-.03-.04-.07-.03-.11l.62-2.84c.28-1.31.81-1.79,1.98-1.79h4.6c.42,0,.93.05,1.24.42.26.32.3.77.14,1.54Z"/>
      <path class="st2" d="M133.51,22.67c-.7-.87-1.9-1.33-3.46-1.33h-4.59c-2.93,0-4.7,1.62-5.42,4.96l-2,9.33s0,.08.03.12c.03.03.07.05.11.05h2.5c.19,0,.35-.13.39-.32l.95-4.36c.01-.06.07-.11.13-.11h7.71s.08.02.11.05c.03.03.04.07.03.11l-.97,4.45s0,.08.03.12c.03.03.06.05.11.05h2.54c.19,0,.35-.13.39-.32l2-9.35c.31-1.42.11-2.61-.57-3.45ZM131.08,26.16h0s-.6,2.73-.6,2.73c-.01.06-.07.11-.13.11h-7.71s-.08-.02-.11-.05-.04-.07-.03-.11l.62-2.84c.28-1.31.81-1.79,1.98-1.79h4.59c.42,0,.93.05,1.24.42.26.32.3.77.14,1.54Z"/>
    </g>
    <g>
      <path class="st2" d="M157.55,23.38c-.13-.01-.25,0-.38.05l.36-1.58c.03-.14-.08-.28-.22-.28h-1.66c-.11,0-.2.07-.22.18l-1.51,6.7c-.02.1-.12.18-.22.18h-1.63c-.13,0-.23.1-.23.23v1.63c0,.13.1.23.23.23h1.6c1.1,0,2.06-.77,2.3-1.84l.63-2.81c.17.21.4.35.66.38.64.06,1.23-.57,1.31-1.41s-.37-1.58-1.01-1.64Z"/>
      <path class="st2" d="M142.68,21.11h-.01c-.79-.58-2.54-.27-3.57.76-.94.94-1.37,2.68-.37,4.17.31.46,1,1.19,1.52,1.73.05.05.07.12.05.19l-.32,1.41c-.03.12-.14.2-.26.18l-.89-.16c-.12-.02-.24.05-.26.17l-1.37,5.96c-.03.14.08.28.22.28h1.68c.11,0,.2-.07.22-.18l.84-3.65c.03-.12.14-.2.26-.17l.81.15c.12.02.23-.05.26-.16l.86-4.67c.01-.07,0-.14-.06-.2-.33-.35-1.61-1.7-1.84-2.04-.56-.84.11-1.52.12-1.53.42-.47,1.01-.43,1.29-.31.25.1.56.36.79.56.13.12.34.04.38-.13l.18-1c.1-.52-.12-1.04-.54-1.35Z"/>
      <path class="st2" d="M154.63,31.44h-4.69c-.13,0-.23.1-.23.23h0c0,.64.52,1.16,1.16,1.16h2.82c.64,0,1.16-.52,1.16-1.16h0c0-.13-.1-.23-.23-.23Z"/>
      <path class="st2" d="M150.57,26.58c.7.07,1.34-.62,1.43-1.54.05-.55-.1-1.05-.38-1.39h.97c.13,0,.23-.1.23-.23v-1.62c0-.13-.1-.23-.23-.23h-2.35c-1.02,0-1.85.83-1.85,1.85,0,.13.1.23.23.23h1.32c-.26.28-.44.68-.48,1.13-.09.92.4,1.72,1.1,1.79Z"/>
      <path class="st2" d="M153.2,33.54h-2.68c-.16,0-.28.17-.21.32.14.29.51.69,1.51.69.64,0,1.18-.32,1.53-.6.17-.13.07-.41-.15-.41Z"/>
      <path class="st2" d="M140.76,42.93c-.82,0-1.48.66-1.48,1.48s.66,1.48,1.48,1.48,1.48-.66,1.48-1.48-.66-1.48-1.48-1.48Z"/>
      <path class="st2" d="M175.47,8.43c-.98-1.22-2.45-1.92-4.02-1.92h-3.95c-.01-.08-.02-.16-.04-.24-.22-1.01-.94-1.66-1.95-2.3-.47-.3-1.05-.5-1.48-.62-.06-.02-.1-.05-.13-.1-.25-.44-.69-1-1.48-1.54-1.28-.88-2.93-1.69-6.34-1.69-2.89,0-4.84.44-6.54,1.46-.88.53-1.75,1.35-2.23,1.84-.04.04-.08.06-.14.06-.76.07-2.12.33-3.52,1.34-.51.37-1.2.96-1.66,1.81H13.83c-3.23,0-6.07,2.29-6.77,5.44L.12,43.61c-.34,1.53.04,3.11,1.02,4.34s2.45,1.92,4.02,1.92h157.62c3.23,0,6.07-2.29,6.77-5.44l6.94-31.66c.34-1.53-.04-3.11-1.02-4.34ZM144.88,6.4c1.42-1.02,2.72-.97,2.76-.96l.51.04.34-.38s1.11-1.22,2.13-1.84c.95-.57,2.34-1.16,5.45-1.16,2.69,0,4,.53,5.16,1.32.64.44.85.84.91.98,0,.02.01.04.01.06l.04.47c0,.1.09.19.19.2l.61.11c.23.04.98.22,1.4.48,1.35.85,1.16,1.62,1.09,1.9-.17.7-1.28,1.35-1.79,1.54l-.43.17c-.08.03-.13.1-.14.17l-1.84,7.44c-.02.13-.14.18-.27.19-1.59.02-14.9.03-16.43.02-.15,0-.27-.11-.25-.26l1.44-6.07.08-.61c.01-.1-.04-.2-.13-.24l-.56-.25c-.27-.12-1.09-.61-1.29-1.23-.02-.05-.36-1.14,1-2.11ZM173.32,12.07l-6.94,31.66c-.37,1.68-1.88,2.9-3.6,2.9h-.25c.17-2.61-.77-3.67-3.2-5.46-.86-.63-1.98-1.44-2.41-1.75-.1-.07-.24-.05-.31.05l-.95,1.33c-.07.1-.05.24.05.32.43.31,1.54,1.11,2.4,1.74,1.88,1.38,2.52,1.86,2.36,3.77h-23.65l1.09-4.8c.02-.1.12-.18.22-.18h9.89c.11,0,.2-.07.22-.18l.66-2.72c.1,0,.2.02.3.02.34.02.68.03,1,.03,1.99,0,3.59-.41,4.98-1.27,1.73-1.07,3.56-3.25,4.65-5.55,1.1-2.31,2.41-8.91,2.46-9.19l.19-.96c.03-.14-.08-.27-.22-.27h-1.31c-1.07,0-1.99.75-2.21,1.8-.03.14.08.27.22.27h.74c.15,0,.26.13.22.27-.5,2.31-1.34,5.81-1.98,7.17-1.06,2.23-2.7,3.95-3.86,4.67-1.23.76-2.74,1.05-4.75.93-1.61-.1-2.6-.65-2.96-.9-.1-.06-.22-.05-.3.04l-1.08,1.23c-.09.1-.07.26.04.34.3.22.92.62,1.86.93l-.23,1.05c-.02.1-.12.18-.22.18h-9.96c-.11,0-.2.07-.22.18l-1.58,6.89H5.16c-.58,0-1.13-.26-1.49-.72s-.5-1.04-.38-1.61l6.94-31.66c.37-1.68,1.88-2.9,3.6-2.9h128.25c.48.75,1.16,1.25,1.41,1.42.07.05.11.13.1.22l-1.7,7.9c-.02.15.11.28.25.26l20.53.15c.13.04.26-.05.29-.18l2.02-8.54c.01-.07.05-.13.11-.16.42-.23.98-.58,1.46-1.07h4.89c.58,0,1.13.26,1.49.72s.5,1.04.38,1.61Z"/>
    </g>
  </g>
</svg>